<?xml version="1.0" encoding="utf-8"?>
<!-- Generator: Adobe Illustrator 26.5.0, SVG Export Plug-In . SVG Version: 6.00 Build 0)  -->
<svg version="1.1" id="レイヤー_1" xmlns="http://www.w3.org/2000/svg" xmlns:xlink="http://www.w3.org/1999/xlink" x="0px"
	 y="0px" viewBox="0 0 28 28" style="enable-background:new 0 0 28 28;" xml:space="preserve">
<style type="text/css">
	.st0{fill:#0033AD;}
</style>
<path class="st0" d="M12.31,22.55c-1.24-0.23-2.4-0.72-3.41-1.41l-6.42,3.99l3.99-6.42c-0.68-1-1.17-2.15-1.41-3.39L0,13.62
	l5.08-1.71c0.24-1.24,0.72-2.39,1.41-3.39L2.49,2.11L8.9,6.1c0.59-0.4,1.23-0.74,1.92-0.99l0.7,1.03l-0.21,0.31
	c-0.16,0.23-0.22,0.51-0.19,0.78c-0.08,0.03-0.15,0.07-0.23,0.11l0,0c-1.37,0.68-2.49,1.8-3.17,3.17l0,0
	c-0.14,0.28-0.26,0.57-0.36,0.87c0,0,0,0,0,0h0c-0.24,0.7-0.37,1.44-0.37,2.22h0c0,0.01,0,0.01,0,0.02c0,0.01,0,0.01,0,0.02h0
	c0,0.77,0.13,1.52,0.37,2.22c0,0,0,0,0,0c0.1,0.3,0.22,0.59,0.36,0.87c0,0,0,0,0,0c0.86,1.72,2.4,3.04,4.26,3.6
	c0.01,0,0.03,0.01,0.04,0.01c0.1,0.03,0.19,0.05,0.29,0.08V22.55z M22.92,15.33L28,13.62l-5.08-1.71c-0.24-1.24-0.72-2.39-1.4-3.39
	l3.99-6.42L19.1,6.1c-0.59-0.4-1.22-0.73-1.9-0.98l-0.7,1.02l0.21,0.31c0.16,0.24,0.22,0.52,0.19,0.79c0.07,0.03,0.14,0.06,0.21,0.1
	c0,0,0,0,0,0h0c1.37,0.68,2.49,1.8,3.17,3.17c0.14,0.28,0.26,0.57,0.36,0.87c0,0,0,0,0,0h0c0.24,0.7,0.37,1.46,0.37,2.24
	c0,0.01,0,0.01,0,0.02h0c0,0.77-0.13,1.52-0.37,2.22c0,0,0,0,0,0c-0.1,0.3-0.22,0.59-0.36,0.87c0,0,0,0,0,0
	c-0.68,1.37-1.8,2.49-3.17,3.17l0,0c-0.35,0.17-0.71,0.32-1.09,0.43c-0.01,0-0.03,0.01-0.04,0.01c-0.09,0.03-0.18,0.05-0.27,0.07
	v2.13c1.24-0.24,2.38-0.72,3.39-1.41l6.42,3.99l-3.99-6.42C22.2,17.71,22.69,16.56,22.92,15.33z M14.58,15.46v7.98l0.78,2.47
	l-1.35,2.07l-1.35-2.07l0.78-2.47v-7.98l-1.3-4.26h1.01l-1.94-1.79l1.6-1.48l-0.57-0.84l0.65-0.95L11.36,3.9l2.65-3.88l2.65,3.88
	l-1.53,2.24l0.65,0.95l-0.57,0.84l1.6,1.48l-1.94,1.79h1.01L14.58,15.46z M12.73,3.9l1.28,1.87l1.28-1.87l-1.28-1.87L12.73,3.9z
	 M15.14,9.41l-1.13-1.05l-1.13,1.05l1.13,1.05L15.14,9.41z"/>
</svg>
