<?xml version="1.0" encoding="utf-8"?>
<!-- Generator: Adobe Illustrator 26.5.0, SVG Export Plug-In . SVG Version: 6.00 Build 0)  -->
<svg version="1.1" id="レイヤー_1" xmlns="http://www.w3.org/2000/svg" xmlns:xlink="http://www.w3.org/1999/xlink" x="0px"
	 y="0px" viewBox="0 0 28 28" style="enable-background:new 0 0 28 28;" xml:space="preserve">
<style type="text/css">
	.st0{fill:#D6D1C7;}
</style>
<path class="st0" d="M14,1.88L0,26.12h28L14,1.88z M14,17.21l3.47-5.18l0.62,1.07L14,19.2l-4.09-6.1l0.62-1.07L14,17.21z
	 M10.96,11.29l0.68-1.18h4.73l0.68,1.18H10.96z M14,21.23l1.64-2.45l3.04,5.27H9.32l3.04-5.27L14,21.23z M16.34,17.74l2.38-3.55
	l5.69,9.86h-4.43L16.34,17.74z M15.71,8.98h-3.42L14,6.02L15.71,8.98z M9.28,14.19l2.38,3.55l-3.65,6.31H3.59L9.28,14.19z"/>
</svg>
