<?xml version="1.0" encoding="utf-8"?>
<!-- Generator: Adobe Illustrator 26.5.0, SVG Export Plug-In . SVG Version: 6.00 Build 0)  -->
<svg version="1.1" id="レイヤー_1" xmlns="http://www.w3.org/2000/svg" xmlns:xlink="http://www.w3.org/1999/xlink" x="0px"
	 y="0px" viewBox="0 0 28 28" style="enable-background:new 0 0 28 28;" xml:space="preserve">
<style type="text/css">
	.st0{fill:#E1BB00;}
</style>
<path class="st0" d="M14,28C6.28,28,0,21.72,0,14S6.28,0,14,0s14,6.28,14,14S21.72,28,14,28z M18.94,11.14c-0.05,0-0.1,0-0.14,0.01
	c-0.34,0.05-0.64,0.26-0.79,0.57c-1.69,3.37-2.61,7.51-2.81,12.64c-0.01,0.32,0.13,0.64,0.37,0.84c0.19,0.16,0.43,0.25,0.67,0.25
	c0.07,0,0.15-0.01,0.22-0.02c0.23-0.05,0.47-0.11,0.69-0.17c0.41-0.12,0.71-0.47,0.76-0.9c0.41-3.93,2.21-6.85,3.65-8.6
	c0.24-0.29,0.3-0.68,0.17-1.03c-0.44-1.17-1.12-2.26-2.01-3.24C19.52,11.27,19.24,11.14,18.94,11.14z M9.06,11.15
	c-0.29,0-0.57,0.12-0.77,0.34c-0.9,0.98-1.57,2.07-2.01,3.24c-0.13,0.35-0.07,0.74,0.17,1.03c1.44,1.75,3.23,4.67,3.65,8.6
	c0.04,0.43,0.35,0.78,0.76,0.9c0.23,0.06,0.46,0.12,0.69,0.17c0.07,0.02,0.15,0.02,0.22,0.02c0.24,0,0.48-0.09,0.67-0.25
	c0.25-0.21,0.39-0.52,0.37-0.84c-0.2-5.14-1.12-9.27-2.81-12.64c-0.15-0.31-0.45-0.52-0.79-0.57C9.15,11.15,9.1,11.15,9.06,11.15z
	 M24.46,14.95c-0.27,0-0.53,0.1-0.73,0.3c-1.37,1.34-3.2,3.61-4.09,6.78c-0.12,0.44,0.05,0.91,0.43,1.16
	c0.18,0.12,0.38,0.18,0.58,0.18c0.23,0,0.46-0.08,0.65-0.23c2.19-1.74,3.68-4.2,4.19-6.95c0.08-0.45-0.13-0.9-0.54-1.12
	C24.8,14.99,24.63,14.95,24.46,14.95z M3.54,14.95c-0.17,0-0.34,0.04-0.49,0.12c-0.4,0.22-0.62,0.67-0.54,1.12
	c0.52,2.74,2.01,5.21,4.19,6.95c0.19,0.15,0.42,0.23,0.65,0.23c0.2,0,0.4-0.06,0.58-0.18c0.38-0.25,0.55-0.72,0.43-1.16
	c-0.89-3.18-2.72-5.44-4.09-6.78C4.07,15.05,3.81,14.95,3.54,14.95z M22.29,6.28c-0.31,0-0.6,0.13-0.8,0.37
	c-0.44,0.51-1.01,1.19-1.59,1.98c-0.31,0.43-0.26,1.02,0.13,1.38c0.95,0.89,1.73,1.91,2.31,3.03c0.15,0.28,0.41,0.48,0.72,0.54
	c0.07,0.01,0.14,0.02,0.21,0.02c0.24,0,0.48-0.08,0.67-0.24c0.34-0.28,0.69-0.55,1.05-0.8c0.35-0.24,0.51-0.67,0.42-1.08
	c-0.39-1.77-1.17-3.39-2.31-4.8c-0.2-0.24-0.49-0.38-0.8-0.39C22.3,6.28,22.3,6.28,22.29,6.28z M5.69,6.28
	c-0.31,0-0.6,0.15-0.8,0.39c-1.14,1.42-1.92,3.03-2.31,4.8C2.49,11.89,2.66,12.32,3,12.56c0.35,0.25,0.71,0.52,1.05,0.8
	c0.19,0.16,0.43,0.24,0.67,0.24c0.07,0,0.14-0.01,0.21-0.02c0.31-0.06,0.57-0.26,0.72-0.54c0.59-1.12,1.36-2.14,2.31-3.03
	C8.35,9.65,8.4,9.05,8.09,8.62C7.51,7.84,6.94,7.16,6.5,6.65c-0.2-0.23-0.49-0.37-0.8-0.37C5.7,6.28,5.7,6.28,5.69,6.28z M14,2.31
	c-1.86,0-3.72,0.45-5.37,1.31C8.35,3.76,8.15,4.03,8.09,4.34C8.02,4.66,8.11,4.98,8.32,5.23c1.67,1.95,3.39,4.22,4.7,7.67
	c0.15,0.41,0.54,0.68,0.98,0.68s0.83-0.27,0.98-0.68c1.31-3.45,3.04-5.73,4.7-7.67c0.21-0.24,0.29-0.57,0.23-0.88
	c-0.06-0.31-0.26-0.58-0.55-0.73C17.72,2.76,15.86,2.31,14,2.31z"/>
</svg>
