<?xml version="1.0" encoding="utf-8"?>
<!-- Generator: Adobe Illustrator 26.5.0, SVG Export Plug-In . SVG Version: 6.00 Build 0)  -->
<svg version="1.1" id="レイヤー_1" xmlns="http://www.w3.org/2000/svg" xmlns:xlink="http://www.w3.org/1999/xlink" x="0px"
	 y="0px" viewBox="0 0 28 28" style="enable-background:new 0 0 28 28;" xml:space="preserve">
<style type="text/css">
	.st0{fill:#00A300;}
</style>
<path class="st0" d="M25.87,9.84L28,9.18l-4.46-2.81l-0.82-2.72l-5.35-0.28L14,0.78l-3.38,2.59L5.27,3.65L4.45,6.37L0,9.18
	l2.12,0.67c0.08,0.03,6.11,1.96,9.14,5.73l-2.43-0.61l0.84,3.25l-2.89,1.7l2.92,1.75l-0.87,3.37l3.43-0.86l1.82,3.03l1.77-3
	l3.3,0.83l-0.84-3.25l2.89-1.7l-2.92-1.75l0.87-3.37l-2.43,0.61C19.76,11.8,25.79,9.87,25.87,9.84z M22.66,8.89
	c-1.78,0.8-4.16,2.08-6.12,3.88c1.21-2.35,2.75-4.36,3.94-5.75C21.51,7.67,22.22,8.37,22.66,8.89z M19.47,6.47
	c-1.36,1.6-3.11,3.95-4.37,6.68c0.57-3.57,1.45-6.18,1.98-7.51C17.98,5.85,18.78,6.14,19.47,6.47z M13.92,15.9l1.41,2.34L14,18.59
	l-1.44-0.37L13.92,15.9z M14,5.31c0.69,0,1.34,0.05,1.94,0.13c-0.55,1.43-1.39,3.98-1.94,7.43c-0.55-3.45-1.39-6-1.95-7.43
	C12.66,5.36,13.31,5.31,14,5.31z M10.92,5.64c0.52,1.33,1.41,3.94,1.98,7.51c-1.27-2.74-3.02-5.09-4.38-6.69
	C9.21,6.13,10.01,5.84,10.92,5.64z M5.28,8.87C5.74,8.34,6.46,7.65,7.5,7.01c1.19,1.38,2.73,3.41,3.95,5.76
	C9.47,10.96,7.06,9.67,5.28,8.87z M12.27,21.36l-2.38-1.43l2.36-1.39l0.37,1.47L12.27,21.36z M14.07,24.12l-1.41-2.34L14,21.43
	l1.44,0.37L14.07,24.12z M15.75,21.47l-0.37-1.47l0.34-1.36l2.38,1.43L15.75,21.47z"/>
</svg>
