<?xml version="1.0" encoding="utf-8"?>
<!-- Generator: Adobe Illustrator 26.5.0, SVG Export Plug-In . SVG Version: 6.00 Build 0)  -->
<svg version="1.1" id="レイヤー_1" xmlns="http://www.w3.org/2000/svg" xmlns:xlink="http://www.w3.org/1999/xlink" x="0px"
	 y="0px" viewBox="0 0 28 28" style="enable-background:new 0 0 28 28;" xml:space="preserve">
<style type="text/css">
	.st0{fill:#AA0000;}
</style>
<path class="st0" d="M27.8,18.38c-0.35,1.87-1.8,3.48-2.96,4.56c-0.92,0.88-1.78,1.73-2.59,2.69c-0.38,0.4-0.68,0.91-0.91,1.47
	c-0.67-0.65-1.78-1.2-3.16-1.56c0-0.05,0.01-0.09,0.01-0.14c0-1.33-0.68-2.51-1.72-3.22c2.26-0.14,6.32-2.85,6.65-5
	c0.1-0.88-0.16-1.71-0.53-2.51c-0.59-1.46-1.53-2.7-2.17-4.22c-0.55-1.24-0.71-3.02-0.18-4.31c0.48-1.24,1.4-2.32,2.63-2.84
	c-0.39,1.61-0.5,3.04,0.23,4.35c0.2,0.34,0.45,0.67,0.74,1.03c0.63,0.81,1.43,1.73,2.02,2.6C27.24,13.13,28.32,15.94,27.8,18.38z
	 M9.99,25.54c0.01-0.02,0.02-0.04,0.03-0.06c0-0.03,0-0.06,0-0.09c0-1.33,0.68-2.5,1.72-3.22c-2.21,0.02-6.51-2.79-6.85-5
	c-0.1-0.88,0.16-1.71,0.53-2.51c0.59-1.46,1.53-2.7,2.17-4.22C8.13,9.21,8.3,7.42,7.76,6.13C7.28,4.9,6.36,3.81,5.13,3.29
	c0.39,1.61,0.5,3.04-0.23,4.35C4.71,7.97,4.45,8.3,4.16,8.67c-0.63,0.81-1.43,1.73-2.02,2.6c-1.38,1.86-2.46,4.67-1.95,7.12
	c0.35,1.87,1.8,3.48,2.96,4.56c0.92,0.88,1.78,1.73,2.59,2.69c0.41,0.43,0.73,1,0.97,1.61C7.36,26.53,8.52,25.94,9.99,25.54z
	 M19.89,16.6h-2.98V3.9L14.15,0L11.1,3.88V16.6H8.32v2.21h2.24c0.01,0.6,0.5,1.09,1.11,1.09h1.33v4.89h-0.04
	c-0.33,0-0.6,0.27-0.6,0.6c0,0.3,0.22,0.55,0.51,0.59c-0.1,0.19-0.15,0.4-0.15,0.63c0,0.76,0.62,1.39,1.39,1.39s1.39-0.62,1.39-1.39
	c0-0.23-0.06-0.44-0.15-0.63c0.29-0.04,0.51-0.29,0.51-0.59c0-0.33-0.27-0.6-0.6-0.6h-0.04V19.9h1.33c0.61,0,1.1-0.49,1.11-1.09
	h2.24V16.6z"/>
</svg>
