<?xml version="1.0" encoding="utf-8"?>
<!-- Generator: Adobe Illustrator 26.5.0, SVG Export Plug-In . SVG Version: 6.00 Build 0)  -->
<svg version="1.1" id="レイヤー_1" xmlns="http://www.w3.org/2000/svg" xmlns:xlink="http://www.w3.org/1999/xlink" x="0px"
	 y="0px" viewBox="0 0 28 28" style="enable-background:new 0 0 28 28;" xml:space="preserve">
<style type="text/css">
	.st0{fill:#945C9E;}
</style>
<path class="st0" d="M26.62,0v19.35L14,28L1.38,19.35V0h9.3v4.78l-2.5-2.5H3.66v15.87L14,25.24l10.34-7.09V2.28h-4.53l-2.5,2.5V0
	H26.62z M22.8,12.97c0,0-0.24,2.7-2.76,2.7s-2.76-2.7-2.76-2.7h0l2.23-5.13h-4.86l-0.01,1.38l2.6,0.74l-0.51,1.15l-1.58-0.45
	c0,2.6-0.02,6.96,0.01,8.92c0.01,0.12-0.08,0.29-0.11,0.41c-0.14,0.4-0.28,0.84-0.43,1.24c-0.2,0.55-0.39,1.1-0.61,1.65
	c-0.32-0.82-0.62-1.64-0.9-2.47c-0.05-0.14-0.17-0.48-0.21-0.62c-0.08-0.18-0.01-0.41-0.03-0.62c0,0,0-0.41,0-0.41
	c0-0.53,0-1.93,0-2.47c0,0,0-4.2,0-5.62l-1.44,0.42l-0.51-1.15l2.47-0.72l0.01-1.38H8.6l2.23,5.13h0c0,0-0.24,2.7-2.76,2.7
	c-2.53,0-2.76-2.7-2.76-2.7L8.06,6.6l0,0h5.34l0.02-2.11l-1.24-1.24h3.73L14.66,4.5l-0.02,2.1h5.39v0l0,0L22.8,12.97L22.8,12.97z
	 M9.47,12.97L8.06,9.72l-1.41,3.24c0,0,0.01,0.01,0.01,0.01H9.47z M18.63,12.97h2.8c0,0,0.01-0.01,0.01-0.01l-1.4-3.24L18.63,12.97z
	"/>
</svg>
