<?xml version="1.0" encoding="utf-8"?>
<!-- Generator: Adobe Illustrator 26.5.0, SVG Export Plug-In . SVG Version: 6.00 Build 0)  -->
<svg version="1.1" id="レイヤー_1" xmlns="http://www.w3.org/2000/svg" xmlns:xlink="http://www.w3.org/1999/xlink" x="0px"
	 y="0px" viewBox="0 0 28 28" style="enable-background:new 0 0 28 28;" xml:space="preserve">
<path d="M18.06,2.99l-1.34,5.36L14,11.02l-2.72-2.68L9.94,2.99L14,0.16L18.06,2.99z M27.97,7.88c-0.02-0.3-0.13-0.65-0.39-1.41
	c-0.29-0.86-0.73-2.17-0.75-2.87C26.82,3,26.32,2.52,25.71,2.54c-0.61,0.02-1.08,0.52-1.07,1.13c0.02,0.82,0.34,1.9,0.64,2.84
	c-0.03,0.41-0.06,0.95-0.08,1.52c-0.1-0.13-0.21-0.28-0.34-0.44c-0.41-0.52-1.04-1.31-1.19-1.79c-0.18-0.58-0.79-0.91-1.37-0.73
	c-0.58,0.18-0.91,0.79-0.73,1.37c0.27,0.87,0.99,1.78,1.56,2.51c0.18,0.23,0.42,0.53,0.5,0.66c0.13,0.55,0.05,2.56-0.27,3.57
	c-0.18,0.23-0.34,0.45-0.49,0.64c-0.09-0.73-0.68-2.52-0.77-2.73c-0.17-0.37-0.48-0.62-1-1.04c-0.39-0.31-0.87-0.7-1.13-1.03
	c-0.38-0.48-1.07-0.55-1.54-0.18c-0.48,0.38-0.55,1.07-0.18,1.54c0.41,0.52,1,0.99,1.47,1.37c0.14,0.11,0.31,0.25,0.42,0.34
	c0.14,0.42,0.46,1.49,0.54,1.87c-0.13,0.47-0.98,2.36-2.63,2.35c-0.68-0.18-0.9-0.56-1.02-1.21c0.05-1.03,0.01-1.94,0.01-1.99
	c-0.03-0.61-0.54-1.07-1.15-1.04c-0.61,0.03-1.07,0.54-1.04,1.15c0,0.01,0.04,0.94-0.01,1.9c0,0.01,0,0.01,0,0.02
	c-0.02,0.4-0.06,0.81-0.13,1.15c-0.24,1.22,0.03,2.96,0.3,4.64c0.14,0.89,0.27,1.72,0.27,2.21c0,0.83-0.04,1.45-0.07,1.95
	c-0.06,0.89-0.1,1.48,0.26,2.02c0.38,0.57,1.3,0.73,2.19,0.73c1.05,0,2.07-0.22,2.08-0.22c0.89-0.22,1.37-0.67,1.42-1.32
	c0.01-0.07,0.01-0.18,0.02-0.33c0.04-0.85,0.18-3.44,1.29-4.85c0.5-0.64,1.25-1.54,2.05-2.5c2.46-2.96,3.15-3.83,3.31-4.35
	C28.06,13.55,28,8.25,27.97,7.88z M13.15,15.15c0-0.01,0-0.01,0-0.02c-0.05-0.96-0.01-1.88-0.01-1.9c0.03-0.61-0.44-1.12-1.04-1.15
	c-0.61-0.03-1.12,0.44-1.15,1.04c0,0.06-0.04,0.97,0.01,1.99c-0.12,0.66-0.33,1.03-1.02,1.21c-1.65,0.01-2.49-1.89-2.63-2.35
	c0.08-0.39,0.4-1.47,0.54-1.87c0.1-0.09,0.28-0.23,0.42-0.35c0.47-0.38,1.06-0.85,1.47-1.37c0.38-0.48,0.3-1.17-0.18-1.54
	c-0.48-0.38-1.17-0.3-1.54,0.18c-0.26,0.33-0.74,0.72-1.13,1.03c-0.52,0.42-0.83,0.67-1,1.04c-0.1,0.21-0.68,2-0.77,2.73
	c-0.15-0.19-0.31-0.41-0.49-0.64c-0.32-1.01-0.4-3.02-0.27-3.57c0.08-0.13,0.32-0.44,0.5-0.66c0.58-0.73,1.3-1.64,1.56-2.51
	C6.61,5.85,6.28,5.24,5.7,5.06C5.12,4.88,4.5,5.21,4.33,5.79C4.18,6.27,3.55,7.06,3.14,7.58C3.01,7.75,2.89,7.89,2.79,8.02
	c-0.02-0.57-0.05-1.1-0.08-1.52c0.3-0.94,0.62-2.02,0.64-2.84C3.37,3.06,2.9,2.56,2.29,2.54C1.68,2.51,1.18,3,1.16,3.61
	c-0.02,0.7-0.46,2-0.75,2.87C0.16,7.24,0.04,7.59,0.03,7.88C0,8.25-0.06,13.55,0.17,14.27c0.16,0.51,0.85,1.39,3.31,4.35
	c0.8,0.96,1.55,1.86,2.05,2.5c1.11,1.42,1.24,4,1.29,4.85c0.01,0.14,0.01,0.26,0.02,0.33c0.06,0.65,0.54,1.09,1.42,1.32
	c0.02,0,1.03,0.22,2.09,0.22c0.89,0,1.81-0.16,2.19-0.73c0.35-0.53,0.31-1.12,0.26-2.02c-0.03-0.5-0.07-1.13-0.07-1.95
	c0-0.48,0.13-1.32,0.27-2.21c0.27-1.68,0.54-3.41,0.3-4.64C13.22,15.95,13.18,15.55,13.15,15.15z"/>
</svg>
