<?xml version="1.0" encoding="utf-8"?>
<!-- Generator: Adobe Illustrator 26.5.0, SVG Export Plug-In . SVG Version: 6.00 Build 0)  -->
<svg version="1.1" id="icon" xmlns="http://www.w3.org/2000/svg" xmlns:xlink="http://www.w3.org/1999/xlink" x="0px" y="0px"
	 viewBox="0 0 862 826" style="enable-background:new 0 0 862 826;" xml:space="preserve">
<style type="text/css">
	.st0{fill:#A78164;}
	.st1{fill:#85A563;}
	.st2{fill:#F9AF3C;}
	.st3{fill:#382D1E;}
</style>
<path class="st0" d="M779.3,635.01v39.49l3.4,17.51c0,0,7.34,15.24,5.75,20.75s-4.37,21.53-18.11,28.25
	c-6.14,3-20.39,5.25-26.64,4.75s-9.75,0.07-9.75,0.07s7.8,14.68,16.4,13.68s13.1-3.13,20.35-8.56s20.5-18.19,30-15.69
	s34,15.69,34,15.69l1.75,29.33c0,0-9-6.27-19.75-9.77s-17.25-6.5-24.25-1.25s-23.25,21.75-27.5,25s-16,12.75-21.5,13
	s-24.5-3-29.25-6.25s-16-14.46-16.75-20.73c-0.75-6.27-1.5-18.98,2.25-26s12-16.73,14-23.25s-3.25-46.27-3.25-46.27
	s-13,5.25-27.25,11.5s-36.75,12.25-50.25,14s-33.75,1-42.25-2.25s-25.75-6.45-26.5-16.47s1.11-21.8,2.93-27.91
	s6.65-28.61,6.65-28.61l-25.79,9.5c0,0-34.03,15.73-45.03,19.11c-11,3.39-72.25,22.89-78.25,25.14s-48,22.25-58.75,23
	s-39.75,9.51-53,9.38s-39.25,5.51-44.75,3.69s-34.75-4.82-44.5-13.57s-20.75-41.75-20.75-41.75l-19-49l-10.57-26.25
	c0,0-26.68-3.5-32.68-8.75s-19.5-30.73-18-33.99s3.75-11.93,2-23.85c-1.75-11.91-4.25-15.84-4.25-15.84s-21,4.93-29.75,3.93
	s-28.5-0.48-31-5.36s-15.75-21.14-20.25-29.14s-12.25-17.5-12.25-17.5s12.5,3.16,19.5,8.83s13.75,13.17,22,14.92
	s34.75-0.5,34.75-0.5l6.39-6.25l-5.22-26.5c0,0-11.16,2.25-13.66,1.75s-21.5-4.29-23.5-10.77c-2-6.48-9.5-23.59-14.75-26.78
	s-21-19.15-21-19.15s2.75-6.04,8.75-4.04s21.5,15.19,26,18.97s22.5,7.53,27.75,5.28s18.5-13.25,24-15.75s13.25-5.75,13.25-5.75
	s14.5,27.45,25.5,33.35s21.25,9.15,21.25,9.15s6.32,27.75,4.04,34.25c11.71-1.5,28.26-14,28.26-14s24.83-16.47,37.39-18.49
	s34.31-0.25,34.31-0.25l324.75,2.98c0,0,35.74-11.55,45.75-13.65c10-2.1,51.75-5.6,64.25,7.27s13.75,24.13,13.75,24.13
	s-8.25,23.5-6.5,43.5c1.75,20,10,58.25,10,58.25s19.25-3.99,26.75-1.5s26.75,10.25,29,23.75S779.3,635.01,779.3,635.01z"/>
<path class="st1" d="M754.64,132.35c0,0-22.49-22.57-20.76-38.44s-3.14-32.82,3.52-48.85s24.17-41.71,24.17-41.71
	s1.77,19.33,5.78,35.67s13.68,39.02,11.68,51.84s-10.7,34.16-10.7,34.16l-6.76,19.67c0,0,17.67-14,40.46-29.67
	s43.33-23.18,43.33-23.18s-3.98,24.85-12.82,45.85s-14.28,37-21.4,43.33s-12.08,12.2-24.93,15.77s-28.23,8.79-28.23,8.79
	l-17.84,47.73c0,0,16.06-3.62,31.47-7.62s29.97-7.33,41.19-13c11.23-5.67,22.17-14.63,22.17-14.63l12.72-5.48
	c0,0-9.99,27.12-18.33,39.45c-8.34,12.33-32.21,35-36.44,36.33s-71.39,18.33-71.39,18.33l-19.84,45.67c0,0,22.22-7.33,43.94-11.33
	c21.72-4,50.06-13.67,50.06-13.67s-4.67,18-13,28.33s-30.43,33.96-38.43,41.58s-30.24,14.03-44.57,15.56s-39.33,3.53-39.33,3.53
	l-18.86,17.98l-2.4-12.98c0,0-19.39-8.88-22.73-24.09c-3.35-15.2-6.17-50.5-6.17-50.5s15.49,8.25,24.49,16.58s24.01,27,24.01,27
	l4.21-1.67c0,0-2.58-10.67,3.6-14.67s17.61-13.67,17.61-13.67l17.25-36.67c0,0-18.67-7.14-20-16.24c-1.33-9.09-1-47.43-1-47.43
	s14.67,10.82,20,19.58c5.33,8.76,9.98,12.02,9.98,12.02s3.09-11.93,6.89-17.93S724.21,261,728.96,250c4.75-11,4.93-16.33,4.93-16.33
	s-12.45-7.33-16.65-12.67c-4.2-5.33-6.92-7.92-6.89-19.13c0.02-11.21,0.2-24.31-5.1-32.54c17.08,10.66,36.01,33.1,34.9,43.22
	c6.56-8.22,3.11-14.88,5.5-22.55s9-29.79,9-29.79L754.64,132.35L754.64,132.35z M297.99,722.29h-35.1l-17.19,20.72l-15.33,15.67
	l-18.46,5.67l-0.82,14.55l-8.39,12.55l8.39,24.57l6.95-1.33c0,0,25.62-38.67,37.31-48.67c11.69-10,45.35-41.18,45.35-41.18
	L297.99,722.29z M494.55,666.26c0,0,13.82,14.42,17.92,19.67s26.23,36.09,33.95,40.42c7.72,4.33,20.28,29.67,23.94,38.71
	c3.67,9.04,16.33,18.63,23.94,25.29c7.61,6.67,30.72,26,38.06,29.33c7.33,3.33,13.67,2,14-1.99s-13-20.01-21.33-28.68
	s-32.67-31.67-40.67-41.05s-28.33-40.62-37.94-51.28c-9.61-10.67-33.95-36.59-33.95-36.59L494.55,666.26z M190.3,92.85
	c-2.4,9.17-7.93,18.83-12.34,27.17s-3.27,29.6-3.27,29.6s-5.99-7.93-8.4-13.32s-13.59-15.61-15.89-14.61s-1.03,8.33-1.7,15.67
	c-0.67,7.33-1.67,28.67-2,39.11s6,25.56,10.82,33.89s21.51,18.63,21.51,18.63s-1.33,23.37-2,29.6s-0.33,22-0.33,22
	s-11-10.24-19-16.32c-8-6.08-27.67-14.92-38.33-20.59c-10.67-5.67-22-8.33-22-8.33s15.33,48.33,21.67,62.56
	c6.33,14.23,59.33,32.17,59.33,32.17l2.19,14.09l5.02,34c0,0,3.79,5.84,1.46,8.51c-3.33-2.33-36.33-9.33-45.33-12.33
	s-34.67,2.33-34.67,2.33s23.33,18.33,27.2,25s16.8,22,25.13,30.94s38.67,6.56,38.67,6.56l5.31,6.06l16.68,30.97l13.8,21.59
	l7.89,12.59c0,0-2.01,0.95-7.89,3.9c-5.87,2.96-20.13,4.38-30.48,7.04C192.99,524,159.37,523,159.37,523l21.33,16.67
	c0,0,45.67,26.67,66.99,30S289.53,541,289.53,541l25.84,19.66L297.04,594c0,0,26.21-5.67,35.67-10.19c9.45-4.52,43-17.56,43-17.56
	l-20.25-18.43c0,0-41.08-15.48-53.58-20.15c1.17-23-5.84-45.95-12.34-55.97s-15.76-17.62-15.76-17.62s-0.07,10.59-1.74,14.82
	c-1.67,4.23-9,23.11-9.14,36.44c-3.81-2-18.86-12.33-24.77-21s-19.2-42.07-19.2-42.07s16.79-31.93,17.46-38.6
	c0.68-6.67-9.01-35-12.35-36s-17.55,22-17.55,22L196.63,353c0,0,15.74-10.76,22.29-26.33c6.55-15.57,12.26-44.67,12.26-44.67
	s-9.48,4.67-19.73,9.67s-21.95,14-21.95,14l-2.46-1.67v-18.3l2.46-21.44l26.12-10.23l22.42-33.69l-3-13.33c0,0-14.67,4-33,10.5
	c3-13.61-4.22-37.83-4.22-37.83s11.22-18,16.26-24.67s10.29-35,7.96-57c-2.33-22-25.41-46-25.41-46S192.7,83.68,190.3,92.85z"/>
<path class="st2" d="M658.7,94.68l-36,257.83c0,0-10.5-6-12.5-5.75s1.12,22.5,1.12,22.5l4.88,36.77l-14.25,43.98
	c0,0-31.26,11.25-45.75,21c-14.5,9.75-88.34,55.25-94.17,56.75s-79.83,38.5-79.83,38.5h-6.5l-21.25-19.34l-54.23-51.13
	c0,0-4.86-20.25-10.69-27.51c-5.83-7.26-17.58-15.51-17.58-15.51s-16.5-21.5-20.5-53s-9-76-6.75-95.25s8.25-62.75,8.25-79.5
	s8-64.25,8-64.25l11-66.08l5.25-20.42l5.75-2.5c0,0,33.75,29.75,53,32.5s51.5,6.5,77.5-8.5s37.75-19,44-29.75s8.5-21.25,16-16
	s21.65,28.5,26.82,34.5c5.18,6,39.68,31.25,50.68,32.5s32.75,2.75,49.5,0.25s35.25-9.75,41.75-13.5S658.7,94.68,658.7,94.68z"/>
<path class="st3" d="M349.44,638.21c0.2,4.24-2.32,6.11-5.81,6.04c-3.69-0.08-5.48-2.97-5.8-6.37c-0.29-3,3.5-5.94,6.91-5.72
	C348.66,632.42,349.64,634.96,349.44,638.21z M752.82,57.17c0.23-5.81,3.02-10.82,4.96-16.1c1.26-3.42,2.53-6.84,3.79-10.26
	c-4.13,3.56-5.21,8.76-8.25,12.81c0,0,0-0.01,0-0.02c0,0,0-0.01,0-0.01c0,0,0,0,0,0c0,0,0-0.01,0-0.01l-0.01,0.02
	c-0.03,0.02-0.06,0.06-0.1,0.09c0,0.02,0,0.04,0.01,0.07c0,0,0.01-0.02,0.03-0.04c0.02-0.02,0.03-0.04,0.05-0.06
	c-0.98,4.49-3.55,8.59-3.42,13.37c0.03,1.04,0.24,2.19,1.44,2.27C752.63,59.38,752.78,58.18,752.82,57.17z M756.36,32.04
	c0.95-3.29,2.99-6.26,2.88-9.9c-4.41,6.3-6.92,13.4-8.87,20.74c-0.28,1.05-0.8,2.57,0.73,2.94c1.35,0.33,1.32-1.44,2.12-2.12
	C752.61,39.39,755.22,35.91,756.36,32.04z M693.13,570.19c3.91-0.31,7.36-0.56,10.81-0.86c0.8-0.07,1.78-0.17,1.88-1.2
	c0.12-1.27-0.93-1.64-1.91-1.77c-3.65-0.48-7.23,0.22-10.81,0.81c-1.26,0.2-3.29,0.02-3.16,1.58
	C690.08,570.66,692.21,570.07,693.13,570.19z M267.16,334.32c-0.32,13.49,0.22,26.91,2.1,40.36c3.97,28.36,12.57,54.51,30.65,77.42
	c14.11,17.89,26.96,36.6,44.2,51.98c13.39,11.94,24.98,25.88,37.53,38.77c2.04,2.09,5.08,5.93,7.83,2.98
	c2.35-2.52-2.08-4.58-3.87-6.26c-14.56-13.67-29.04-27.38-42.97-41.73c-16.95-17.45-30.71-37.22-44.69-56.92
	c-2.44-3.43-4.52-6.96-6.12-10.83c-12.63-30.59-19.71-62.2-17.91-87.17c0.88-30.85,3.22-53.24,6.32-75.5
	c3.23-23.26,5.48-46.64,8.63-69.91c2.61-19.32,5.99-38.49,9.95-57.57c1.68-8.06,2.42-9.15,9.45-9.81c3.4-0.32,6.16,1.3,8.76,3.09
	c2.52,1.73,5.11,3.27,8.15,3.59c8.43,0.87,16.87,1.91,25.33,2.3c20.7,0.95,40.85-3.1,60.73-8.1c14.08-3.54,27.72-8.65,39.15-18.13
	c3.71-3.07,7.15-6.45,10.74-9.66c1.13-1.01,2.24-2.02,3.94-0.83c3.23,2.26,6.63,4.02,9.1,7.48c7.36,10.28,16.82,17.94,29.26,21.45
	c1.74,0.49,3.39,1.4,4.98,2.29c8.92,4.97,18.42,8.8,28.17,11.42c32.4,8.7,63.96,6.05,94.22-8.89c1.64-0.81,4.67-1.64,3.72-3.8
	c-0.93-2.11-3.67-0.55-5.33,0.18c-11.13,4.88-23.27,5.57-34.86,8.52c-8.14,2.07-16.75,4.07-25,3.57
	c-13.74-0.83-27.69-2.65-40.56-7.83c-23.74-9.56-43.56-24.72-59.57-44.75c-1.63-2.04-3.44-3.23-5.24-0.85
	c-5.08,6.7-12.5,10.44-19.05,15.18c-14.42,10.42-29.04,20.75-47.63,22.47c-0.65,0.06-1.27,0.4-1.92,0.53
	c-8.49,1.63-17.03,4.47-25.64,3.38c-12.14-1.53-24.25-1.55-36.41-1.6c-1.33,0-2.96,0.31-3.93-0.32c-5.97-3.9-12.98-5.04-19.44-7.61
	c-3.72-1.48-7.28-3.16-9.96-6.4c-2.11-2.55-5.33-2-6.68,1.02c-0.67,1.49-0.82,3.21-1.17,4.83c-2.34,10.75-1.44,21.91-4.16,32.64
	c-1.55,6.14-3.01,12.32-4.02,18.56c-3.89,24.01-7.59,48.05-11.35,72.08c-3.19,20.4-7.11,40.74-6.73,61.51
	C266.03,316.41,267.4,325.31,267.16,334.32z M582.67,222.55c-1.56-0.82-2.67,1-3.55,2.09c-7.63,9.36-16.23,17.25-27.43,22.52
	c-14.68,6.91-29.23,13.45-45.06,11.71c-3.7-0.82-5.1,0.35-5.27,3.08c-0.45,7.37-2.49,14.4-4.69,21.4c-0.28,0.88-1.04,1.91-0.01,2.72
	c1.01,0.79,2.59,0.78,3.27,0.05c2.14-2.3,4.52-1.52,6.94-1.04c10.19,2.04,20.48,3.26,30.66,5.77c8.1,2,13.12,6.27,18.32,11.51
	c1.05,1.06,1.91,2.31,2.9,3.43c0.97,1.1,1.91,2.7,3.66,1.66c2.01-1.18,1.06-2.89,0.25-4.36c-1.85-3.35-3.76-6.67-5.68-9.98
	c-0.83-1.44-1.58-2.83-1.91-4.54c-1.98-10.16,0.69-19.69,5.49-28.21c4.17-7.41,8.69-14.8,14.46-21.27c3.2-3.59,6.12-7.51,7.84-12.09
	C583.39,225.59,584.65,223.57,582.67,222.55z M860.45,785.31c-2.77,1.53-3.65-1.17-4.82-2.9c-3.32-4.92-4.59-10.7-6.42-16.19
	c-4.47-13.38-12.36-25.54-14.26-39.82c-0.24-1.75-1.38-2.05-2.71-2.38c-12.13-3.03-24.05-6.68-35.27-12.3
	c-1.02-0.52-1.89-0.53-2.72,0.25c-2.56,2.4-5.89,4.87-6.02,8.33c-0.34,9.46-6.54,14.86-12.59,20.65
	c-7.12,6.81-15.49,8.45-24.89,6.95c-3.73-0.6-7.53-0.79-12.32-1.27c4.7,5.25,9.75,8.65,15.45,9.35c4.79,0.59,8.99-3.39,12.48-6.44
	c7.34-6.41,15.79-10.38,24.8-13.53c1.23-0.43,2.58-0.95,3.47-1.83c2.18-2.15,4.94-2.66,7.42-1.81c9.55,3.27,19.7,5.25,27.66,12.19
	c1.37,1.2,2.9,2.24,4.47,3.17c4.15,2.45,6.13,5.52,4.99,10.73c-1.14,5.24-0.33,10.7,1.25,15.8c2.93,9.44,4.27,19.15,5.35,28.88
	c0.43,3.93,2.03,6.44,5.1,8.54c2.18,1.49,4.43,3.04,5.42,5.71c0.29,0.76,0.84,1.56,0.2,2.31c-0.64,0.74-1.53,0.38-2.34,0.23
	c-7.27-1.35-13.6-7.82-15.2-15.08c-1.51-6.82-3.2-13.6-5.15-20.3c-1.05-3.62-3.2-5.83-7.58-6.74c-6.97-1.44-13.67-4.21-20.41-6.62
	c-5.07-1.81-9.48-1.78-13.91,1.99c-6.44,5.49-13.35,10.32-18.9,16.93c-4.95,5.9-12.77,8.52-18.45,13.5
	c-9.02,7.91-18.33,6.92-28.35,3.54c-1.56-0.53-3.23-0.75-4.86-1.1c-18.2-3.93-29.48-20.62-26.81-39.09
	c0.96-6.64,2.69-13.02,4.62-19.38c0.88-2.88,1.8-6,3.99-7.98c5.04-4.55,6.18-10.38,6.49-16.64c0.5-10.15,0.87-20.29-0.33-30.43
	c-0.34-2.85-1.4-3.22-3.82-2.23c-8.32,3.4-16.72,6.6-25.02,10.06c-18.95,7.89-38.94,12.28-59.17,13.19
	c-12.07,0.54-24.62-2.1-36.56-5.67c-3.33-1-6.99-1.16-10.1-2.58c-9.7-4.43-17.94-17.78-13.63-30.5c3.35-9.89,5.33-20.23,8.48-30.22
	c1.62-5.14,0.47-6-4.62-4.24c-4.24,1.47-8.73,2.12-11.8,6.36c-1.88,2.6-5.77,3.14-8.88,4.31c-8.67,3.26-17.38,6.43-26.18,9.68
	c1.02,2.51,2.99,3.86,4.64,5.43c16.01,15.15,30.53,31.65,44.31,48.81c7.32,9.12,13.49,19.02,19.29,29.15
	c6.27,10.93,16.21,18.21,25.24,26.54c8.72,8.06,18.41,15.44,24.43,26.13c1.54,2.73,3.44,5.07,5.9,7.23
	c5.09,4.47,6.81,10.9,8.02,17.32c0.49,2.63-1.18,3.99-3.87,3.96c-3.69-0.03-7.2-1.53-10.78-1.77c-10.94-0.72-18.55-6.89-26.06-14.04
	c-8.79-8.38-18.3-16.01-27.42-24.05c-3.83-3.38-6.58-7.36-9.15-12.02c-7.85-14.26-14.96-29.06-25.22-41.9
	c-0.87-1.09-1.62-3.37-2.91-0.1c-0.28,0.71-1.67-0.56-2.26-1.25c-2.82-3.29-5.68-6.55-8.32-9.97
	c-10.89-14.11-21.55-28.41-32.61-42.39c-7.24-9.16-7.53-9.08-18.05-4.63c-18.74,7.93-37.66,15.24-57.7,19.28
	c-2.72,0.55-5.33,1.88-7.88,3.08c-20.55,9.7-42.14,16.43-64.07,22.11c-7.71,2-15.57,3.52-23.4,5.03c-4.37,0.84-8.66,1.23-13.28,0.07
	c-3.86-0.97-8.2-0.35-11.6,2.85c-19.5,18.37-40.09,35.61-57.84,55.81c-5.4,6.15-10.85,12.24-15.09,19.24
	c-4.58,7.56-10.49,14.15-15.29,21.54c-2,3.08-5.41,3.11-8.22,3.42c-2.64,0.29-2.82-2.64-2.85-4.9c-0.11-7.28,0.08-14.62-3.23-21.42
	c-0.65-1.33-1.19-2.73-1.96-3.99c-1.74-2.85-2.06-5.67,0.25-8.27c5.07-5.72,7.04-12.3,6.13-19.86c-0.46-3.89,1.43-5.79,5.4-6.11
	c9.37-0.77,17.07-4.51,23.15-12.08c6.64-8.26,14.8-15.24,21.41-24.2c-5.88-1.12-11.31-2.33-16.8-3.16
	c-9.77-1.47-16.64-7.51-23.86-13.62c-5.7-4.83-8.35-10.93-10.88-17.37c-10.22-26.03-21.18-51.79-29.18-78.65
	c-1.54-5.16-5.14-9.3-7.5-14.07c-0.69-1.38-2.05-1.51-3.43-1.59c-21.78-1.18-34.65-14.1-43.08-32.8c-1.8-3.99-2.63-8.24-2.6-12.63
	c0.01-0.83-0.28-1.89,0.12-2.46c6.82-9.8,1.96-19.53-0.03-29.29c-0.41-1.98-1.41-2.45-3.18-1.96c-7.58,2.11-15.19,0.55-22.82,0.46
	c-9.59-0.11-19.13-0.14-28.63-1.67c-3.14-0.5-5.72-1.5-7.74-3.98c-8.08-9.95-15.64-20.32-22.11-31.35
	c-7.68-13.09-18.32-22.23-32.38-27.61c-1.51-0.58-3.55-1.02-2.87-3.29c0.54-1.81,2.34-1.79,3.81-1.39
	c16.77,4.59,33.31,9.72,46.1,22.46c7.17,7.15,15.69,11.82,25.68,13c9.26,1.1,18.62,1.44,27.49-2.69c2.19-1.02,2.53-2.02,2.34-4.49
	c-0.42-5.57-4.41-9.86-4.77-15.44c-0.17-2.59-3.01-2.9-5.19-2.83c-6.8,0.2-13.12-1.76-19.49-3.8c-6.02-1.92-10.51-5.63-12.23-11.48
	c-4.99-16.94-17.45-27.89-30.75-37.61c-6.65-4.86-15.47-6.74-23.29-10.02c-1.84-0.77-3.65-1.64-5.36-2.66
	c-1.25-0.75-2.87-1.76-1.98-3.49c0.86-1.65,2.84-1.26,4.03-0.58c11.11,6.33,23.37,3.67,35.15,4.47c4.97,0.34,9.02,1.51,12.27,5.45
	c5.75,6.97,11.97,13.28,20.83,16.51c8.96,3.27,17.34,4.43,25.65-1.99c7.87-6.09,16.23-11.54,24.83-17.6
	c-7.76-5.24-15.14-10.31-22.63-15.23c-1.97-1.29-4.52-2.09-3.63-5.1c0.83-2.81,3.3-2.3,5.44-2.03c3.38,0.42,6.63-0.33,9.9-0.95
	c14.32-2.72,28.13,0.85,42.02,3.41c8.96,1.65,17.76,3.87,26.51,7.97c-1.64-14.2-3.5-27.66-6.67-40.92c-0.3-1.24-0.92-2.83,0.18-3.78
	c1.31-1.13,1.94,1.14,3.37,1.36c-0.11-4.08-3.28-5.19-5.85-6.06c-10.88-3.68-21.52-7.96-32.16-12.25c-9.1-3.66-15.8-10-21.77-17.72
	c-11.72-15.17-16.04-33.05-19.97-51.12c-1.29-5.89-3.54-11.43-5.26-17.16c-0.41-1.38-0.81-2.45,0.23-3.63
	c1.25-1.41,2.57-1.09,4.05-0.4c14.29,6.71,28.7,13.18,43.08,19.68c8.4,3.8,16.71,7.3,23.52,13.63c2.55,2.37,5.05,4.8,7.57,7.2
	c-3.77-6.49-0.23-11.96,1.82-17.89c2.47-7.12,1.89-14.8,2.23-22.28c0.07-1.71-0.8-2.7-2.15-3.63c-2.33-1.6-4.41-3.58-6.79-5.09
	c-17.96-11.38-21.88-29.45-23.44-48.72c-1.39-17.18-0.06-34.29,1.17-51.4c0.09-1.16,0.15-2.33,0.39-3.47c0.4-1.9,0.24-4.2,2.79-4.81
	c2.4-0.57,3.51,1.31,4.96,2.67c5.68,5.34,7.42,13.27,12.56,18.96c1.44,1.59,2.74,3.31,4.92,5.95c0.29-16.22,6.47-29.8,12.73-42.94
	c7.29-15.32,8.14-31.36,9.48-47.57c0.15-1.74-0.71-4.16,1.4-4.9c2.21-0.77,2.15,2.03,3.22,3.12c11.91,12.17,19.89,26.93,24.59,42.95
	c7.2,24.55,1.85,47.89-11.22,69.33c-2.81,4.62-6.94,8.77-10.41,13.17c-1.18,1.49-1.62,2.48-0.93,4.36
	c3.47,9.5,4.92,19.36,4.38,29.44c-0.2,3.62,0.96,4.02,3.87,2.59c7.42-3.66,16.03-4.74,22.45-10.56c2.15-1.95,4.32-1.26,5.16,1.21
	c1.25,3.69,3.79,3.55,6.71,3.11c1.65-0.25,3.33-0.78,4.94-0.63c2.61,0.23,3.01-1.12,3.21-3.21c0.97-9.97,3.26-19.64,5.74-29.36
	c2.32-9.13,1.55-18.86,3.13-28.25c3.58-21.19,7.41-42.33,11.46-63.43c0.87-4.5,3.2-8.32,5.99-11.25c2.51-2.65,7.04-2.28,10.33,0.17
	c5.34,3.97,10.13,8.77,15.76,12.25c20.39,12.63,41.72,23.37,66.53,22.12c11.42-0.58,22.61-4.12,33.35-8.31
	c12.24-4.78,24.41-9.66,34.14-19.2c5.12-5.02,10.48-9.64,14.43-15.76c3.88-6.02,8.24-11.74,14.65-15.47
	c3.19-1.86,5.74-1.67,9.18,0.25c9.01,5.04,14.09,13.65,19.95,21.33c12.79,16.75,28.8,29.29,46.67,40.11
	c14.58,8.83,30.1,9.49,46.29,8.64c24.46-1.28,45.49-11.82,66.15-23.57c3-1.71,5.68-4.04,9.33-4.59c5.19-0.78,6.11-0.09,6.08,5.31
	c-0.04,7.22-1.45,14.25-2.96,21.25c-10.49,48.55-17.6,97.68-24.61,146.8c-4.21,29.51-9.5,58.87-12.45,88.56
	c-0.3,3.06,0.18,5.24,2.19,7.67c8.53,10.29,18.32,19.29,28,28.46c0.26-0.1,0.79-0.2,0.8-0.33c0.54-11.49,8.83-17.43,16.98-23.25
	c4.74-3.39,7.29-7.58,9.08-13.13c2.24-6.91,6.06-13.31,9.12-19.96c0.69-1.5,2.2-3.06-0.57-4.46c-14.6-7.4-20.2-19.45-18-35.46
	c1.64-11.94-1.05-23.49-3.34-35.07c-0.16-0.81-0.48-1.6-0.56-2.42c-0.17-1.8,0.22-3.43,2.24-3.91c1.72-0.41,2.89,0.55,3.56,2.05
	c3.4,7.59,8.37,14.11,14.73,19.29c5.34,4.36,9.45,9.62,13.02,15.13c1.7-0.17,2.05-1.27,2.32-2.09
	c4.98-15.09,14.25-28.18,19.93-42.95c0.93-2.39,1.3-3.49-1.71-5.21c-6.62-3.79-12.64-8.67-17.61-14.58
	c-3.33-3.96-3.63-9.03-3.39-13.78c0.73-14.07-0.89-27.57-7.7-40.15c-0.83-1.54-1.16-3.24,0.5-4.51c1.51-1.16,3.32-0.58,3.88,0.78
	c2.48,6.06,8.62,8.11,12.89,12.18c6.78,6.47,12.06,14.19,18.3,21.11c3.07,3.4,3.62,8.18,6.48,12.66c1.83-4.81,3.68-8.58,2.79-13.8
	c-1.88-11.02,1.5-21.36,5.9-31.44c3.67-8.39,3.32-17.52,4-26.44c0.06-0.86-0.4-1.43-1.04-2.08c-16.6-17.05-22.48-37.73-21.1-61.1
	c1.61-27.25,13.02-50.26,29.71-71.14c0.87-1.09,1.67-2.17,3.24-1.76c2.23,0.59,1.9,2.5,1.88,4.1c-0.12,11.68,0.5,23.28,3.04,34.74
	c1.08,4.9,2.31,9.73,4.21,14.35c7.3,17.77,9.56,35.88,3.78,55.26c1.16-0.98,1.76-1.47,3.36-2.82c-3.55,11.57-10.89,20.2-14.65,30.37
	c19.65-18.29,43.15-29.65,66.79-40.81c4.36-2.06,8.59-4.37,12.8-6.72c1.29-0.72,2.39-1.14,3.71-0.4c1.55,0.87,0.99,2.19,0.78,3.51
	c-2.47,15.56-7.13,30.46-14.1,44.57c-4.59,9.28-7.25,19.32-11.72,28.64c-2.97,6.18-6.18,12.4-10.57,17.42
	c-3.91,4.46-9.71,7.37-14.91,10.57c-5.55,3.42-11.69,5.65-17.97,7.39c-2.73,0.76-5.52,1.31-8.19,2.22
	c-9.95,3.4-18.57,7.5-20.34,20.05c-1.28,9.06-5,17.79-8.57,26.53c17.37-3.79,34.13-8.14,50.93-12.32
	c17.06-4.24,31.15-14.45,46.51-22.33c-0.42,3.48-2.82,5-5.11,6.22c-7.9,4.23-13.48,10.47-17.9,18.2
	c-5.07,8.86-11.81,16.51-19.15,23.61c-0.84,0.81-1.69,1.63-2.61,2.33c-1.05,0.81-2.33,1.82-3.5,0.45c-1.3-1.52,0.25-2.39,1.22-3.19
	c8.95-7.43,15.7-16.73,22.34-26.13c0.44-0.63,1.21-1.17,0.69-2.37c-5.36,1.74-9.99,3.83-13.31,9.22
	c-5.75,9.34-12.05,18.41-19.93,26.2c-0.95,0.93-1.91,1.86-2.95,2.69c-0.99,0.78-2.11,2.25-3.41,1c-1.55-1.49-0.04-2.82,0.98-3.79
	c8.02-7.65,14.23-16.73,20.58-25.71c0.65-0.93,1.28-1.88,2.23-3.28c-4.6,0.22-7.38,1.68-9.51,5.53
	c-4.92,8.89-10.47,17.43-17.61,24.78c-2.06,2.12-4.19,4.18-7.61,4.65c7.06-10.5,15.32-20.08,21.98-31.28
	c-3.97-0.31-6.51,0.78-8.31,4.47c-3.96,8.11-8.97,15.59-15.01,22.33c-1.33,1.48-2.79,2.87-4.35,4.1c-1.21,0.95-2.82,2.87-4.21,1.16
	c-1.32-1.63,0.78-3.01,1.92-4.03c7.8-7.01,12.81-16.07,19.08-25.1c-5.29,0.64-9.07,1.33-11.27,6.72
	c-3.77,9.27-9.65,17.46-15.64,25.49c-0.79,1.06-1.69,2.08-2.67,2.97c-0.94,0.86-2.13,2.25-3.39,1.18c-1.39-1.18,0.02-2.45,0.79-3.42
	c7.04-8.89,12.31-19.04,19.64-27.72c0.31-0.36,0.46-0.85,0.94-1.75c-4.5,0.32-7.46,1.58-9.47,5.8
	c-5.1,10.73-11.74,20.52-19.65,29.41c-1.38,1.55-2.69,4.48-5.45,1.47c-0.39-0.43-0.92-0.4-1.18,0.12
	c-2.24,4.47-9.08,5.35-9.05,11.62c0,0.79-0.45,1.59-0.77,2.36c-1.09,2.6-4.11,3.18-5.87,3.13c-1.8-0.06-0.92-3.01-0.69-4.79
	c0.85-6.65,2.52-13.07,5.27-19.19c0.64-1.43,0.87-3.25,3.28-4.05c-1.38,5.58-2.68,10.83-3.98,16.08
	c5.21-10.06,10.75-19.85,17.19-30.39c-4.07,0.88-6.59,2.61-8.81,4.6c-7.57,6.78-13.59,14.84-14.78,25.07
	c-0.6,5.17-2.23,10.27-1.86,15.57c0.16,2.27-1.18,4.1-2.07,6.06c-5.74,12.57-11.46,25.14-17.16,37.73c-0.4,0.87-0.54,1.85-1.04,3.65
	c5.38-2.52,9.77-4.43,12.29-9.82c5.29-11.32,9.1-23.2,13.88-34.71c1.11-2.67,2.45-4.43,5.11-5.61c7.29-3.24,14.37-7.03,22.47-8.03
	c0.48-0.06,1.23-0.12,1.39-0.43c3.6-6.82,11-6.11,16.8-8.05c23.83-7.96,43.96-21.15,60.37-40.19c3.57-4.14,5.97-9.72,12.09-11.25
	c0.58-0.15,1.01-1.28,1.33-2.03c3.01-6.98,7.69-13.29,8.44-21.19c0.14-1.5,0.96-2.99,2.89-2.77c1.64,0.19,1.97,1.62,2.15,2.97
	c0.42,3.08-0.33,6.03-1.55,8.76c-9.62,21.56-18.35,43.63-35.46,60.9c-6.14,6.19-11.68,11.51-21.68,12.16
	c-13.68,0.89-27.19,4.57-40.75,7.14c-8.31,1.58-16.78,2.61-24.57,6.3c-2.73,1.3-4.09,3.09-4.79,6.23
	c-2.03,9.18-6.63,17.38-10.71,25.76c-0.84,1.72-2.32,3.23-2.15,5.75c23.53-5.69,47.58-8.36,70.57-15.83
	c5.4-1.75,10.7-3.73,15.21-7.34c1.39-1.11,2.91-1.75,4.6-0.74c1.79,1.08,2.3,2.87,2.02,4.77c-0.25,1.63-0.63,3.32-1.36,4.78
	c-12.35,24.64-27.7,47.13-49.27,64.6c-13.26,10.75-29.53,15.07-46.1,17.84c-12.95,2.17-25.95,4.05-38.95,5.88
	c-4.44,0.62-5.19,4.62-8.89,8.1c8.23-1.41,15.06-1.87,21.92-2.02c9.48-0.2,18.53,1.19,27.25,4.97c3.65,1.58,7.47,2.85,11.12,4.39
	c7.21,3.04,11.19,9.18,14.95,16.01c6.14,11.16,3.51,21.92-0.74,32.06c-4.21,10.05-3.5,19.83-2.29,29.88
	c1.61,13.36,3.1,26.75,6.13,39.92c1.69,7.35,3.76,9,11.11,7.3c9.44-2.19,17.97-0.63,27.1,3.1c8.27,3.37,11.09,10.01,15.79,16.05
	c5.75,7.4,5.38,15.63,5.17,23.69c-0.16,6.16-2.68,12.26-4.2,18.38c-0.76,3.08-1.63,6.11-1.43,9.34c0.05,0.81,0.14,1.98-0.33,2.42
	c-7.42,7.02-3.18,16.18-4.05,24.24c-0.91,8.45,0.53,17.16,0.96,26.24c3.18-2.02,5.6-5.57,9.69-4.32c3.5,1.07,6.73,2.82,9.83,4.83
	c9.08,5.87,18.22,11.66,28.09,16.16c6.14,2.8,10.23,6.43,11.48,14.12c2.44,15.05,3.83,30.35,9.22,44.89
	c2.49,6.7,4.35,13.61,7.81,19.93C861.61,781.58,863.18,783.84,860.45,785.31z M748.94,256.43c-4.22,8.21-9.17,16-13.55,24.25
	c7.86-7.78,13.25-17.36,20.16-27.38C752.37,254.3,749.99,254.38,748.94,256.43z M737.99,261.11c-1.96,6.32-5.38,12-7.07,18.48
	c4.67-7.15,9.33-14.3,14.72-22.56C741.92,258.44,738.77,258.59,737.99,261.11z M812.81,173.16c-15.72,6.32-31.88,11.69-44.47,23.62
	C785.43,193.1,802.33,189.07,812.81,173.16z M829.37,135.52c-12.31,4.12-24.49,7.87-36.44,14.48c1.33,0,1.86,0.14,2.26-0.02
	c10.14-4.11,20.34-8.05,31.08-10.35C828.24,139.21,829.45,138.15,829.37,135.52z M774.08,160.22c3.66-3.19,8.19-4.77,12.5-6.76
	c0.87-0.41,2.21-0.6,2.13-1.72c-0.35-4.97-0.42-4.96,3.96-7.03c10.9-5.15,22.38-8.6,34.06-11.29c4.7-1.08,7.09-3.47,7.78-8.51
	c-1.4,0.55-2.46,0.91-3.48,1.36c-10.04,4.44-20.09,8.87-30.12,13.35c-1.28,0.56-2.72,1.3-3.58-0.09c-1.04-1.69,0.36-2.78,1.76-3.48
	c2.23-1.12,4.48-2.2,6.79-3.13c9.11-3.64,18.55-6.47,27.41-10.75c1.47-0.71,3.24-1.11,3.86-2.92c1.66-4.82,3.79-9.49,4.7-15.37
	c-7.63,5.1-14.7,9.77-22.41,13.3c-1.26,0.58-2.94,2.03-3.85,0.01s1.33-2.26,2.56-2.83c8.05-3.7,15.52-8.36,22.79-13.39
	c1.52-1.05,3.51-1.94,2.29-4.87c-18.85,10.09-38.15,18.78-55.72,30.64c-1.44,0.97-3.35,1.63-3.47,3.9
	c-0.32,6.17-3.28,11.88-3.16,18.14c0.03,1.41,0.07,3.43-1.97,3.42c-2.39-0.01-2.02-2.17-2.12-3.77c-0.3-4.84,1.44-9.34,2.05-14.05
	C773.79,142.33,774.29,151.34,774.08,160.22z M772.92,68.66c-4.57,12.1-9.27,23.53-12.52,35.5c1.21-1.63,2.14-3.37,2.92-5.17
	c3.24-7.43,6.09-15.06,9.81-22.24C774.63,73.85,774.83,71.84,772.92,68.66z M769.87,59.03c-3.33,12.82-9.36,23.59-11.57,35.65
	c4.58-9.94,7.68-20.48,12.94-30.1C772.18,62.86,771.21,61.43,769.87,59.03z M749.92,93.9c1.18-13.24-10.12-21.8-11.85-33.95
	C732.86,74.7,744.05,83.31,749.92,93.9z M735.6,78.04c1.34,10.49,7.65,17.83,15.2,25.64c0.17-3.12,1.32-5.34-1.43-6.56
	c-2.6-1.15-4.13-3.33-5.55-5.56C740.99,87.11,738.34,82.55,735.6,78.04z M739.89,102.97c4.06,2.2,7.56,5.26,11.81,7.2
	c-4.79-6.08-10.42-11.4-14.26-18.34C737.63,95.79,736.47,101.12,739.89,102.97z M754.33,129.43c0.29-4.52,0.49-7.61,0.69-10.69
	c0.9,2.75,0.23,6.27,1.68,8.12c3.18,4.07,2.09,8.11,1.66,12.32c-0.35,3.44-0.74,6.89-1.15,10.73c2.62-1.39,2.4-3.3,2.75-5.08
	c0.99-5.04,0.62-10.57,3.49-14.97c5.1-7.82,7.35-16.68,10.15-25.33c1.41-4.36,2.74-8.89,2.07-14.63
	c-4.2,11.27-8.05,21.67-11.96,32.05c-0.49,1.31-0.59,3.28-2.58,3.2c-1.91-0.08-2.89-1.49-3.03-3.36
	c-0.45-6.22-4.58-11.95-2.42-18.52c0.19-0.58,0.22-1.61-0.13-1.91c-3.81-3.32-1.66-7.09-0.68-10.57
	c3.17-11.25,7.91-21.91,12.78-32.5c1.35-2.93,1.31-5.19-1.18-7.9c-3.36,10.44-6.53,20.41-9.79,30.34c-0.34,1.06-0.16,3.11-2.27,2.41
	c-1.39-0.46-1.2-1.82-0.9-3c0.33-1.28,0.61-2.59,1.06-3.84c3.29-9.08,6.6-18.15,9.94-27.21c0.8-2.19,2.09-4.36-0.53-6.57
	c-0.82,2.19-1.62,4.19-2.32,6.23c-2.16,6.29-4.29,12.6-6.41,18.91c-0.42,1.24-0.55,2.98-2.37,2.52c-1.82-0.45-1-2.18-0.94-3.39
	c0.04-0.8,0.43-1.59,0.67-2.39c2.41-8.16,5.31-16.12,9.23-23.7c0.83-1.61,2.03-3.5,1.81-5.09c-1.22-8.94-2.53-17.85-1.54-27.03
	c-6.77,10.33-12.61,20.93-18.56,31.48c-7.95,14.11-0.15,25.24,4.89,37.04c0.47-0.02,0.93-0.05,1.4-0.07V68.4
	c1.8,12.75,1.02,25.6,2.88,38.31c0.34,2.35,0.96,5.51-1,7.11c-2.5,2.05-4.01-1.98-7.41-2.34
	C747.73,117.39,749.78,123.3,754.33,129.43z M714.49,206.55c2.22,0.34,4.4,0.98,6.59,1.49c0.16-0.22,0.31-0.43,0.46-0.64
	c-2.09-1.21-4.17-2.46-6.29-3.61c-0.72-0.4-1.8-1.42-2.2,0.26C712.79,205.13,712.78,206.28,714.49,206.55z M726.04,215.96
	c-3.63-2.69-7.54-4.87-11.79-6.83c-0.68,2.71,0.6,6.51,1.78,5.91C719.9,213.08,722.74,216.34,726.04,215.96z M731.75,228.91
	c1.01-0.52,1.33-1.51,1.11-2.18c-1.67-5.02,0.31-9.76,0.87-14.62c0.41-3.5,0.12-7.38-2.31-9.89c-1.79-1.86-2.81-3.9-4.14-5.94
	c-4.82-7.4-8.84-15.47-16.93-21.43c1.57,5.11,1.03,10.02,3.97,13.83c2.66,3.45,7.39,5.29,8.77,10.48c-4.5-0.3-6.25-3.96-9.36-5.49
	c-1.64,3.68-0.73,5.85,2.85,7.07c1.71,0.58,3.17,1.87,4.87,2.49c5.41,1.96,4.46,7.45,6.38,11.32c0.39,0.78-0.71,1.22-1.53,1.47
	c-0.49,1.45,0.93,1.88,1.56,2.69c2,2.6,1.51,4.06-2.42,4.2C728.08,224.89,729.07,227.79,731.75,228.91z M724.57,261.87
	c5.94-4.08,10.96-6.54,13.07-12.52c4.65-13.16,10.05-26.08,13.56-39.62c1.26-4.84,3.64-8.04,8.41-9.53c1.05-0.33,2.84-1.1,2.82-1.61
	c-0.33-8.21,6.88-10.08,11.72-13.35c10.99-7.42,23.6-11.66,36.18-15.41c5.99-1.79,8.84-5.23,10.46-10.59
	c0.65-2.15,1.2-4.34,2.04-7.43c-17.57,7.22-34.57,13.43-50.32,22.54c-2.18,1.26-5.18,4.95-7.12,2.07c-1.62-2.4,2.4-4.7,4.64-6.15
	c15.38-9.98,32.18-16.78,50.06-20.51c4.78-1,5.48-3.36,6.47-7.46c-16.14,6.32-31.51,12.68-46.58,19.75c-2.58,1.21-5,2.5-5.97-1.57
	c-3.44,1.84-3.99-0.35-3.85-3.02c0.24-4.6,0.69-9.19,1.11-14.45c-3.33,2.76-4.9,5.41-4.46,9.36c0.41,3.63,0.19,7.32,0.16,10.99
	c-0.02,1.62,0.17,3.84-1.99,3.96c-2.43,0.13-1.99-2.21-2.04-3.76c-0.1-2.79-0.03-5.6-0.03-8.55c-2.63,0.89-2.02,2.65-1.97,4.29
	c0.12,4.17,0.14,8.33,0.17,12.5c0,0.97,0.08,2.14-1.25,2.34c-1.16,0.18-1.99-0.61-2.21-1.61c-0.47-2.17-0.71-4.38-1.05-6.58
	c-6.63,15.52-7.6,32.53-13.7,48.18C736.88,229.57,732.72,245.71,724.57,261.87z M699.19,316.94c1.32-3.62,2.01-7.14,3.77-9.99
	c3.07-4.97,2.84-9.95,0.53-14.68c-4.53-9.3-11.19-17.21-18.01-26.02c-1.55,7.23-0.48,12.4,5.63,15.72c1.57,0.85,3.18,2.11,3.78,4.63
	c-4.38-0.99-6.16-4.62-9.53-5.48c-1.97,5.52,2.72,6.1,5.55,7.92c2.58,1.65,5.78,2.69,6.02,7.42c-3.83-2.42-6.75-4.29-9.72-6.09
	c-0.85-0.51-2.02-1.89-2.67,0.13c-0.38,1.19-0.97,2.73,0.65,3.53c1.18,0.59,2.52,0.84,3.77,1.28c2.34,0.82,4.88,1.27,6.68,3.18
	c1.38,1.47,2.01,3.19,0.47,4.88s-2.58,0.1-3.74-0.78c-2.1-1.59-4.59-2.17-7.14-2.99c-0.6,3.97,1.5,5.11,4.35,5.92
	c2.19,0.62,5.93,1.9,5.04,3.88C692.08,315.09,697.24,314.59,699.19,316.94z M744.28,391.73c-12.06,1.67-23.71,3.28-35.36,4.89
	c-0.05,0.21-0.09,0.43-0.14,0.64c9.79-0.44,19.58-0.77,29.36-1.4C740.5,395.71,743.4,395.46,744.28,391.73z M663.16,407.97
	c0.29,3.5,2.71,5.47,6.41,3.48c1.98-1.07,4.12-1.75,6.19-1.67c7.2,0.28,14.28-0.7,21.38-1.49c10.38-1.16,20.5-3.46,30.17-7.6
	c-16.75,2.64-33.87,2.08-50.43,6.14c-4.19,1.03-10.44-1.66-10.78-5.24c-0.51-5.39-1.17-11.25,2.38-15.88
	c5.77-7.51,11.77-14.96,20.56-19.31c7.87-3.89,15.43-8.23,24.18-10.38c5.15-1.26,4.43,1.01,3.59,3.6
	c-1.33,4.09-3.17,8.04-5.06,11.92c-1.29,2.64-2.2,5.75-5.17,7.13c-7.04,3.26-12.72,8.49-18.89,13c-3.88,2.84-7.57,5.96-12.19,9.62
	c9.82-1.77,18.47-3.43,27.34-3.46c-2-0.27-3.99-0.22-5.97-0.28c-1.91-0.07-4.54,0.56-4.83-2.19c-0.33-3.17,2.45-2.89,4.57-3.13
	c16.21-1.82,32.47-3.13,48.77-3.87c3.41-0.16,5.54-1.61,7.43-5.14c-8.76,1.19-16.92,2.29-25.08,3.43
	c-5.77,0.8-11.51,1.76-17.28,2.47c-2.05,0.26-4.9,0.8-5.37-2.07c-0.46-2.78,2.41-2.64,4.23-3.09c1.44-0.36,2.95-0.46,4.43-0.67
	c12.88-1.81,25.88-2.02,38.81-3.14c3.75-0.33,6.71-1.51,8.18-5.56c-1.82-0.43-3.37,0.02-4.98,0.26
	c-11.35,1.67-22.71,3.36-34.22,3.56c-2.02,0.04-5.06,0.74-5.27-2.2c-0.22-2.99,2.83-2.68,4.88-2.86
	c12.76-1.14,25.51-2.42,38.29-3.23c5.5-0.35,8.66-3.01,11.06-8.29c-5.55,1.41-10.51,2.64-15.46,3.95
	c-6.13,1.62-12.36,2.66-18.65,3.33c-2.03,0.21-4.34-0.05-4.34-2.83c0-2.4,2.12-2.01,3.75-2.15c12.64-1.07,24.96-3.82,37.21-6.99
	c1.27-0.32,2.64-0.6,3.1-2.76c-4.66,1.15-9.08,2.29-13.52,3.31c-4.85,1.11-9.69,2.37-14.7,2.63c-1.37,0.07-2.78-0.18-3.02-1.9
	c-0.22-1.59,0.79-2.54,2.17-2.91c1.92-0.52,3.9-0.85,5.86-1.22c9.17-1.73,18.17-4.19,27.42-5.63c-4.68-0.09-9.27,0.41-13.86,0.74
	c-1.54,0.12-3.97,0.81-4.15-1.42c-0.21-2.63,2.46-2.1,4.14-2.31c2.31-0.29,4.65-0.35,6.97-0.58c7.42-0.74,14.46-2.05,15.7-11.86
	c-3.26,1.12-6.18,2.3-9.19,3.13c-16.14,4.44-32.15,9.02-48.91,11.37c-20.14,2.82-38.3,11.87-54.67,24.05
	c-3.55,2.64-8.13,4.7-9.73,9.09C663.45,389.55,662.38,398.7,663.16,407.97z M603.97,781.4c-0.1,2.07,0.83,3.89,1.71,5.68
	c2.94,6,6.85,11.4,10.47,16.99c5.95,9.2,14.68,12.95,25.16,13.62c-6.48-16.79-19.88-27.65-32.89-38.78
	C605.8,776.67,604.13,778.26,603.97,781.4z M607.51,798.44c-1.33-3.06-2.37-5.09-3.11-7.21c-1.7-4.88-5.02-9.79-0.16-14.77
	c0.57-0.58,0.38-1.26-0.11-1.75c-3.04-3.05-6.12-6.07-9.75-9.66C593.6,777.1,599.38,791.86,607.51,798.44z M579.76,747.97
	c1.25,12.98,4.77,24.97,12.63,35.35c-1.01-6.83-2.75-13.42-0.86-20.24c0.11-0.42-0.02-1.08-0.3-1.4
	C587.28,757.25,583.47,752.69,579.76,747.97z M583.4,776.48c-0.6-1.68-1.2-3.35-1.8-5.03c-2.36-6.59-5.05-13.43-3.71-20.33
	c1.8-9.25-4.9-13.73-8.92-21.14C567.02,743.83,574.53,768.25,583.4,776.48z M548.49,721.35c2.09,11.7,11.91,18.31,17.92,27.56
	c0.29-6.55-0.01-12.81,0.7-19.07c0.12-1.06-0.23-2.42-0.86-3.26c-4.67-6.24-9.44-12.4-14.23-18.55c-0.58-0.74-1.25-1.81-2.39-1.44
	c-1.29,0.42-1.45,1.74-1.49,2.87C547.98,713.42,547.78,717.37,548.49,721.35z M612.3,349.8c-0.67,2.74-0.06,4.67,0.26,6.62
	c1.74,10.69,4.87,21.07,7.16,31.64c2.77,12.77,7.17,24.23,20.39,29.76c0.15,0.06,0.26,0.22,0.36,0.35c1.07,1.39,2.45,1.34,3.41,0.19
	c1.65-1.97,4.82-2.64,5.08-5.74c0.06-0.8-0.63-1.73-1.61-1.3c-5.25,2.28-3.45-2.1-3.26-3.82c0.75-6.77,1.51-13.59,3.07-20.2
	c0.99-4.21-0.39-6.56-3.6-8.54c0,0,0-0.01,0-0.01c0,0,0,0,0,0c-0.41-2.23-1.96-3.53-4.37-5.25c-0.19,8.47-0.38,16.26-2.1,24.97
	c-1.65-2.9-0.96-4.82-0.77-6.68c0.56-5.47,1.11-10.93,1.76-16.38c0.39-3.24-0.74-5.39-4.07-6.55c-0.88,4.64-0.12,9.28-2.46,14.13
	C636.87,364.69,625.03,357.3,612.3,349.8z M634.99,422.7c-5.39-3.46-10.69-7.02-14.38-12.66c-1.37,9.93-4.46,19.04-6.18,28.6
	c9.08-1.02,15.54-5.69,20.86-12.39C636.48,424.75,636.72,423.8,634.99,422.7z M247.87,333.25c-0.61,18.06,2.15,36.02,4.47,54.04
	c2.37,18.4,5.42,36.52,13.8,53.39c2.72,5.5,5.6,10.25,11.55,12.79c3.54,1.51,5.99,4.7,8.46,7.65c6.73,8.04,11.16,17.32,14.69,27.09
	c1.35,3.73,2.71,7.66,5.81,10.22c23.4,19.33,44.04,41.66,67.03,61.45c4.01,3.45,6.73,4.07,11.2,1.83
	c13.69-6.86,27.73-13.06,41.29-20.16c20.76-10.87,42.53-19.78,62-33.19c28.18-19.4,57.94-36.08,89.54-49.35
	c2.93-1.23,5.65-2.65,7.49-5.53c5.92-9.29,11.66-18.69,15.93-28.85c5.41-12.87,8.96-26.6,8.38-40.33
	c-0.49-11.52-2.15-23.11-2.71-34.74c-0.38-7.89-0.76-8,6.82-4.53c2.49,1.14,3.41,1.04,3.9-1.82c3.72-21.83,8.11-43.56,11.18-65.47
	c3.55-25.39,6.63-50.87,11.12-76.1c5.57-31.36,9.72-62.87,12.79-94.54c0.4-4.03-0.56-4.58-4.16-2.88
	c-7.66,3.61-15.09,7.68-23.26,10.26c-20.15,6.37-40.77,7.47-61.73,7.12c-17.36-0.29-32.92-5.85-46.56-15.63
	c-9.91-7.1-18.91-15.79-26.82-25.29c-6.4-7.68-12.35-15.73-17.2-24.52c-0.54-0.97-0.7-2.52-2.08-2.56
	c-1.47-0.04-1.48,1.57-1.95,2.54c-2.04,4.25-4.44,8.37-7.99,11.4c-12.67,10.82-25.49,21.66-40.4,29.2
	c-18.68,9.44-38.86,13.52-59.79,14.17c-21.23,0.66-40.89-3.74-58.84-15.69c-7.31-4.87-13.32-10.94-19.36-17.07
	c-2.33-2.37-3.49-2.1-4.29,0.9c-1.03,3.86-2.28,7.7-2.86,11.63c-4.14,28-10.9,55.54-14.39,83.67c-1.33,10.73-3.21,21.41-4,32.22
	c-1.53,20.94-3.05,41.87-4.59,62.81C250.77,290.6,246.82,311.65,247.87,333.25z M284.2,536.59c1.45,1,3.19,1.15,4.55-0.32
	c1.45-1.56,0.62-3.04-0.36-4.5c-5.37-7.94-12.68-13.07-22.03-15.2c-3.24-0.74-6.52-1.36-9.8-1.85c-7.02-1.05-14.4-4.31-20.18,3.08
	c-0.32,0.42-1.21,0.47-1.86,0.56c-13.18,1.75-26.13,4.93-39.43,6.05c-9.87,0.83-19.65,2.77-30.46,1.2c2.96,4.29,6.2,4.87,9.83,4.36
	c5.93-0.82,11.86-1.66,17.64-3.35c1.3-0.38,3.35-1.56,3.88,0.35c0.52,1.85-1.79,2.02-3.13,2.33c-5.72,1.32-11.46,2.51-17.78,3.88
	c2.51,1.93,4.34,3.13,7.24,2.36c7.23-1.93,14.53-3.63,21.85-5.18c2.05-0.43,5.47-2.81,6.05-0.26c0.61,2.69-3.56,2.67-5.77,3.17
	c-6.9,1.57-13.88,2.79-21.63,4.3c3.35,2.8,5.9,3.76,9.62,2.5c11.37-3.85,22.65-7.82,33.21-13.65c1.56-0.86,4.01-2.87,5.13-0.43
	c1.13,2.47-2.1,2.88-3.7,3.71c-6.49,3.38-12.95,6.87-19.97,9.1c-4.45,1.41-8.96,2.64-13.8,4.05c9.07,6.11,17.32,8.22,26.91,1.46
	c8.83-6.23,19.39-9.76,28.09-16.46c-8.57,11.45-22.09,16.03-33.45,23.93c1.93,1.1,2.95-0.06,4.04-0.69
	c10.8-6.28,21.58-12.59,32.36-18.88c1.89-1.1,3.72-2.58,6.52-1.42c-2.62,3.95-6.6,5.86-10.46,9.75c8.02-2.86,12.7-9.86,20.88-9.21
	c-10.85,8.78-22.59,16.25-35.21,24.59c3.99,0.62,6.17,0.08,8.68-1.97c9.55-7.81,19.89-14.54,30.84-20.25
	c1.37-0.72,3.45-2.74,4.7-0.26c0.95,1.9-1.41,2.68-2.7,3.56c-6.03,4.1-12.11,8.14-18.18,12.2c8.31-1.81,15.73-5.39,22.89-9.55
	c0.55-0.32,1.41-0.87,1.38-1.26C280.33,534.7,281.71,534.89,284.2,536.59z M236.25,547.83c-4.47,1.83-8.73,4.01-12.3,7.39
	C228.84,554.11,232.2,550.38,236.25,547.83z M196.21,514.48c-4.81,1.7-9.15,3.24-13.49,4.78
	C187.89,519.95,193.44,521.66,196.21,514.48z M219.67,392.69c2.57-7.08,8.78-12.73,3.89-21.06c-6.14,8.73-11.4,17.34-13.4,27.55
	c-0.36,1.8-0.63,3.55,0.51,5.29c2.28,3.48,4.4,7.07,6.62,10.59c0.82,1.31,2.38,3,3.51,1.7c3.83-4.42,7.46-9.09,9.39-14.75
	c0.07-0.22-0.53-0.66-0.88-1.08c-2.62,2.84-4.22,6.16-6.08,9.3c-0.58,0.97-1.06,2.47-2.46,1.98c-1.73-0.61-1.12-2.3-0.67-3.41
	c1.71-4.24,4.63-7.68,7.86-10.84c1.16-1.13,2.29-2.07,0.12-3.73c-2.65,3.71-5.24,7.36-7.84,11c-0.73,1.02-1.39,2.71-2.98,1.48
	c-1.14-0.9-0.31-2.17,0.41-3.1c2.85-3.69,5.68-7.41,8.65-11c1.91-2.31,2.36-4.57,0.57-7.45
	C224.21,387.24,223.4,390.86,219.67,392.69z M223.77,427.57c3.16-6.1,9.33-11.12,6.82-19.24
	C228.42,414.78,221.71,419.6,223.77,427.57z M215.48,447.61c-0.84-1.35-2.13-3.07-4.02-2.06c-1.78,0.94-0.63,2.66-0.2,4.01
	c4.35,13.75,11.63,26.14,18.5,38.68c2.11,3.84,6.06,6.74,7.39,11.1c0.91,2.97,2.66,4.34,5.38,5.24c5.71,1.89,11.3,4.14,15.99,8.02
	c2.35,1.95,4.47,1.48,7.23-0.12c-4.89-5.9-11.41-8.49-17.72-11.41c-1.6-0.74-3.33-0.97-4.38-2.93
	c-6.6-12.31-14.68-23.79-20.19-36.74C221.4,456.54,218.27,452.13,215.48,447.61z M268.31,496.64c6.1,2.66,10.4,7.65,16.01,11.02
	c-2.24-4.48-5.55-8.12-9.11-11.49c-2.07-1.96-3.98-6.48-6.39-5.17c-3.02,1.64-1.93,6.35-1.49,9.68c0.48,3.58,1.43,8.41,5.08,9.01
	c3.97,0.65,6.28,3.2,9.41,4.73c1.61,0.79,2.99,2.13,5.77,2.06C280.64,509.6,272.63,504.86,268.31,496.64z M267.14,473.13
	c-0.93-1.74-3.33-1.59-4.92-1c-4.3,1.6-8.57,3.38-12.65,5.47c-6.61,3.38-6.44,3.43-1.92,9.51c0.82,1.11,1.39,2.55,2.36,3.65
	c0.76,0.86,1.52,1.95,2.89,1.32c4.98-2.3,11.39-3.04,11.67-10.63c-2.84-0.64-5.08,2.17-8.05,1.5c2.25-3,6.6-3.03,8.37-6.58
	C265.46,475.23,268.06,474.81,267.14,473.13z M240.49,477.92c0.55,1.52,1.63,1.2,2.84,0.66c3.6-1.62,7.24-3.13,12.01-5.18
	c-5.46-0.06-9.31,1.35-13.17,2.66C241.32,476.34,239.96,476.46,240.49,477.92z M252.16,466.98c0.82-0.22,1.72-0.61,1.62-1.57
	c-0.16-1.44-1.45-0.98-2.42-1.13c-4.96,0.73-9.52,2.66-13.81,5.27c-0.67,0.41-1.56,0.91-1,1.91c0.64,1.14,1.64,0.88,2.59,0.4
	C243.31,469.76,247.65,468.15,252.16,466.98z M266.51,450.51c-0.41-2.04-1.39-4.59-5.1-4.46c-9.48,3.21-20.57,1.98-30.25,7.13
	c-1.86,0.99-2.37,1.68-1.67,3.74c2.01,5.93,3.64,6.76,9.64,2.71c7.34-4.95,15.55-6.3,23.96-7.39
	C264.35,452.08,267.08,453.38,266.51,450.51z M231.31,507.79c-8.54,1.72-16.76,4.38-24.45,8.41c0.12,0.39,0.24,0.78,0.36,1.17
	c8.37-2.25,16.73-4.51,25.09-6.78c0.81-0.22,1.73-0.66,1.47-1.64C233.48,507.8,232.25,507.62,231.31,507.79z M296.85,526
	c2.72,0.87,3.36-0.27,3.37-2.95c0.01-5.01-1.25-9.85-1.5-14.79c-0.84-16.52-6.67-31.08-16.87-43.98c-1.03-1.3-2.17-2.52-3.37-3.67
	c-1.03-1-2.56-1.13-2.37,0.61c0.54,4.97-1.93,10.39,3.15,14.75c3.24,2.77,6.37,6.22,6.47,11.22c-3.17-4.02-6.32-8.05-9.5-12.06
	c-0.47-0.6-0.94-1.68-1.83-1.18c-0.86,0.48-1.37,1.65-0.89,2.61c0.51,1.01,1.41,1.83,2.14,2.73c3.88,4.8,7.89,9.51,10.12,15.36
	c0.49,1.28,1.26,3.25-0.54,3.86c-1.54,0.53-1.9-1.47-2.45-2.6c-2.77-5.64-6.26-10.73-10.71-15.45c-2.51,3.73-2.43,6.19,1,8.87
	c5.38,4.22,9.83,9.45,13.95,14.92c0.9,1.19,2.57,2.75,1.9,3.85c-2,3.29,0.59,4.61,2.11,6.47c1.7,2.09,2.19,5.21,1.45,6.97
	c-0.89,2.11-3.82,0.31-5.87-0.04c-0.24-0.04-0.53,0.18-1.02,0.37C289.05,524.38,293.1,524.8,296.85,526z M292.56,533.1
	c0.83,0.55,1.72,1.01,2.64,1.39c14.3,5.84,28.01,13.04,42.69,18c6.94,2.35,13.91,4.1,21.98,4.67c-3.58-4.8-8.51-6.96-12.87-8.8
	c-12.37-5.22-25.16-9.49-37.88-13.83c-5-1.7-9.88-3.99-15.24-4.55c-0.97-0.1-2.12-0.41-2.61,0.75
	C290.77,531.9,291.74,532.57,292.56,533.1z M301.87,588.21c6.68,0.48,11.68-2.05,16.74-4.39
	C313.24,584.85,306.74,581.96,301.87,588.21z M340.38,576.65c-21.25-2.15-26.13-1.72-29.22,2.9
	C320.73,577.89,330.28,581.35,340.38,576.65z M347.72,574.39c6.89-1.4,13.55-4.12,19.84-7.97c-11.11-2.03-21.55-10.28-34.49-2.44
	c6.31,0.37,11.45,0.62,16.58,1c1.43,0.11,2.68,0.88,2.27,2.59c-0.35,1.46-1.56,1.24-2.82,1.15c-6.96-0.48-13.93-0.8-20.9-1.2
	c-3.25-0.18-5.95,0.75-8.52,3.85c6.88-0.38,12.99,0.09,19.12,0.63C342.13,572.29,345.4,574.88,347.72,574.39z M220.84,249.04
	c-1.49,1.66,0.27,4.29-2.09,5.18c-6.78,2.56-11.64,9.08-18.57,10.52c-10.13,2.11-11.3,8.15-10.47,16.7
	c0.61,6.31,0.12,12.73,0.12,20.11c12.81-10.06,26.55-15.77,39.67-22.58c1.44-0.74,2.71-2.25,4.52-1.08c1.86,1.21,1.58,3.06,1.3,4.94
	c-1.24,8.22-3.54,16.13-5.95,24.09c-3.51,11.61-7.76,22.71-15.02,32.52c-2.08,2.81-3.83,5.89-6.67,8.04
	c-1.44,1.1-3.29,2.72-4.89,1.37c-1.75-1.47,0.98-2.69,1.17-4.19c0.03-0.23-0.25-0.51-0.35-0.7c-3.66,0.48-4.68,2.53-3.69,5.94
	c0.5,1.75,0.7,3.58,1.1,5.37c2.02,9.12,4.05,18.23,6.32,28.41c4.39-6.98,8.14-12.89,13.42-17.54c4.67-4.11,6.87-3.39,8.81,2.43
	c3.72,11.14,4.22,23.2,9.74,33.84c0.71,1.37,0.59,3.25,0.61,4.9c0.06,5.71-2.68,10.57-4.92,15.57c-3.39,7.56-6.75,15.13-10.49,23.5
	c1.91-0.15,2.63-0.03,3.18-0.28c9.16-4.17,18.78-6.69,28.72-8.01c3.38-0.45,1.91-2.39,1.32-3.93c-3.23-8.43-5.58-17.09-7.36-25.93
	c-6.06-30.12-10.26-60.38-9.15-91.27c1.02-28.18,6.08-55.96,7.43-84.09c0.31-6.37,0.9-12.72,1.36-19.05
	c-1.66-0.21-2.1,0.61-2.5,1.26C239.91,227.41,230.53,238.36,220.84,249.04z M191.69,324.49c-0.05,9.33,0.77,9.98,9.84,9.28
	c1-0.07,1.99-0.2,2.99-0.21c5.18-0.06,7.78-3.32,10.23-7.98c-6.43,0.97-12.14,1.88-17.87,2.66c-1.2,0.16-3.07,0.8-3.51-0.77
	c-0.58-2.07,1.61-2.19,2.89-2.62c5.7-1.91,11.64-2.69,17.54-3.68c3.36-0.56,3.36-0.54,4.17-4.03c-6.29,0.69-12.36,2.75-19.6,2.57
	c6.36-3.76,13.08-3.37,19.57-6.19c-5.01-0.38-9.17,1.61-14.48,0.32c6.21-4.04,13.79-1.77,18.68-6.57
	c-5.48,0.59-10.78,1.77-16.09,2.86c-1.04,0.21-2.53,0.71-2.82-0.98c-0.19-1.12,0.94-1.59,1.82-2.08c1.73-0.96,5.36-1.06,5.16-2.3
	c-0.71-4.43,2.94-3.72,4.85-5c1.1-0.74,3.42-1.38,3.36-1.83c-0.53-4.04,2.74-4.21,5-4.76c3.78-0.92,5.12-3.13,4.86-7.47
	c-11.53,5.56-22.41,11.19-32.47,18.35c-4.16,2.95-6.78,6-4.88,11.53C191.88,318.36,191.72,321.46,191.69,324.49z M193.97,250.57
	c-1.85,1.99-2.94,4.34-3.9,8.02c7.36-3.98,16.1-1.37,21.38-9.09c-5.41,0.75-10.15,1.39-14.88,2.08
	C195.43,251.74,194.34,251.97,193.97,250.57z M212.99,245.28c2.47-0.44,4.65-1.03,5.92-4.56c-7.98,2.29-15.22,4.37-22.47,6.46
	c-1.57,0.45-2.36,1.5-2.39,3.09C200.07,247.51,206.55,246.44,212.99,245.28z M196.65,245.51c8.25-4.91,17.93-5.87,26.41-9.85
	c-0.14-0.38-0.27-0.76-0.41-1.14c-7.37,2.18-14.74,4.37-22.11,6.55c7.54-7.65,18.29-8.86,27.43-13.21c-0.22-0.5-0.45-0.99-0.67-1.48
	c-7.38,2.57-14.76,5.15-22.14,7.72c7.41-6.74,17.18-9.09,25.53-14.03c-4.08-0.39-7.3,2.3-12.07,2.06c3.5-5.24,9.16-6.1,12.89-9.69
	c-3.69,0.9-7.44,1.63-11.08,2.73c-3.81,1.16-7.57,2.54-11.27,4.04C201.67,222.26,196.14,233.82,196.65,245.51z M219.02,107.5
	c-1.21,2.63-2.43,5.25-3.59,7.89c-0.18,0.42-0.22,1.34-0.09,1.39c6.01,2.27,1.93,6.2,1.05,8.95c-1.82,5.69-5.28,10.98-2.12,18.11
	C219.45,131.96,220.63,120.04,219.02,107.5z M180.14,150.2c3.82,8.85,10.88,15.53,15.14,24.03c0.61,1.21,1.81,1.39,2.58-0.25
	c1.3-2.78,2.69-5.53,4.06-8.34c-5.04-1.4-5.33-2.5-3.06-7.09c1.16-2.34,5.3-4.77,0.29-7.7c-1.29-0.76-0.33-2.78,0.45-4.11
	c1.51-2.59,3.01-5.19,4.54-7.76c2.85-4.78,6.15-9.34,7.39-14.92c-3.78,5.3-7.29,10.74-10.89,16.13c-0.84,1.25-1.99,2.55-3.7,1.51
	c-1.62-0.99-1.28-2.58-0.54-3.98c0.7-1.32,1.53-2.58,2.38-3.81c6.15-8.93,11.18-18.5,16.51-27.91c3.96-6.99,2.44-12.86-0.96-20.09
	c-3.1,9.65-6.29,18.22-11.45,25.87c-1.09,1.62-2.05,4.89-4.58,3.23c-2.08-1.37,0.23-3.57,1.21-5.15c5.06-8.1,8.86-16.76,11.81-25.82
	c0.52-1.58,1.25-3.16-0.3-5.79c-1.95,6.78-3.7,12.48-6.29,17.86c-0.52,1.08-1.05,2.98-2.72,2.2c-1.46-0.69-0.21-2.03,0.16-3.04
	c1.95-5.31,3.51-10.81,6.01-15.85c2.21-4.45,0.59-7.39-2.4-11.15c-1.8,6.13-2.52,11.93-5.21,17.1c0.83-5.21,2.01-10.32,3.39-15.38
	c1.66-6.07-2.22-9.74-5.68-14.75c-0.24,1.87-0.37,2.67-0.44,3.47c-1.45,16.77-3.03,33.52-10.02,49.14
	c-3.19,7.15-6.09,14.4-8.3,21.92C177.51,136.63,177.17,143.29,180.14,150.2z M152.44,156.04c4.4,2.64,8.6,5.61,12.2,7.99
	c-4.27-4.32-9.05-9.17-14.24-14.42C150.65,152.2,149.72,154.41,152.44,156.04z M152.21,177.87c8.05,3.14,15.12,7.87,22.82,14.07
	c-3.44-6.61-17.57-17.93-24.01-19.95C151.18,174.07,149.72,176.9,152.21,177.87z M152.07,185.34c0.42,5.25,2.65,8.3,8.15,10.14
	c9.74,3.27,17.65,9.89,25.15,16.82c1.43,1.32,3.82,3.39,2.57,4.93c-2.85,3.49,0.26,4.86,1.66,6.83c0.81,1.14,1.4,3.39,2.94,2.9
	c1.59-0.51,2.71-2.35,3.32-4.15c3.39-10.01,3.6-20.21,1.61-30.48c-0.75-3.85-0.68-7.91-3.26-11.35
	c-12.08-16.12-24.03-32.33-36.07-48.48c-1.7-2.28-3.63-4.38-5.51-6.63c-3.11,7.49-0.92,12.66,5.18,16.57
	c1.66,1.07,3.09,2.55,4.47,3.98c1.17,1.21,3.07,2.2,2.08,4.72c-4.94-2.78-8.37-7.33-13.06-10.59c-0.74,2.83-0.49,4.61,1.69,6.18
	c5.43,3.91,9.6,9.25,14.68,13.51c5.32,4.46,3.78,12.25,9,16.61c0.92,0.77,1.98,2.9,0.32,3.95c-1.8,1.13-2.51-0.96-3.31-2.09
	c-5.94-8.41-14.56-13.87-22.18-20.85c-1.59,8.31-1.47,8.56,5.15,12.05c8.76,4.63,16.84,10.13,22.86,18.2
	c1.09,1.46,3.01,3.18,2.39,4.74c-1.7,4.3,1.11,6.62,3.14,9.45c0.92,1.29,2.48,3.03,0.79,4.39c-2.08,1.67-3.25-0.67-4.31-1.98
	c-8.11-9.99-18.92-16.59-30.15-24.36C151.7,182.75,151.94,184.04,152.07,185.34z M189.85,237.75c0.55,1.03,0.58,2.65,2.55,2.77
	c0.83-2.54,1.65-5.04,2.73-8.34c-4.55,2.28-5.31,2.2-7.74-1.52c-3.49-5.35-7.81-9.94-12.37-14.34c-2.23-2.15-4.98-3.8-6.74-6.58
	c2.19-1.55,4.14,0.29,6.75,0c-6.55-5.78-13.55-9.77-20.84-15.23c2.09,9.36,5.88,15.24,13.88,19.68
	C177.53,219.43,184.67,227.96,189.85,237.75z M181.93,239.97c-1.41,19.31-2.41,38.63,0.52,57.94h1.4v-57.78
	C183.21,240.07,182.58,240.02,181.93,239.97z M122.32,268.31c-4.47-2.69-8.94-5.39-13.41-8.08c-0.29,0.44-0.57,0.89-0.86,1.33
	C111.29,266.54,117.38,266.39,122.32,268.31z M138.68,287.78c-8.85-2.62-16.49-4.89-24.3-7.2
	C115.85,284.65,128.08,288.4,138.68,287.78z M150.25,301.79c-8.68-0.83-17.32-1.9-26.07-2.88
	C132.44,302.66,141.34,302.3,150.25,301.79z M174.66,308.74c-0.59-1.62-1.12-2.96-1.57-4.32c-3.05-9.33-6.16-18.64-9.09-28.01
	c-1.05-3.36-0.85-3.43-4.83-5.34c3.8,9.85,7.47,19.56,8.57,29.94c-2.7-1.45-3.26-3.93-4.01-6.24c-2.67-8.23-5.27-16.48-7.85-24.74
	c-1.11-3.55-1.05-3.57-5.25-4.82c2.57,7.27,5.63,14.24,6.33,21.89c-3.22-6.95-6-14.04-8.44-21.25c-1.4-4.13-4.26-5.76-8.71-6.64
	c1.33,2.82,2.43,5.04,3.43,7.31c0.91,2.05,1.7,4.15,2.55,6.22c-6-6.11-5.09-17.59-16.93-19.02c3.82,5.78,7.93,10.84,10.29,17.09
	c-6.37-5.85-8.5-15.24-15.27-20.37c-6.68-5.06-14.87-8.11-23.02-12.37c0.88,5.3,2.68,8.43,7.09,10.36
	c4.25,1.86,8.96,3.49,12.37,8.53c-5.95-1.14-9.85-4.78-14.78-6.4c-0.18,2.99,1.2,4.42,3.48,5.6c5.91,3.07,11.73,6.32,17.05,10.37
	c0.92,0.7,2.62,1.94,2.48,2.24c-1.95,4.21,2.22,3.28,3.7,4.47c1.02,0.81,2.37,1.21,3.49,1.92c1.1,0.69,2.63,1.45,1.78,3.04
	c-0.69,1.3-2.11,0.6-3.16,0.24c-6.29-2.18-12.61-4.26-18.62-7.17c-1.65-0.8-3.14-2.42-5.15-1.95c-0.2,4.64,2.26,6.24,6.22,7.14
	c7.13,1.62,14.15,3.72,21.17,5.78c2.66,0.78,5.87,1.4,6.87,4.35c0.67,1.99,1.52,2.57,3.38,2.73c1.51,0.13,3.33,0.73,3.15,2.53
	c-0.19,1.93-2.31,1.8-3.67,1.76c-5.31-0.14-10.65-0.29-15.92-0.88c-4.18-0.47-8.29-1.59-12.43-2.42c2.23,2.36,5.2,2.01,7.68,2.98
	c9.9,3.88,22.65-2.25,30.48,8.71C163.55,303.06,168.23,307.54,174.66,308.74z M183.43,324.38c0.44,0.99,0.63,2.35,0.34,3.37
	c-1.41,5.05-0.41,10.31-0.05,15.15c1.19,16.01,3.04,32.18,14.33,45.14c0.65,0.75,1.07,1.7,1.7,2.46c0.71,0.86-0.48,3.34,1.86,2.66
	c2.09-0.6,1.24-2.35,0.68-3.74c-1.99-4.95-4.03-9.97-4.34-15.3c-0.99-17.05-9.41-32.69-8.73-50.22c0.28-7.17-2.54-14.85-6.1-21.44
	c-4.38-8.1-6.92-17.43-14.91-23.38C173.83,294.05,176.89,309.8,183.43,324.38z M134.32,388.22c2.77-0.49,5.63-0.58,8.45-0.69
	c4.59-0.18,9.23-0.84,15.03,1.3c-8.7,3.07-16.77,2.06-24.43,3.83c2.44,5.03,6,6.36,11.12,5.65c7.07-0.98,14.16-2.2,21.34-2.09
	c1.89,0.03,4.02-0.4,5.6,2.1c-8.91,2.1-17.76,2.92-26.57,4.04c-1.24,0.16-3.51-0.89-3.51,1.35c-0.01,2.39,2.11,2.63,4.08,2.39
	c4.13-0.51,8.25-1.03,12.38-1.54c8.41-1.04,16.75-3.07,25.3-2c1.51,0.19,3.88,0.39,3.67,2.55c-0.21,2.07-2.43,1.29-3.74,1.23
	c-12.53-0.6-24.61,3.4-37.61,3.19c1.55,3.51,2.83,5.1,6.88,4.19c12.34-2.77,24.85-4.74,37.57-4.48c2.11,0.04,5.16-0.03,5.2,2.6
	c0.04,2.44-2.95,1.1-4.54,1.63c-0.22,0.07-0.38,0.31-0.92,0.77c2.86,0,5.36,0.08,7.85-0.02c3.04-0.12,5.98,1.11,5.94,3.99
	c-0.05,3.56-3.61,2-5.58,1.88c-13.03-0.82-25.15,3.24-37.72,6.39c4.89,4.81,5.62,4.74,10.38,3.1c9.28-3.2,18.69-6.02,28.54-6.92
	c2.51-0.23,5.02,0.16,7.36,1.06c1.83,0.7,3.14,2.31,2.69,4.29c-0.45,1.95-2.44,1.4-3.84,1.24c-3.15-0.35-6.32-0.71-9.45-0.09
	c-7.15,1.42-14.27,2.96-21.9,4.56c4.01,2.13,7.92,2.55,11.89,2.66c0.78,0.02,1.35-0.18,1.96-1.03c3.95-5.46,18.89-7.26,24.55-3.24
	c1.38,0.98,1.98,4.17,4.02,2.79c1.82-1.23,0.89-4.1,0.38-6.06c-1.18-4.52-3.05-8.8-6.1-12.45c-2.99-3.57-6.55-6.82-8.85-10.79
	c-4.78-8.24-12.6-12.12-20.69-15.67c-6.81-2.99-14.01-5.06-20.97-7.59c-14.8-5.37-29.34-5.11-44.89-1.71
	C121.24,385.1,126.55,389.61,134.32,388.22z M184.89,472.59c7.47-5.05,14.91-7.95,21.09-13.05c0.51-0.42,1.13-0.84,1.39-1.4
	c0.94-2-7.9-15.91-10.13-15.74c-4.17,0.32-8.32,0.18-12.47-0.11c-1.84-0.13-2.87,0.41-2.44,2.56
	C184.09,453.6,185.25,462.43,184.89,472.59z M168.29,461.75c-3.61,1.47-7.4,2.39-11.18,1.12c-6.58-2.21-13.35-2.44-20.16-2.41
	c-0.92,0-2.58-0.95-2.71,0.96c-0.08,1.23,0.79,2.06,2.14,2.35c10.65,2.29,21.32,3.78,32.01,0.46c2.2-0.69,4.68-1.51,5.77-5.02
	C171.79,460.24,170.05,461.03,168.29,461.75z M182.46,414.23c-8.84,1.03-17.68,2.05-26.52,3.1c-1.26,0.15-2.9-0.45-3.63,0.93
	c-0.64,1.22,0.74,2.03,1.36,2.94c0.93,1.37,1.99,1.91,3.76,1.12C165.47,418.75,174.06,416.95,182.46,414.23z M109.08,442.65
	c-2.69-0.13-4.86-0.16-7.01-0.37c-6.14-0.6-12.26-1.31-17.98-3.85c-2.2-0.98-4.17-2.08-3.51-5.07c0.65-2.97,3.05-2,4.82-2.03
	c3.49-0.05,7,0.04,10.48,0.38c2.17,0.21,3.48-0.64,5.25-1.82c8.99-5.96,14.55-15.47,23.13-21.79c1.12-0.82,2.12-1.73,0.83-3.25
	c-0.95-1.12-1.96-1.19-3.02-0.3c-5.42,4.54-12.52,7.08-16.16,13.78c-1.75,3.23-4.62,5.26-8.33,5.77
	c-17.53,2.41-32.67-1.75-43.83-16.34c-4.63-6.06-9.83-10.51-18.73-7.47c6.02,0.68,7.29,6.82,11.62,9.37
	c10.25,6.03,16.52,15.27,21.07,25.88c2.22,5.16,5.72,9.38,9.53,13.31c3.22,3.33,19.79,4.72,23.91,2.36c0.49-0.28,1.1-0.65,0.84-1.45
	c-16.39,0.7-19.92-0.16-21.97-5.13C89.52,444.76,99.05,443.88,109.08,442.65z M104.62,497.81c3.79-0.27,7.67-0.18,10.99-2.69
	C111.5,494.2,108.39,497.24,104.62,497.81z M116.71,502.08c-14.72,1.6-29.32,2.11-43.74-2.02c4.29-1.1,8.58-1.29,12.85-1.63
	c0.95-0.07,3.1,0.68,2.66-0.96c-1-3.78,1.99-2.69,3.45-3.21c1.82-0.65,3.79-0.89,5.69-1.3c-6.8-0.21-13.05-3.83-19.93-2.7
	c-10.06,1.66-18.27-1.53-24.44-9.79c-4.81-6.44-12.65-7.92-19.32-11.56C45.3,479.75,54.07,492.4,61.4,506.1
	c0.81,1.52,2.26,2.53,3.93,2.9c13.46,2.99,27,4.37,40.69,1.8c-11.3-1.84-23.21,0.14-33.81-5.84
	C87.22,505.5,102.04,505.12,116.71,502.08z M169.67,585.77c-0.5-1.23-1.05-2.48-1.28-3.77c-0.52-2.86-1.73-3.29-4.72-2.85
	c-6.1,0.89-11-2.41-15.57-6.11c4.27,0.57,8.35,1.74,12.48,2.67c1.84,0.42,4.78,1.12,4.96-1.34c0.16-2.22,0.38-5.85-4.1-5.94
	c-4.02-0.08-7.69-1.6-11.5-6.03c4.78,0.76,8.18,1.32,11.58,1.84c3.55,0.54,3.58-2.33,4.01-4.46c0.64-3.16-2.02-1.68-3.3-2
	c-1.29-0.32-2.72-0.17-3.94-0.61c-1.87-0.67-5.15-0.42-4.8-3.1c0.24-1.86,3.18-0.89,4.88-0.89c9.63,0,10.06-0.22,13.21-8.29
	c-3.69,0-7.53,1.5-11.37-1.43c4.19-2.26,8.84-1.79,12.63-4.44c-0.86-0.69-1.45-1.25-2.11-1.69c-4.7-3.15-9.72-5.84-13.96-9.64
	c-1.58-1.41-3.63-2.84-2.74-5.4c0.99-2.83,3.52-1.82,5.58-1.86c4.3-0.09,8.58,0.66,12.89-0.51c13-3.54,24.35-11.9,38.67-11.99
	c5.85-0.03,11.7-3.5,17.52-5.48c1.03-0.35,2.67-0.63,2.54-1.91c-0.12-1.19-1.05-2.44-1.93-3.38c-1.31-1.42-2.4,0.17-3.49,0.66
	c-6.97,3.15-13.78,6.78-22.31,7.33c1.82-2.03,3.7-2.32,5.36-2.95c5.45-2.07,10.88-4.16,15.72-7.53c1.28-0.88,2.49-1.56,1.4-3.51
	c-1.25-2.22-2.34-0.73-3.62-0.18c-5.61,2.4-11.27,4.65-18.48,5.17c3.3-4.2,7.43-5.25,11.14-6.57c2.87-1.02,4.07-3.11,5.52-5.24
	c1.38-2.01-0.19-3.54-1.14-4.94c-1.42-2.08-2.53,0.02-3.65,0.65c-17.59,9.83-36.2,15.96-56.61,15.36c-1.25-0.04-3.01,0.51-3.77-1.96
	c17.48-0.34,33.58-5.48,49.53-11.45c4.37-1.64,7.19-4.76,10.04-7.93c2.33-2.6-0.92-4.45-1.71-6.58c-0.77-2.07-2.21-0.85-3.16-0.06
	c-5.58,4.64-12.22,7.23-18.74,10.19c-15.16,6.87-31.08,9.95-47.54,9.36c-7.11-0.25-14.88-0.66-20.45-6.42
	c-6.04-6.24-8.67-14.11-9.66-22.52c-0.46-3.95,0.81-7.72,3.9-10.38c2.1-1.8,4.39-4.64,7.58-1.22c0.77,0.83,2.67,0.18,2.6-0.17
	c-0.67-3.25,1.58-2.27,2.81-1.84c6.67,2.31,13.91,3.15,19.79,7.64c-7.5-2.31-15.02-4.13-22.98-3.96c-3.69,0.08-5.29,1.57-6.11,4.92
	c7.09,0.56,14.04,0.6,20.4,3.22c4.79,1.97,9.68,2.37,14.65,2.48c5.9,0.14,10.72-2.46,15.98-7.2c-4.04,0.25-6.27,0.19-4.93-4.02
	c0.5-1.58-2.08-4.17-5.02-2.78c-2.54,1.2-5.03,0.82-7.18-0.48c-10.37-6.26-21.81-4.95-33.08-4.96c-0.98,0-2.1-0.14-2.74,0.82
	c-4.13,6.2-8.64,12.25-9.36,20.01c-1.21,12.99,5.73,23.46,10.93,34.43c0.51,1.06,1.99,1.72,3.12,2.4c5,3.03,10.11,5.8,15.95,6.91
	c1.12,0.21,2.58,0.45,2.4,1.99c-0.17,1.43-1.56,1.53-2.74,1.61c-3.48,0.23-6.44-1.38-9.53-2.61c-1.31-0.53-2.65-2.7-4.28-0.53
	c-1.53,2.04-0.03,3.41,1.3,4.69c4.52,4.35,9.83,7.35,15.86,9.12c1.83,0.53,4.01,0.47,5.66,3.34c-8.74,1.25-14.92-3.58-21.55-7.4
	c0.39,8.78,3.33,12.58,11.38,15.18c1.33,0.43,3.6,0.33,3.13,2.34c-0.45,1.93-2.48,1.72-4.22,1.39c-3.45-0.66-5.79-3.44-8.79-4.85
	c-1.51,10.12,4.77,14.67,12.35,18.29c1.47,0.71,4.32,0.33,3.06,3.21c-1.07,2.43-3.25,1.65-5.2,0.9c-3.82-1.46-6.45-4.56-10.2-7.71
	c-0.27,6.74-2.88,12.45-0.45,18.71c1.07,2.77,3.77,3.38,5.18,5.72c4.03,6.7,6.37,14.39,15.61,17.4c5.97,1.95,11.56,4.54,17.99,4.76
	C170.07,589.52,170.82,588.59,169.67,585.77z M211.08,806.72c-0.8-4.55-1.59-9.1-2.43-13.64c-0.14-0.79-0.48-1.77-1.5-1.63
	c-1.37,0.18-1.32,1.33-1.03,2.31c1.29,4.41,2.64,8.8,3.97,13.2C210.42,806.89,210.75,806.81,211.08,806.72z M232.46,784.94
	c0.92-10.93,5.14-21.14,9.22-32.04c-1.1,0.7-1.73,0.92-2.08,1.36c-5.25,6.53-12.28,10.1-20.15,12.42c-2.26,0.67-3.25,2.67-3.72,4.94
	c-0.77,3.74-0.97,7.79-2.59,11.13c-3.45,7.09,1.42,12.77,1.87,19.15c1.87-4.23,1.63-8.68,2.36-14.18c1.96,4.76,1.56,8.58,1.79,12.34
	c0.1,1.67-1.19,4.56,0.79,4.8c2.51,0.3,2.83-2.62,3.12-4.78c0.24-1.81,0.49-3.62,0.83-5.42c1.77-9.24,4.28-18.28,7.62-27.11
	c-1.41,9.66-4.11,19.07-5.41,29.86C230.12,793.3,232.03,789.91,232.46,784.94z M259.19,740.46c3.24-4.97,6.69-9.8,10.17-14.87
	c-10.82-0.81-34.51,41.55-32.77,58.43c3.55-4.36,7.83-7.77,8.98-13.23C247.92,759.68,253.07,749.85,259.19,740.46z M275.69,725.35
	c-7.28,1.3-25.62,32.27-26.4,42.84C262.66,756.67,263.68,738.3,275.69,725.35z M291.25,724.83c-5.56,1.21-10.75-1.07-13.7,2.48
	c-6.1,7.35-10.06,16.05-12.91,25.23C273.77,744.25,282.98,736.13,291.25,724.83z M517.52,669.63c-5.83-7.58-6.03-7.42-16.67-2.65
	c14.01,7.61,17.25,22.91,27.48,33.98c-0.2-2.84-0.4-4.64-0.42-6.44c-0.02-1.77,0.14-3.55,0.22-5.32c2.29,7.44,1.16,15.8,8.58,21.74
	c0.12-5.57-1.97-10.68,0.89-16.06c1.72,8.19,0.98,16.46,6.14,24.57c0.23-5.38-0.5-9.74,1.63-13.12c2.07-3.28,0.83-4.84-1.34-6.99
	C534.59,689.98,525.63,680.19,517.52,669.63z M732.9,773.08c1.22,3.01,3.27,4.67,5.1,6.5c0.45,0.45,1.05,0.99,1.72,0.52
	c0.33-0.23,0.72-1.01,0.59-1.21C738.58,776.34,737.29,773.14,732.9,773.08z M781.23,707.49c-1.22-4.48-2.84-8.9-3.49-13.46
	c-1.4-9.84-4.83-18.04-13.85-23.53c-4.3-2.62-8.58-4.77-13.5-5.78c9.81-1.88,17.37,3.02,25.23,9.05
	c-2.97-9.49-11.79-13.36-16.57-22.07c7.07,3.03,11.71,6.91,16.74,11.79c-1.25-15.7-1.83-30.47-13.71-41.77
	c6.19,0.6,8.69,5.53,12.81,9.86c-2.01-7.36-5.59-12.82-8.26-18.7c-2.3-5.06-5.91-8.31-10.91-10.28c-1.78-0.7-3.79-2.59-5.45-0.95
	c-1.16,1.15,0.63,3.01,1.18,4.5c3.59,9.66,1.39,18.75-4.48,26.31c-5.14,6.63-13.51,10.02-20.16,15.21
	c-4.81,3.76-10.44,7.64-16.3,10.48c-10.37,5.02-21.31,8.51-32.32,11.7c-3.86,1.12-6.64,3.21-10.37,6.23
	c6.16-0.58,10.36-4.26,15.48-4.55c-4.63,4.65-10.62,6.13-16.54,7.7c-4.18,1.11-8.74,1.35-12.52,3.21c-5.1,2.51-10.3,3.53-15.8,4.06
	c-8.5,0.81-16.92-0.67-26.6-1.09c6.16,2.37,11.56,1.97,16.61,3.78c-10.13,4.84-20.03,1.31-29.96-1.12
	c17.87,9.82,36.72,4.71,55.25,3.96c-26.05,9.76-50.55,6.88-73.51-9.13c-0.5,1.78,0.41,3.58,1.54,4.84
	c5.66,6.3,13.26,9.6,20.97,12.73c-5.4,1.22-9.52-2.21-14.21-3.27c-8.01-1.8-10.67-9.42-16.16-13.9c-0.98-0.8-1.01-3.14-0.98-4.76
	c0.3-13.89,11.79-26.25,25.48-28.26c16.32-2.4,31.81,0.66,47.03,6.14c2.15,0.78,4.91,1.37,5.72,3.64c0.78,2.19,2.02,2.14,3.7,2.18
	c12.29,0.31,23.83-3.6,34.61-8.44c6.26-2.81,12.31-6.4,18.98-8.15c9.78-2.57,18.63-7.16,27.49-11.71
	c7.35-3.78,11.26-9.86,11.5-18.48c0.18-6.39-1.57-11.76-5.63-16.55c-2.64-3.12-4.6-7.4-7.92-9.23c-9.79-5.4-20.73-6.54-31.83-6.35
	c-7.62,0.14-15.24,0.03-23,0.03c8.51-2.83,17.37-2.91,26.1-3.06c8.08-0.14,16.31-1.16,24.28,1.58c1.56,0.54,3.71,2.57,4.87-0.75
	c1.01-2.9-0.99-4-3.01-4.83c-4-1.65-8.1-3.04-12.13-4.61c-1.42-0.55-3.99-0.48-3.44-2.64c0.48-1.91,2.85-1.2,4.37-0.93
	c3.96,0.7,7.87,1.64,11.69,2.46c0.44-6.09-2.8-8.52-7.9-9.97c-6.74-1.91-13.47-3.69-20.36-4.95c-1.41-0.26-4.02,0.35-3.74-2.14
	c0.27-2.37,2.69-1.28,4.14-1.33c7.43-0.24,14.48,1.78,21.53,3.81c0.92,0.27,2.33,1.5,2.98-0.18c0.5-1.29,0.03-2.68-1.33-3.43
	c-1.02-0.57-2.09-1.04-3.16-1.49c-4.62-1.96-9.44-3.18-14.41-3.92c-1.39-0.21-3.46-0.48-3.4-2.32c0.07-2.09,2.11-2.28,3.8-2.39
	c4.53-0.29,8.98,0.12,13.27,1.73c2.89,1.09,3.32,0.21,2.83-2.7c-0.71-4.2-3.67-5.56-6.98-6.95c-2-0.85-5.94-0.73-5.34-3.3
	c0.72-3.11,4.26-1.33,6.48-0.89c3.97,0.79,3.64-1.47,3.16-3.95c-0.35-1.78-1.84-2.75-3.13-3.75c-4.65-3.59-9.86-6.17-15.27-8.4
	c-1.35-0.56-3.27-0.56-3.94-3.06c8.21-1.21,14.43,3.29,21.02,6.27c1.38-5.69-0.72-9.09-5.11-11.71c-5.48-3.27-11.12-5.97-17.34-7.52
	c-1.3-0.32-3.98,0.31-3.52-2.33c0.41-2.35,2.7-1.67,4.16-1.39c2.93,0.56,5.89,1.27,8.64,2.38c4.13,1.67,8.1,3.75,12.15,5.66
	c1.23-3.92-0.24-6.51-3.65-8.27c-2.36-1.22-4.67-2.55-7.01-3.82c-0.75-0.41-1.57-0.93-1.41-1.83c0.23-1.29,1.44-1.2,2.41-1.15
	c3.38,0.18,6.22,2.21,9.38,2.92c1.83-5.08,5.26-10.49-3.24-12.79c-0.85-0.23-1.38-1.07-1.08-1.97c0.49-1.46,1.96-1.53,2.92-1.07
	c5.74,2.76,5.94-1.32,7-5.13c1.16-4.17-1.08-6.17-3.95-8.13c-2.33-1.6-4.67-3.21-6.98-4.84c-0.78-0.55-2.03-1-1.63-2.19
	c0.49-1.45,1.93-0.96,3-0.88c3.44,0.26,6.2,2.6,10.13,3.98c-2.27-5.68-4.52-10.23-9.29-12.92c-8.13-4.58-16.55-8.58-25.33-11.77
	c-1.84-0.67-3.76-1.34-5.84-1.09c-6.42,0.79-12.86,1.42-19.26,2.32c-22.41,3.15-43.24,10.47-63.85,20.19
	c-35.22,16.61-69.56,34.74-103.11,54.36c-15.7,9.18-30.45,19.75-47.14,27.52c-34.51,16.06-67.47,35.51-104.77,45.16
	c-12.88,3.33-25.34,8.2-38.04,12.15c-14.2,4.42-29.01,3.47-43.66,2.64c-7.3-0.42-14.71-0.62-21.57-3.59
	c-3.56-1.54-7.2-2.48-11.01-2.98c-13.03-1.7-24.9-7.2-36.95-11.87c-7.09-2.75-12.32-8.32-15.39-15.63
	c-2.37-5.65,1.91-9.55,3.48-14.12c0.56-1.65,0.49-2.31-0.91-3.14c-1.66-0.99-2.76-0.56-3.67,1.01c-2.99,5.19-6.04,10.35-9,15.56
	c-1.07,1.88-0.67,3.87-0.02,5.81c5.75,17.15,10.88,34.46,18.71,50.92c7.93,16.67,11.34,35.14,19.22,51.92
	c2.27,4.83,4.04,9.91,5.04,15.15c3.87,20.23,19.29,28.32,36.6,32.16c15.98,3.55,32.62,3.84,49.13,1.5
	c13.5-1.91,27.36-1.95,40.61-4.85c23.89-5.23,47.62-11.43,70.12-21.37c6.7-2.96,13.44-5.77,20.47-7.85
	c35.16-10.42,68.95-24.51,102.78-38.49c39.27-16.23,79.47-29.75,120.24-41.63c18.42-5.37,37.44-7.65,56.41-10.29
	c9.01-1.26,16.89,0.22,24.32,4.86c8.35,5.22,9.57,21.39,2.31,28.26c-0.09,0.08-0.5-0.19-0.76-0.3c4.49-8.7,4.49-8.7,0.91-14.14
	c-3.67,6.02-6.81,12.5-13.74,16.49c-0.22-3.8,2.62-5.97,2.95-9.13c-4.33,5.02-10.53,5.58-16.1,7.6c-6.1,2.22-12.05,4.82-18.11,7.15
	c-1.33,0.51-3.27,1.29-3.99-0.43c-0.79-1.88,1.37-2.45,2.6-2.99c5.48-2.41,11.14-4.45,16.54-7.04c5.78-2.77,9.75-7.42,12.37-13.16
	c-19.6,15.86-38.61,23.38-50.19,19.23c1.61-1.96,3.8-1.88,5.84-2.22c16.91-2.85,32.69-7.82,42.88-23.13c0.94-1.42,1.93-2.8,2.9-4.2
	c-0.32-0.33-0.63-0.65-0.95-0.98c-7.73,11.06-17.88,18.3-30.92,20.97c1.83-3.14,5.57-3.65,8.56-6.72c-1.86,0.35-2.87,0.37-3.76,0.73
	c-8.76,3.53-18.24,4.21-27.25,7c-7.73,2.4-16.16,1.02-24.24-0.71c-4.28-0.92-8.46-2.75-12.99-2.28c10.52,3.96,21.89,4.99,33.17,9.7
	c-9.11,3.71-17.4,4.53-25.97,2.34c-7.1-1.81-14.2-3.63-20.66-7.24c-2.07-1.16-4.45-1.01-5.09,0.83c-0.57,1.63,2.05,2.05,3.55,2.56
	c2.05,0.69,4.15,1.24,6.17,2.01c4.03,1.54,7.86,3.4,10.63,6.96c-4.35-0.84-8.37-2.31-12.39-3.78c-6.34-2.32-12.71-3.76-19.53-1.91
	c-8.87,2.4-15.26,8.63-22.17,14.04c-1.45,1.13-1.69,3.31-1.2,5.65c3.14-2.41,6.08-4.33,8.62-6.68c4.84-4.47,10.39-6.41,16.9-5.75
	c2.31,0.24,4.68,0.81,6.94,0.56c9.56-1.07,16.81,5.13,25.27,7.55c-3.95,0.64-7.59-0.56-10.84-2.29c-6.04-3.22-12.05-3.1-18.3-1.12
	c-6.64,2.1-13.64,3.06-19.81,6.61c-10.97,6.3-14.91,16.61-16.83,28.35c-2.01,12.24,5.48,21.21,15.27,23.81
	c9.96,2.64,20.21,4.29,29.82,8.2c0.56,0.23,1.33,0.29,1.9,0.1c6.06-2.02,12.45-1.9,18.65-3.06c15.37-2.87,30.58-5.71,44.86-12.95
	c14.54-7.38,30.26-12.18,46.03-16.46c3.7-1.01,7.81-2.01,11.26-0.2c2.93,1.54,5.67,1.46,8.63,1.46c3.99-0.01,7.99,0.05,11.99,0.17
	c2.36,0.07,4.87,0.41,6.5,2.16c5.87,6.3,12.12,12.41,12.14,22.04c0.01,3.81,0.19,7.75,1.15,11.4c2.65,10.07-1.42,16.75-10.04,21.54
	c-0.61-2.1,2.08-3.62,1.3-5.96c-2.76,2.02-4.18,5.36-7.38,6.23c-10.17,2.77-20.53,2.6-30.57-0.04c-2.8-0.74-4.92-1.02-7.4-0.12
	c-3.35,1.22-6.01,3.43-8.64,5.8c-5.43,4.89-7.59,11.75-10.56,17.95c-7.41,15.48,1.61,32.79,14.98,36.89
	c1.41,0.43,3.12,0.76,4.06,1.74c7.61,7.87,17.4,6.8,25.93,4.23c9.22-2.78,16.75-9.8,22.56-17.61c5.74-7.71,13.12-13.16,20.93-18.26
	c5.04-3.29,10.36-5,16.51-2.65c8.78,3.36,17.69,6.34,26.84,9.59c-0.29-6.42-2.13-12.4-1.77-18.56c0.12-1.97-1.52-2.44-2.79-3.1
	c-5.31-2.78-10.71-5.4-15.98-8.25c-7.99-4.31-15.14-6.5-24.54-1.35c-11.71,6.42-20.72,15.86-31.72,22.87
	c0.32,0.46,0.63,0.92,0.94,1.38c1.15-0.8,2.37-1.52,3.45-2.41c7.14-5.87,15.3-10.03,23.54-14.06c1.18-0.58,2.56-1.31,3.75-1.17
	c7.41,0.88,14.81,1.87,22.17,3.07c3.96,0.64,7.71,2.12,10.82,4.82c0.75,0.65,1.63,1.39,1.07,2.52c-0.59,1.2-1.78,1-2.57,0.43
	c-8.13-5.94-18.17-4.87-27.19-7.5c-0.32-0.1-0.64-0.21-0.95-0.32c-2.23-0.81-3.48,0.96-4.71,2.11c-2.63,2.45,1.33,0.77,1.42,2
	c0.16,2.05-1.27,2.97-2.26,4.18c-4.33,5.29-10.54,8.49-14.85,13.97c-6.07,7.72-12.8,14.98-20.53,21.1
	c-4.58,3.62-9.91,5.21-15.91,3.24c-2.66-0.87-5.52-1.38-8.32-1.55c-20.89-1.29-24.46-19.81-21.05-34.39
	c1.02-4.35,3.56-8.57,5.23-12.91c2.19-5.68,6.3-8.57,12.24-8.47c7.32,0.13,14.75-0.09,21.91,1.15c13.25,2.31,24.4,0.02,32.6-11.43
	c0.95-1.33,2.86-2.47,2.99-3.82C781.32,720.38,783.04,713.98,781.23,707.49z M715.43,776.23c1.22,5.3,5.57,7,9.65,8.97
	C721.94,782.29,718.8,779.37,715.43,776.23z M779.29,758.47c-9.16,4.91-18.33,9.81-23.63,19.39
	C763.69,771.58,771.54,765.09,779.29,758.47z M736.75,719.93c-4.1-1.2-6.15,0.18-7.57,3.8
	C733.14,725.32,734.33,722.26,736.75,719.93z M739.98,733.03h10.37C742.98,730.35,742.18,730.39,739.98,733.03z M752.46,709.2
	c-3.01,0.68-6.16,0.59-6.74,4.55C750.29,714.39,750.58,714.2,752.46,709.2z M766.27,709.19c-1.74,4.95-5.12,8.72-7.73,14.2
	C765.64,719.19,768.5,713.74,766.27,709.19z M707.72,655.89c-14.98,3.4-29.71,7.31-43.9,13
	C678.7,665.29,694.06,663.31,707.72,655.89z M641.94,676.89c8.45,0.34,19.18-1.81,23.68-4.82
	C657.67,674.17,649.97,673.29,641.94,676.89z M620.22,682.76c6.54,1.33,12.19,1.99,19.16-0.52
	C632.4,682.08,626.79,681.44,620.22,682.76z M783.01,612.18c1.68-14.27-8.31-23.7-15.27-35.83c8.99,5.06,11.91,13.71,17.86,21
	c1.13-10.55-3.19-18.41-9.01-25.09c-4.76-5.46-15.61-6.89-20.41-4.41c2.54,0.47,5.34,0.85,8.06,1.54c1.63,0.41,3.37,1.41,2.77,3.46
	c-0.54,1.84-2.38,1.54-3.84,1.19c-6.41-1.54-12.85-0.35-19.28-0.35c4.08,1.05,8.81-0.72,12.53,2.81
	c-4.86,3.01-10.37,0.61-15.29,2.59c1.25,1.6,2.37,0.74,3.41,0.55c4.49-0.81,8.94-0.57,13.36,0.5c1.56,0.38,3.65,1.7,2.74,2.77
	c-2.98,3.51,0.96,3.69,3.14,5.93c-5.95,0.91-10.72,0.39-15.48,0.39c-1.38,0-3.15-0.73-4.03,0.9c-0.41,0.76-0.48,2.25,0,2.84
	c1.23,1.5,2.67-0.06,4.03-0.23c4.33-0.53,8.78-1.68,12.3,2.63c-3.58,2.59-7.48,1.18-12.05,2.65c16.89,1.04,22.86,13.64,29.68,25.38
	c2.09-2.88,1.8-5.12,0.76-7.64c-2.5-6.03-5.77-11.6-9.51-16.93c-0.84-1.2-2.4-2.23-1.79-4.47
	C775.19,598.56,777.81,606.37,783.01,612.18z M197.79,129.26c1.76,1.1,2.65-0.36,3.49-1.68c5.1-8.01,10.23-16.02,13.05-25.2
	c0.86-2.8,2.37-5.55,0.05-9.54c-0.24,0.63-0.46,1.26-0.71,1.88c-4.43,10.8-9.46,21.3-15.98,31.03
	C196.93,126.88,196.31,128.35,197.79,129.26z M809.74,129.98c8.14-3.61,16.77-6.34,22.81-13.38c-4.47,1.73-8.95,3.42-13.4,5.21
	c-3.54,1.42-7.04,2.93-10.54,4.46c-1.11,0.48-2.11,1.25-1.7,2.65C807.33,130.39,808.6,130.49,809.74,129.98z M696.33,461.13
	c9.71,1.34,17.26,5.28,25,8.8C717.55,463.56,704.99,459.09,696.33,461.13z M237.59,528.43c-3.32,1.52-6.61,3.1-9.98,4.51
	c-8.38,3.5-16.68,7.16-24.27,12.2c0.19,0.41,0.37,0.83,0.56,1.24c6.46-2.47,12.96-4.88,19.38-7.45c5.39-2.16,10.73-4.47,16.04-6.82
	c1.31-0.58,3.05-1.4,2.15-3.29C240.57,526.94,238.99,527.8,237.59,528.43z M358.44,342.2c-1.77,14.23-2.74,28.52-2.18,42.85
	c0.73,18.71,9.52,34.76,17.54,51.03c0.74,1.49,1.6,2.92,2.31,4.42c0.18,0.38,0.03,0.91,0.03,1.51c-0.57,0-1.18,0.19-1.46-0.03
	c-17.64-13.73-32.07-29.92-38.13-52.04c-1.27-4.65-2.32-9.3-4.49-13.62c-1.36-2.71-3.12-3.91-6.27-2.1
	c-3.88,2.23-8.06,3.95-12.03,6.04c-6.08,3.18-13.82-0.65-13.75-6.94c0.03-2.7,0.07-5.7,3.22-6.65c3.03-0.92,5.49,0.66,7.38,3.04
	c3.27,4.11,4.28,4.15,8.13,0.43c3.73-3.61,5.89-8.08,6.89-13.07c5.95-29.74,10.49-59.68,12.23-90c0.12-2.18,0.4-4.22-1.72-5.84
	c-1.56-1.19-0.78-3.08-0.59-4.7c1.3-10.89,3.31-21.72,3.22-32.74c-0.1-12.49-1.1-24.95-2.25-37.38c-0.49-5.27-3.95-9.4-5.94-14.08
	c-1.39-3.26-1.71-6.29-1.52-9.61c0.06-1.06,0.1-2.07,1.29-2.39c1.08-0.3,1.76,0.45,2.59,1.07c4.87,3.61,9.6,7.52,14.84,10.53
	c4.78,2.74,10.15,0.6,15.14-0.2c4.24-0.67,8.09-2.75,11.82-5.12c21.39-13.57,44.69-18.28,69.72-14.47c4.44,0.68,8.91,1.27,13.3,2.23
	c10.35,2.28,18.24,7.88,22.7,17.73c1.05,2.31,2.45,4.34,3.96,6.33c7.64,10.06,11.83,21.16,13.05,33.96
	c1.12,11.74,3.31,23.35,2.71,35.26c-0.97,19.22-4.74,37.55-14.53,54.46c-3.82,6.6-6.62,13.73-11.32,19.92
	c-4.16,5.48-10.32,7.64-15.71,11.1c-1.77,1.13-3.12,0.62-3.07-1.98c0.31-14.93,0.45-29.72,5.01-44.31
	c7.26-23.23,10.8-47.02,6.4-71.4c-0.47-2.62-1.17-5.1-3.46-6.95c-1.09-0.88-1.93-2.38-2.33-3.75c-2.54-8.65-8.83-13.81-16.28-17.99
	c-1.88-1.06-3.82-2.1-5.51-3.43c-12.8-10.09-25.75-6.53-39.2-1.24c-11.78,4.64-17.03,14.6-20.38,25.05
	c-8.53,26.61-12.42,53.85-5.86,81.68c0.69,2.91,0.41,6.47,4.91,7.05c1.05,0.13,2.03,2.12,2.73,3.42
	c6.14,11.37,17.74,14.24,28.53,18.27c2.87,1.07,6.86-2.59,9.13,1.22c1.81,3.03-0.36,6.48-0.45,9.77c-0.13,4.65-0.85,9.3-0.84,13.95
	c0,2.79-1.27,3.42-3.54,3.59c-6.37,0.48-12.58,0.37-18.55-2.54c-2.33-1.14-5.18-1.14-7.66-2.03c-7.44-2.68-13.38-7.43-17.82-13.93
	c-2.52-3.69-4.67-7.63-7.53-12.35C360.48,324.7,359.5,333.43,358.44,342.2z M334.24,332.88c-1.59,4-2.19,6.97-2.14,11.29
	C334.34,340.33,335.18,337.41,334.24,332.88z M676.22,646.74c14.17-3.53,28-7.86,39.87-16.84
	C702.88,635.73,688.89,639.68,676.22,646.74z M643.59,378.84c-0.02-0.02-0.11-0.13-0.11-0.13c0.02,0.08,0.03,0.17,0.04,0.26
	C643.55,378.92,643.57,378.88,643.59,378.84z M684.6,560.79c-6.57,0.96-13.14,1.91-19.64,2.86c-10.34-9.54-20.6-19.01-31.48-29.04
	c1.77,8.72,3.11,17.17,5.41,25.35c0.59,2.11,4.14,3.48,6.46,4.96c1.26,0.8,2.81,1.13,4.14,2.9c-4.43,1.25-8.89,2.43-13.3,3.78
	c-6.67,2.04-13.25,4.43-19.99,6.16c-1.1,0.28-2.66,0.37-4.03,0.22c-0.14,0.05-0.29,0.1-0.42,0.15c-6.75,2.08-13.43,4.36-19.94,7.1
	c-4.74,2.42-9.66,4.92-14.71,7.14c-3.66,1.61-4.72-0.05-3.96-3.59c-9.96-11.01-19.36-21.4-28.97-32.03
	c-1.91,3.52-2.5,6.63-1.05,10.7c3.1,8.71,5.33,17.72,8.05,26.57c0.39,1.26,1.32,3.06,2.3,3.29c4.34,1.01,3.41,2.86,1.12,5.06
	c-7.38,7.11-15.66,12.7-26,14.38c-1.7,0.28-3.59-0.6-5.39-0.95c0.77-1.65,1.52-3.3,2.33-4.93c0.2-0.41,0.59-0.73,0.93-1.12
	c-10.82-5.06-21.54-10.08-33.33-15.59c3.45,7.25,6.62,14.07,9.96,20.82c1.47,2.97,3.32,5.76,4.92,8.67
	c1.66,3.03,0.89,5.55-2.09,7.15c-5.66,3.05-11.36,6.02-17.14,8.82c-1.16,0.56-3.6,0.71-3.99,0.11c-0.71-1.11-0.88-3.17-0.31-4.38
	c1.4-3,0.8-5.22-1.25-7.64c-3.54-4.18-6.8-8.58-10.25-13c-4.19,2.8-8.25,5.51-12.6,8.41c2.07,6.96,4.13,13.9,6.23,21
	c1.05-0.14,1.73-0.43,2.27-0.28c1.76,0.5,3.48,1.16,5.21,1.77c-1.11,1.23-1.99,2.96-3.37,3.6c-9.78,4.53-19.62,8.94-29.55,13.11
	c-1.62,0.68-3.81-0.01-5.74-0.06c0.87-1.98,1.66-4.01,2.67-5.92c0.33-0.63,1.27-0.93,1.92-1.38c-4.85-15.03-9.63-29.85-14.79-45.82
	c-2.23,6.6-3.96,12.14-5.98,17.56c-0.89,2.4-2.09,4.81-3.67,6.8c-1.91,2.41-6.99,1.71-7.83-1.34c-1.89-6.89-8.34-8.95-12.33-13.55
	c-0.57,0.22-1.14,0.44-1.7,0.66c2.63,9.95,5.25,19.9,7.9,29.85c1.11,4.17,2.7,8.26,3.32,12.5c0.56,3.83,2.33,5.51,5.97,6
	c1.12,0.15,2.12,1.13,3.18,1.72c-0.69,1.21-1.1,3.1-2.11,3.51c-4.86,1.97-9.79,3.93-14.88,5.09c-3.14,0.72-4.03-1.58-2.52-4.63
	c0.62-1.25,0.88-3.03,0.52-4.37c-5.23-19.57-10.56-39.11-15.97-58.63c-0.38-1.39-1.67-2.51-2.45-3.81c-1.12-1.88-2.58-3.73-3-5.78
	c-0.14-0.67,2.39-2.29,3.92-2.81c3.69-1.24,7.05-3.14,11.43-2.71c5.18,0.5,6.55,1.36,5.29,6.48c-0.22,0.9-0.61,1.76-0.86,2.44
	c5.37,3.8,10.5,7.43,16.25,11.5c0.71-10.41,5.23-20.2,2.12-30.71c-0.94-3.18,3.32-7.57,6.54-6.88c0.88,0.19,1.87-0.01,2.79-0.14
	c3.12-0.44,6.22-1.17,9.35-1.32c1.63-0.08,3.31,0.82,4.97,1.28c-0.93,1.32-1.99,2.57-2.74,3.98c-0.61,1.14-1.46,2.67-1.15,3.71
	c5.51,18.08,11.21,36.09,16.8,54.15c1.07,3.45,1.81,7,2.87,11.17c1.44-0.42,3.04-0.89,4.55-1.34c-3.01-13.35-5.95-26.28-8.84-39.22
	c-2.87-12.85-5.68-25.72-8.64-39.18c5.13-2.9,10.57-5.98,16.36-9.26c0.99,0.92,1.61,2.02,2.43,2.18c4,0.81,7.27,1.65,3.19,6.53
	c-0.43,0.51,0.76,2.7,1.56,3.86c6.13,8.88,12.55,17.57,18.46,26.6c3.89,5.93,7.08,12.32,10.58,18.5c0.39-0.18,0.79-0.36,1.18-0.54
	c-0.83-2.15-1.6-4.32-2.48-6.44c-6.84-16.39-13.68-32.79-20.6-49.15c-0.9-2.12-1.28-3.58,1.32-4.82c1.55-0.74,2.87-2.2,3.96-3.6
	c6.21-7.9,15.56-10.39,24.2-14.04c2.42-1.02,4.71-1.39,6.7,2.25c1.67,3.05,5.73,4.81,8.77,7.09c7.26,5.45,5.18,25.03-1.03,29.76
	c-3.41,2.6-6.3,5.89-10.19,9.61c11.89,2.13,21.55,7.32,30.52,13.83c-0.18,0.42-0.36,0.84-0.53,1.27c3.19-0.31,6.39-0.62,10.66-1.03
	c-3.37-5.6-6.25-10.32-9.06-15.09c-0.75-1.27-1.4-2.63-1.89-4.03c-5.84-16.78-11.54-33.61-17.5-50.34
	c-2.55-7.16-2.05-9.01,4.87-11.61c2.16-0.81,4.46-1.4,6.75-1.68c1.11-0.13,2.8,0.36,3.37,1.18c0.42,0.6-0.24,2.84-0.97,3.19
	c-3.49,1.68-2.58,4.09-1.63,6.71c2.23,6.2,4.41,12.42,6.83,19.26c3.2-13.27,6.22-25.82,9.43-39.1c-3.45-2.15-1.4-4.14,2.2-5.86
	c3.29-1.57,6.5-3.37,9.91-4.63c1.46-0.54,3.33,0.06,5.01,0.14c-0.39,1.61-0.64,3.27-1.19,4.82c-0.54,1.52-1.58,2.88-2.04,4.41
	c-2.9,9.52-5.52,19.14-8.64,28.58c-1.05,3.18-0.72,5.58,1.59,7.63c6.24,5.52,12.78,10.72,18.85,16.41
	c3.67,3.44,6.71,7.55,10.03,11.36c0.46-0.2,0.91-0.39,1.37-0.59c-0.03-0.22-0.06-0.43-0.08-0.65c0.49,0.23,1.04,0.39,1.65,0.47
	c-1.5-10.2-6.65-19.61-9.13-29.67c-2.38-10.12-3.86-20.54-5.41-30.89c-0.88-5.11-7.02-12.28-1.35-16.26
	c6.43-3.19,35.47-20.42,36.29-6.55c8.28,8.09-5.05,20.99-8.6,7.3c-5.35,3.25-10.56,5.06-16.27,7.25c0.64,8.27,2.18,17.36,6.52,24.44
	c3.36-1.41,8.91-2.68,11.87-4.38c-2.79-13.22,13.04-9.53,10.59,1.63c4.1,2.82,5.12,10.44-1.44,10.56
	c-5.71-0.51-11.76-0.13-17.01,2.02c-2.17,10.01,3.26,20.68,5.26,30.43c1.69,0.73,24.73-2.86,21.59-5.91
	c-4.3-7.21,4.09-12.13,9.01-4.89c0.78-4.26,0.26-9.17-0.25-13.59c0.04-0.02,0.08-0.05,0.12-0.07c-0.1-0.49-0.2-0.98-0.3-1.47
	c-0.13-1.17-0.26-2.29-0.34-3.34c-0.08-0.99-0.38-1.82-0.84-2.51c-2.12-10.37-4.28-20.74-6.07-31.17
	c-1.09-6.37-1.44-12.71-4.85-18.59c-2.48-4.27,0.14-9.84,4.66-10.63c12.33-2.15,24.7-4.65,37.28-2.5c2.59,0.44,5.44,1.79,7.31,3.61
	c11.04,10.72,8.78,28.17-4.52,36.22c-4.65,2.81-9.43,5.4-15.13,8.64c6.23,5.6,12.02,10.74,17.73,15.96c2.2,2.01,4.3,4.15,6.35,6.32
	c4.16,4.41,6.94,10.53,14.5,10.49C681.46,556.79,683.11,558.56,684.6,560.79z M467.48,606.14c-5.19-10.43-10.22-20.51-15.24-30.59
	c-0.65,0.28-1.31,0.56-1.96,0.84c2.01,11.59,4.02,23.18,6.1,35.18C460.43,609.58,463.81,607.93,467.48,606.14z M503.7,574.42
	c6.36-6.15,4.93-17.89-2.5-22.6c-1.32-0.84-4-0.97-5.28-0.17c-5.01,3.12-9.71,6.73-14.88,10.41c2.8,6.95,5.69,14.12,9.07,22.53
	C495.07,580.94,499.84,578.15,503.7,574.42z M646.36,507.55c11.38-4.96,12.91-7.9,8.53-19.39c-0.45-1.19-1.74-2.77-2.81-2.91
	c-9.92-1.31-19.89-2.05-28.69,4.13c-1.12,0.79-2.02,3.33-1.62,4.63c2.46,7.88,5.33,15.62,7.78,22.58
	C635.18,513.52,640.57,510.07,646.36,507.55z M640.42,406.01c1.05,0.15,1.47-0.73,1.49-1.57c0.18-8.52,3.01-16.87,1.62-25.48
	c-2.76,5.09-2.45,10.86-3.58,16.29c-0.61,2.9-0.65,5.93-0.84,8.9C639.06,404.99,639.46,405.88,640.42,406.01z M367.89,626.91
	c-0.13,1.15-0.68,2.32-0.57,3.43c1.35,13.16-4.22,22.58-15.79,28.39c-4.63,2.32-9.71,3.74-15.51,5.92
	c1.57,6.11,3.36,13.05,5.22,20.27c2.79-0.84,4.53-1.83,6.22-1.73c1.56,0.09,3.06,1.34,4.58,2.09c-0.86,1.13-1.51,2.95-2.62,3.3
	c-10.09,3.14-20.22,6.15-30.42,8.93c-3.28,0.89-6.26,0.02-7.02-2.71c3.04-8.01-0.38-14.15-2.35-19.64
	c-2.16-6.04-9.34-0.64-14.73-4.73c-0.2,8.63-0.56,15.81-0.38,22.98c0.03,1.39,2.03,2.85,3.33,4.06c2.62,2.44,1.33,4.41-1.26,4.34
	c-8-0.24-16-1.02-23.95-1.92c-1.49-0.17-2.8-1.87-4.2-2.86c1.49-1.08,2.99-2.16,4.12-2.99c-2.77-15.73-5.57-31.62-8.38-47.51
	c-0.27-0.12-0.54-0.24-0.82-0.36c-1.72,6.5-3.69,12.96-5.05,19.53c-0.65,3.15-4.72,7.74-7.91,7.35c-0.92-0.11-2.53-1.35-2.45-1.83
	c0.88-5.14-3.33-7.07-5.97-9.99c-2.32-2.56-4.62-5.14-7.96-8.86c1.48,6.09,2.64,10.78,3.76,15.49c0.89,3.71,1.81,7.41,2.59,11.14
	c0.82,3.91,1.31,7.91,5.88,9.58c0.71,0.26,1.06,1.49,1.58,2.29c-5,2.95-16.52-0.24-18.88-5.11c-2.27-4.67,1.33-3.82,4.65-3.71
	c-5.98-20.1-11.84-39.79-17.81-59.86c1.99-1.36,12.09,0.56,16.77,4.36c-1.07,0.97-2.09,1.89-3.52,3.18
	c6.49,8.66,13.02,17.39,20.03,26.75c3.63-7.21,6.82-13.52,10.05-19.94c-1.02-1.1-2.12-1.93-2.72-3.03c-0.58-1.07-1.22-2.7-0.79-3.57
	c0.39-0.79,2.15-0.99,3.35-1.28c2-0.48,4.03-0.83,6.29-1.29c0.99,2.98,4.41,1.02,7.24,1.1c1.54,0.04,3.08,0.37,4.62,0.57
	c-0.45,1.31-1.19,2.61-1.29,3.95c-0.5,6.73-1.8,13.58-1,20.17c1.61,13.34,4.38,26.54,6.72,40.06h4.35c0-8.91-0.17-17.53,0.04-26.13
	c0.28-11.63,1.46-23.27,1.01-34.86c-0.2-5.31,0.77-7.54,5.83-8.62c3.67-0.78,7.11-2.6,10.74-3.67c1.41-0.42,3.04-0.07,4.6-0.07
	c-2.58,10.87,2.38,19.93,4.81,29.3c1.67,6.46,5.04,12.45,7.05,18.85c1.4,4.45,1.71,9.24,2.64,13.86c0.51,2.57,1.29,5.08,2.03,7.94
	c2.63-0.55,4.86-1.02,7.85-1.65c-0.85-4.03-1.61-7.86-2.45-11.67c-3.28-14.91-6.56-29.81-9.9-44.7c-0.61-2.73-1.22-5.54-2.39-8.05
	c-1.28-2.73-0.45-3.81,2.05-4.87c12.34-5.26,25.36-4.38,38.27-4.36C363.12,614.51,368.5,621.64,367.89,626.91z M306.38,662.46
	c-2.42-10.59-4.73-20.67-7.32-32c-5.15,11.67-5.46,22.3-3.01,33.56C299.56,663.49,302.77,663.01,306.38,662.46z M358.43,638.39
	c-0.38-3.01-0.87-5.15-0.88-7.29c-0.02-4.31-2.34-7.15-6.28-6.47c-7.38,1.28-14.61,3.53-21.82,5.65c-0.54,0.16-0.83,2.57-0.56,3.78
	c0.87,3.88,2.19,7.65,3.08,11.52c2.85,12.3,4.83,13.28,15.79,6.82C353.38,649.09,357.06,644.11,358.43,638.39z M643.57,378.81
	c0-0.02-0.01-0.03-0.01-0.05c0,0,0,0,0,0c0,0,0-0.01,0-0.01c-0.02-0.02-0.04-0.03-0.07-0.05L643.57,378.81z M543.81,333.22
	c-1.61-0.97-2.57,0.93-3.69,1.81c-1.55,1.22-2.44,3.57-5.33,1.84c-1.57-0.93-3.12,0.86-4,2.26c-3.13,4.99-8.33,7.58-12.73,11.09
	c-2.41,1.93-5.42,2.79-8.48,1.91c-8.52-2.44-17.27-2.08-25.82-1.26c-10.56,1-19.67-2.04-28.53-7.07c-1.62-0.93-2.22-2.06-2.54-3.89
	c-2.66-15.05,0.61-29.83,1.91-44.69c0.29-3.27,0.4-6.67,1.78-9.79c4.04-9.11,4.92-18.94,6.49-28.61c0.3-1.82-0.91-4.42-1.7-4.13
	c-4.41,1.59-7.16-2.51-11.16-2.61c-7.88-0.2-16.01-0.52-22.15-6.76c-0.48-0.49-0.92-0.37-1.27-0.06c-2.32,2.05-3.87-0.18-5.1-1.3
	c-3.87-3.52-7.46-7.35-11.12-11.1c-0.65-0.67-0.89-2.05-2.14-1.61c-1.21,0.42-0.75,1.65-0.74,2.61c0.02,1.4,0.66,2.52,1.43,3.65
	c5.2,7.59,8.92,15.97,12.85,24.25c4.56,9.61,5.75,19.81,4.86,30.23c-2.19,25.52-3.48,51.1-7.69,76.45
	c-3.9,23.48-4.73,47.38-9.08,70.82c-1.34,7.18-1.9,14.58-5.63,21.13c-5.42,9.52-8.38,10.33-17.76,4.79
	c-0.43-0.25-0.83-0.6-1.29-0.75c-1.29-0.41-2.51-2.55-3.85-0.86c-1.04,1.32,0.18,2.88,1.18,3.99c7.28,8.07,16.33,11.17,27.13,10
	c5.38-0.58,11.44-2.6,15.2,3.71c5.71,9.58,14.91,13.67,25.76,16.53c-0.85-1.1-1.28-1.73-1.79-2.3
	c-10.32-11.49-14.85-25.79-13.13-40.25c2.84-23.83,0.08-48.39,9.02-71.53c2.44-6.3,3.47-8.6,10.24-9.45
	c3.13-0.4,6.32-0.82,9.46-0.69c7.8,0.32,16.02-0.32,23.07,3.25c8.47,4.29,17.26,7.83,25.74,12.08c5.14,2.58,11.27,3.08,12.24,10.54
	c0.27,2.13,3.31,1.78,5.1,2.38c1.24,0.41,1.65-1.15,1.34-2.04c-2.26-6.54,1.16-12.74,1.02-19.15c-0.14-6.7,1.28-13.22,2.42-19.79
	c1.35-7.82,5.01-14.67,8.3-21.7C544.22,335.9,545.58,334.25,543.81,333.22z M173.38,510.4c-3.54,0.37-7.3-0.07-11.67,2.7
	C166.72,513.45,170.35,513.54,173.38,510.4z M800.63,759.42c7.75,2.69,16.32,3.35,22.8,9.22c0.97,0.88,2.27,0.84,3.11-0.2
	c1.09-1.36,0.2-2.52-0.86-3.4c-8.45-7.01-18.59-8.27-28.98-8.78C797.48,758.43,799.06,758.88,800.63,759.42z M693.66,674.53
	c-8.48,3.8-16.96,7.6-25.44,11.4C677.86,684.75,686.66,681.67,693.66,674.53z M336.17,590.43c-15.21,3.02-29.65,9.64-45.23,10.87
	c-15.63,1.23-31.19-1.54-46.73-2.46C275.61,604.98,306.54,605.1,336.17,590.43z M759.37,191.5c7.33-6.11,15.53-10.82,24.15-14.79
	c10.55-4.86,21.2-9.51,31.81-14.26c1.36-0.61,2.78-1.14,3.55-2.56c-0.25-1.38-1.3-1.42-2.27-1.22c-2.27,0.48-4.61,0.85-6.74,1.71
	c-10.47,4.21-20.95,8.4-31.29,12.92c-8.08,3.53-15.55,8.22-22.42,13.8c-1.7,1.37-3.73,3.12-1.89,5.36
	C756,194.57,757.85,192.76,759.37,191.5z M822.36,754.29c-5.12-4.73-11.31-6.51-18.01-6.67
	C810.43,749.7,816.72,751.05,822.36,754.29z"/>
</svg>
