<?xml version="1.0" encoding="utf-8"?>
<!-- Generator: Adobe Illustrator 25.1.0, SVG Export Plug-In . SVG Version: 6.00 Build 0)  -->
<svg version="1.1" id="レイヤー_1" xmlns="http://www.w3.org/2000/svg" xmlns:xlink="http://www.w3.org/1999/xlink" x="0px"
	 y="0px" viewBox="0 0 20 33" style="enable-background:new 0 0 20 33;" xml:space="preserve">
<style type="text/css">
	.st0{fill:url(#SVGID_1_);}
	.st1{fill:#60A6D7;}
	.st2{fill:#1C76C8;}
</style>
<linearGradient id="SVGID_1_" gradientUnits="userSpaceOnUse" x1="10" y1="1.54" x2="10" y2="34" gradientTransform="matrix(1 0 0 -1 0 34)">
	<stop  offset="0.2" style="stop-color:#60A6D7"/>
	<stop  offset="0.8" style="stop-color:#1C76C8"/>
</linearGradient>
<path class="st0" d="M20,10c0,8.4-10,22.5-10,22.5S0,17.9,0,10C0,4.5,4.5,0,10,0S20,4.5,20,10z"/>
<path class="st1" d="M10,2c4.4,0,8,3.6,8,8c0,5.3-4.8,13.9-8,18.8C6.9,23.8,2,15,2,10C2,5.6,5.6,2,10,2 M10,0C4.5,0,0,4.5,0,10
	c0,7.9,10,22.5,10,22.5s10-14,10-22.5C20,4.5,15.5,0,10,0L10,0z"/>
<path class="st2" d="M10,1c5,0,9,4,9,9c0,6.6-6.6,17.1-9,20.7C7.7,27,1,16.2,1,10C1,5,5,1,10,1 M10,0C4.5,0,0,4.5,0,10
	c0,7.9,10,22.5,10,22.5s10-14,10-22.5C20,4.5,15.5,0,10,0L10,0z"/>
</svg>
