<?xml version="1.0" encoding="utf-8"?>
<!-- Generator: Adobe Illustrator 25.2.1, SVG Export Plug-In . SVG Version: 6.00 Build 0)  -->
<svg version="1.1" id="レイヤー_1" xmlns="http://www.w3.org/2000/svg" xmlns:xlink="http://www.w3.org/1999/xlink" x="0px"
	 y="0px" viewBox="0 0 40 50" style="enable-background:new 0 0 40 50;" xml:space="preserve">
<style type="text/css">
	.st0{fill:url(#SVGID_1_);}
	.st1{fill:url(#SVGID_2_);}
	.st2{fill:url(#SVGID_3_);}
	.st3{fill:#888FA6;}
	.st4{fill:#FF1A1A;}
	.st5{fill:#FF9C64;}
	.st6{fill:none;stroke:#FF0000;stroke-miterlimit:10;}
	.st7{fill:#FFFFFF;}
</style>
<linearGradient id="SVGID_1_" gradientUnits="userSpaceOnUse" x1="35.2676" y1="11.0253" x2="29.8654" y2="5.1276" gradientTransform="matrix(1 0 0.364 -1 -4.9148 50)">
	<stop  offset="0" style="stop-color:#000000;stop-opacity:0"/>
	<stop  offset="1" style="stop-color:#000000;stop-opacity:0.5"/>
</linearGradient>
<path class="st0" d="M37.4,35.6c-2,0-4.3,0.9-5,2.1c-0.5,0.7-0.2,1.3,0.5,1.7l-11.7,8l0,0.9l0.2,0.6l12.9-9.1c0.1,0,0.3,0,0.4,0
	c2,0,4.3-0.9,5-2.1S39.5,35.6,37.4,35.6z"/>
<linearGradient id="SVGID_2_" gradientUnits="userSpaceOnUse" x1="16.8614" y1="29.8098" x2="16.8614" y2="-10.4332" gradientTransform="matrix(0.9205 -0.3907 5.566737e-02 1.0627 4.0783 24.2851)">
	<stop  offset="0" style="stop-color:#BDC7CE"/>
	<stop  offset="1" style="stop-color:#888FA6"/>
</linearGradient>
<polygon class="st1" points="21.8,48.5 20.1,49.9 18.3,48.8 18.4,6.9 21.8,5.4 "/>
<linearGradient id="SVGID_3_" gradientUnits="userSpaceOnUse" x1="15.7678" y1="1.4102" x2="15.7678" y2="26.2314" gradientTransform="matrix(0.9205 -0.3907 -5.566737e-02 -1.0627 5.6357 54.0421)">
	<stop  offset="0" style="stop-color:#F0EFEF;stop-opacity:0"/>
	<stop  offset="0.7" style="stop-color:#FFFFFF"/>
</linearGradient>
<polygon class="st2" points="20,46.4 18.9,46.9 18.8,20 19.9,19.9 "/>
<path class="st3" d="M21,6.9l-0.1,41.4l-0.8,0.5l-0.8-0.5l0.1-40.8L21,6.9 M21.8,5.4l-3.5,1.5l0,41.9l1.8,1.1l1.7-1.3L21.8,5.4
	L21.8,5.4z"/>
<g>
	<circle class="st4" cx="20" cy="8" r="7"/>
	<g>
		<path class="st5" d="M20,2.5c3,0,5.5,2.5,5.5,5.5S23,13.5,20,13.5S14.5,11,14.5,8S17,2.5,20,2.5 M20,1c-3.9,0-7,3.1-7,7s3.1,7,7,7
			s7-3.1,7-7S23.9,1,20,1L20,1z"/>
	</g>
	<circle class="st6" cx="20" cy="8" r="7"/>
	<g>
		<circle class="st5" cx="18.8" cy="6" r="3.9"/>
	</g>
	<g>
		<circle class="st7" cx="18.3" cy="5.3" r="1.7"/>
	</g>
</g>
</svg>
