<?xml version="1.0" encoding="utf-8"?>
<!-- Generator: Adobe Illustrator 26.0.3, SVG Export Plug-In . SVG Version: 6.00 Build 0)  -->
<svg version="1.1" id="_x32_" xmlns="http://www.w3.org/2000/svg" xmlns:xlink="http://www.w3.org/1999/xlink" x="0px" y="0px"
	 viewBox="0 0 512 512" style="enable-background:new 0 0 512 512;" xml:space="preserve">
<style type="text/css">
	.st0{fill:#FFFFFF;}
</style>
<g>
	<path class="st0" d="M473.8,0c0,0-18.6,28.3-139.9,70.2C210.2,112.9,134,286.6,134,286.6C115.7,322.2,43.2,470,43.2,470
		c-20,38.2,16.6,60.7,38.1,21.3c41.2-75.7,67.7-144.9,130.2-146.8c91.2-2.9,153.6-84.1,134-80.4c-25.8,11.5-82.8,0.9-49.2-4.4
		c80.5-6.6,130.1-68.3,114-72.5c-28.6,11.2-55.2,0.6-60.4-2.7C492,167,473.8,0,473.8,0z"/>
</g>
</svg>
