<?xml version="1.0" encoding="utf-8"?>
<!-- Generator: Adobe Illustrator 25.1.0, SVG Export Plug-In . SVG Version: 6.00 Build 0)  -->
<svg version="1.1" id="point" xmlns="http://www.w3.org/2000/svg" xmlns:xlink="http://www.w3.org/1999/xlink" x="0px" y="0px"
	 viewBox="0 0 418 318" style="enable-background:new 0 0 418 318;" xml:space="preserve">
<style type="text/css">
	.st0{fill:#FFFFFF;}
	.st1{fill:#A78164;}
</style>
<path class="st0" d="M340.05,264c-8.37-1.85-17.63-5.54-24.88-8.81c0.59-5.92,1.2-16.68-1.79-18.6
	c-4.17-2.67-24.67-12.83-24.67-12.83s-1.07-7.3,0-9.77s4.67-6.57,4.67-6.57s-0.31-4-7.49-4.83c-7.18-0.83-34.75-0.33-40.97,0
	s-9.71,1.05-8.71,4.03c1,2.97,8,5.44,7.67,7.37c-0.33,1.93-0.24,8.27-3.87,10.6s-11.22,5.02-14.59,6.93
	c-3.37,1.91-7.54,3.74-8.71,9.41c-0.67,3.26-0.96,7.74-1.08,10.95c-7.76,0.72-41.71,3.8-64.95,5.22l-2.87-10.84c0,0-0.1-9,4.4-18
	s9.67-24.1,13.83-29.21c4.17-5.12,7.54-10.68,13.77-13.18c6.23-2.51,9.24-1.82,16-4.94c6.76-3.12,11.5-8.83,16.45-13.17
	c4.95-4.33,15.11-6,19.45-9.25c4.33-3.25,17.17-13.06,20-16.99c2.83-3.93,4.35-6.93,5.26-9.76c0.91-2.83,0-5.74,0-5.74
	s15.71-7.98,19.55-13.01c3.84-5.03,6.36-20.58,6.36-20.58l9.5-12.92l5.67-6.5l-1.17-7.1l8.35-12.14l-1.52-6.67l-6.17-1.83
	l15.17-13.5l4.17-11.83c0,0,8.16-6.23,8.67-9c0.51-2.77-1.33-3.93-1.33-3.93l0.66-4.73c0,0-30.3,16.17-36.98,20.83
	s-49.53,35.46-55.61,42.81s-25.58,37.74-33.33,50.3s-28.75,53.74-33.08,62.73c-4.33,8.99-9.67,18.96-9.67,18.96l-8.75,24.69
	l-10.25,29.13l-3.9,6.15c-25.85,1.31-128.27,16.14-128.27,16.14s59.49,16.45,79.12,21.58s74.79,18.83,74.79,18.83
	s35.09-7.33,65.94-11.33s86.16-5.12,108.82-10.05c22.67-4.93,78.67-9.62,78.67-9.62C404.72,274.42,357.05,267.76,340.05,264z"/>
<path class="st1" d="M252.9,280.87c0,0.02-0.01,0.02-0.02,0.03c-0.02-0.02-0.03-0.04-0.05-0.05
	C252.85,280.86,252.88,280.86,252.9,280.87z M213.96,271.84c0.02-3-0.1-6,0.04-8.99c0.11-2.45-1.49-4.52-1.09-7.09
	c0.93-6.09,1.1-12.28,2.99-18.25c1.05-3.33,2.93-5.61,6.19-6.44c3.52-0.9,6.69-2.65,9.59-4.52c2.92-1.88,6.11-3.05,9.02-4.77
	c2.62-3.93,0.86-6.9-2.16-9.68c-0.89,0-1.87,0-3.11,0c-0.63-0.81-1.33-1.72-2.57-3.33c-0.69-2.23,1.89-4.29,2.55-6.77
	c4.17-2.36,4.17-2.36,6.96-1.04c3.03-1.85,6.16-3.05,9.79-2.97c5.83,0.14,11.67,0.27,17.48-0.06c2.86-0.16,5.26,1.44,8.09,1.16
	c2.8-0.28,5.74-0.48,8.47,0.04c4.31,0.82,8.69,2.04,9.83,7.65c-0.54,1.99-1.78,3.79-3.66,5.25c-0.73,0-1.56,0-2.13,0
	c-0.83-0.97-2.13-1.81-2.14-2.67c-0.02-1.54-0.61-2.47-1.58-3.25c-8.81-0.74-17.4,1.57-26.12,1.01c-0.11-0.01-0.23,0.22-0.74,0.73
	c5.99,0.46,11.68-0.08,16.1,0.22c2.78,1.67-0.38,1.76,0.6,2.85c3.54,0.93,6.85-2.13,10.45-0.58c0.33,0.5-0.02,1.31,0.7,1.69
	c0.81,0,1.64,0,2.74,0c1.37,3.72,0.34,7.21,0.8,10.38c4.44,3.67,10.05,4.83,14.94,7.51c2.12,1.16,4.03,2.71,6.56,3.48
	c2.64,0.8,3.23,4.13,3.39,6.88c0.16,2.82,0.04,5.66,0.04,8.49c0,8.83,0,17.65,0,26.47c-1.76,3.38-5.44,3.76-8.39,4.61
	c-3.89,1.12-7.98,1.85-12.08,2.38c-2.7,0.34-5.39,0.58-8.1,0.85c-2.7,0.26-5.49,0.54-8.04,1.13c-5.21,1.22-10.37,1.88-15.7,1.92
	c-1.82,0.01-3.6,1.03-5.58,0.96c-2.1-0.08-4.17,0.01-5.94-1.39c-0.26-0.2-0.52-0.66-0.72-0.63c-2.44,0.35-4.71-0.55-6.99-1.35
	c-0.34,0.97-0.55,1.55-0.87,2.45c-6.41-0.97-12.6-2.86-18.74-5.07c-1.17-0.42-0.49-1.43-1.31-1.98c-2.78,0.5-5.2-2.22-7.93-0.93
	C213.76,276.04,213.95,273.93,213.96,271.84z M253.86,281.6c-0.07-0.29-0.22-0.49-0.96-0.73c0.01-0.08,0.01-0.18-0.01-0.31
	c-0.16-0.77-1.03-0.76-0.05,0.29c-0.41-0.13-0.97-0.27-1.79-0.44c0.18,0.21,0.47,0.59,0.51,0.57c0.37-0.23,1.19,0.34,1.32-0.07
	c0.04,0.04,0.05,0.06,0.09,0.1c-0.09,0.48,0.14,0.78,0.59,0.89C253.64,281.91,253.88,281.68,253.86,281.6z M302.87,252.98
	c-2.63,0.12-4.78,0.09-7.04,0.87c-2.08,0.72-4.61,0.15-6.94,0.15c-2.5,0-5.15-0.53-7.44,0.15c-2.15,0.64-4.34,0.66-6.32,0.96
	c-0.17,0.8-0.26,1.26-0.34,1.64c-1.64,0.67-3.39-0.32-4.83,0.69c0,3.06,0,6.06,0,9.06c-0.58,0.56-1.33,1.04-0.93,2.04
	c0.83,1.18,2.25,2.2,3.31,1.35c1.4-1.14,2.8-0.6,4.16-0.93c2.58-0.63,5.2-1.03,7.79-1.63c2.75-0.63,5.48-1.73,8.46-1.38
	c1.97,0.23,3.99,0.05,5.99,0.04c0.31,0,0.61-0.12,0.92-0.18c0.81-1.04,2.43-0.9,3.22-2.3C302.87,260.25,302.87,256.8,302.87,252.98z
	 M304.86,246.41c0.02-0.08-0.22-0.31-0.29-0.29c-0.46,0.1-0.68,0.41-0.6,0.89c-0.69-0.03-1.03,0.31-1,1
	c-0.48-0.09-0.78,0.13-0.89,0.59c-0.02,0.08,0.22,0.31,0.29,0.29c0.46-0.1,0.68-0.41,0.6-0.89c0.69,0.03,1.03-0.31,1-1
	C304.45,247.09,304.76,246.87,304.86,246.41z M276.95,216.53c0.74,0.97,1.94,0.06,2.71,0.68c0.45,1.01,0.89,1.99,1.33,2.98
	c-1.23,1.32-1.24,2.87-1.03,3.76c1.11,1.41,1.83,2.32,2.45,3.11c1.02-0.18,1.93,0.3,2.55-0.54c-1.57-3.12-1.45-4.93,1.11-14.05
	C283.24,215.01,282,215.52,276.95,216.53z M268.32,211.26c1.65,0.87,3.65,0.87,5.67,0C272.1,211.26,270.21,211.26,268.32,211.26z
	 M244.44,209.75c2.21-0.95-1.73-2.08,0.31-3.04c-0.83-1.03-1.53-1.89-2.62-3.23c0.51,2.66-2.38,3-2.16,5.11
	C241.36,209.66,243.45,208.13,244.44,209.75z M240.87,227.82c2.12,0,4.01,0,5.85,0c1.78-4.41,2.75-8.81,2.05-13.83
	c-1.82,0.88-2.6,2.61-2.67,3.93C245.86,222.01,243.49,224.78,240.87,227.82z M236.72,230.08c1.26-0.27,2.4,0.45,3.3-0.77
	c-0.53-0.12-0.95-0.27-1.38-0.3c-0.61-0.05-1.26-0.15-1.78,0.95C236.81,230.01,236.76,230.04,236.72,230.08z M228.69,232.9
	c2.67,0,4.78,0,6.89,0c0.59-0.71,1.62-1.17,1.08-2.76c-1.05,0.9-2.61,0.46-3.67,1C231.76,231.76,230.2,231.63,228.69,232.9z
	 M219,268.17c0.42,1.27,1.32,0.52,1.82,1.14c2.31,2.88,6.34,2.51,9.04,4.69c4.62,0.28,8.63,2.43,12.76,4.18
	c2.3,0.98,4.67,1.42,7.48,1.96c-2.01-3.06-0.55-6.06-1.29-8.82c-0.73-0.56-1.14-1.74-2.5-1.19c-0.7,1.35,0.11,3.84-2.97,3.87
	c-0.38-0.4-0.93-0.98-1.3-1.37c-0.24-1.74,0.32-3.25-0.5-4.71c-1.47,1.8,0.77,4.82-2.13,5.97c-1.44-0.54-1.16-2.26-2.14-3.1
	c-1.11-0.96,0.83-2.81-1.23-3.59c0,1.51,0,2.96,0,4.33c-0.85,0.5-1.07,1.55-2.48,1.46c-0.25-0.46-0.65-1.19-1.53-2.81
	c0.35-4.13-0.2-9.51-2.55-14.99c1.63-0.2,3.5-0.17,2.2-1.96c-1.23-0.71-1.58,0.32-2.12,0.66c-2.28-1.45-5.11-2.07-6.52-4.47
	c0-2.75,0-5.4,0-7.87c0.56-0.62,1-1.11,0.96-1.08c4.08-1.89,7.63,1.73,10.84-0.27c5.04,1.37,10.51,1.19,13.58,5.78
	c1.65,0.04,3.1-0.28,4.27,0.8c0.68-0.41-0.24-1.87,0.97-1.8c1.62,1.78,3.15,3.47,4.68,5.15c-0.46,1.04,2.08,1.88,1.54,3.38
	c-0.3,0.88-1.28,0.13-1.47,0.43c-1.28,1.91,0.38,2.97,0.62,4.6c-1.11,0.29-1.08,1.28-1.07,2.29c0.03,2.5-0.07,5,0.03,7.49
	c0.1,2.34-0.25,4.47-1.84,5.99c0,2.3,0,4.42,0,6.81c0.58-0.5,0.88-0.98,1.25-1.03c0.97-0.14,1.97-0.06,2.96-0.14
	c0.18-0.02,0.34-0.38,0.42-0.47c-0.62-1.16-1.21-2.25-1.6-2.97c-0.64-5.09-0.17-9.66,1.78-14.04c0.94-2.11,1.57-4.35,2.52-6.45
	c1.36-3.03,2.74-6.1,6.27-7.34c0.42-0.15,0.71-0.69,1.07-1.03c2.5-2.34,5.43-3.72,8.86-3.87c0.61-0.61,1.2-1.2,1.79-1.79
	c0.99,0,1.99,0,2.98,0c0.95,0.59,1.31,1.96,2.88,2.02c0.72-0.65,1.54-1.39,2.27-2.05c2.09,0.11,4.11-0.45,5.55,1.28
	c0.96-0.91,1.67-1.59,2.39-2.27c0.78,0.2,1.68-0.38,2.36,0.42c-0.36,0.66-0.92,1.13-1.02,2.02c-0.08,0.65-1.14,1.14-1.6,1.81
	c-0.35,0.51-1.63,0.68-0.72,1.94c3.55-1.45,4.98-6.21,9.42-6.19c0.14,1.06,1.49,1.73,1,3c-0.48-0.09-0.78,0.13-0.89,0.59
	c-0.02,0.08,0.22,0.31,0.29,0.29c0.46-0.1,0.68-0.41,0.6-0.89c1.53-0.24,2.42,0.56,2.97,1.77c0.37,1.1-1.13,1.23-0.94,2.33
	c0.93,1.04,1.01,2.43,0.99,3.9c-0.04,5.48-0.06,10.95,0.03,16.43c0.01,0.77-0.75,1.92,0.55,2.44c0.62-0.36,0.37-0.91,0.4-1.38
	c0.32-4.68-0.78-9.44,0.97-14.04c0.28-0.72,0.36-1.85-0.02-2.44c-1.76-2.73-0.53-5.74-1.01-8.58c-1.13-0.9-0.97-2.75-2.48-3.44
	c-0.79,0-1.62,0-1.45-0.01c-3.25-1.58-5.64-2.86-8.46-2.97c-1.66-0.07-3.4,0.27-4.98-0.09c-1.84-0.42-2.9,1.57-4.6,1.07
	c-2.19-0.63-3.98,1.1-6.08,1.01c-2.28-0.1-4.18,1.09-6.26,1.76c-2.72,0.87-5.67,2.44-8.34-0.19c-1.35-3.67-2-7.48-0.57-11.38
	c-0.52-0.36-1.33,0.01-1.73-0.75c-0.59-1.99,2.53-3.98,0.1-6.04c1-0.84,1.19-2.07,1.72-3.11c-0.63-0.63-1.22-1.21-1.79-1.79
	c0.32-0.35,0.64-0.7,0.9-0.99c-0.83-0.87-1.62-1.72-2.2-2.33c-1.72,0-3.17,0-5.13,0c1.13,1.71,1.47,3.31,1.76,4.85
	c0.88-0.09,1.34,0.01,1.47,0.2c0.46,1.92,0.12,3.45-0.83,4.82c0.82,1.57,1.42,3.24,2.69,4.14c1.59,3.5-1.37,5.85-1.73,8.8
	c-0.19,1.58-1.9,2.39-2.57,3.92c-0.46,1.05-2.23,1.53-3.32,2.21c-11.64-7.07-21.85-6.67-31.09-5.63c-0.31-0.34-0.62-0.69-0.92-1.01
	c0.59-1.09,2.48-1.4,1.7-3.38c-2.43-0.5-4.09,0.97-6.06,2.59c1.43,1.81-0.78,3.12-0.71,4.91c0.08,2,0.1,4,0,5.99
	C219.6,254.6,220.95,261.68,219,268.17z M240.47,264c-0.73,0.68-0.73,1.34,0,2.02C241.2,265.34,241.2,264.67,240.47,264z
	 M177.92,161.59c-0.02,0.19,0.03,0.33,0.25,0.34c0-0.24,0.02-0.52,0.1-0.89C178.15,161.22,178.03,161.41,177.92,161.59z
	 M146.33,235.56c-0.11,0.07-0.24,0.16-0.38,0.27c0.04,0.07,0.15,0.11,0.31,0.1C146.28,235.81,146.31,235.68,146.33,235.56z
	 M181.82,153.07c-0.03,0.28-0.07,0.57-0.15,0.9c0.1-0.06,0.19-0.12,0.28-0.18C182.03,153.45,182.13,153.12,181.82,153.07z
	 M122.87,281.4c0.98-1.69,1.41-3.68,1.03-5.75c0.72-0.76,1.4-1.47,2.09-2.2c0-4.65,0-9.31,0-13.47c1.12-2.66,2.7-4.15,4.84-5.5
	c4.08-2.57,5.8-7.04,7.1-11.47c1.53-5.2,3.52-10.19,5.61-15.18c1.66-3.97,2.76-8.17,4.32-12.21c0.62-1.61,1.74-2.96,2.11-4.63
	c0.72-3.21,1.38-6.44,2.01-9.67c0.63-3.28,1.39-6.49,4.04-8.81c0.44-0.38,1.12-0.49,1.84-0.79c-0.11-2.58,1.47-4.64,2.72-6.73
	c2.56-4.26,4.58-8.73,6.58-13.28c2.04-4.62,4.13-9.35,7.1-13.57c1.5-2.13,2.61-4.57,3.7-6.95c1.82-3.99,4.13-7.66,6.57-11.28
	c0.77-1.14,1.23-2.48,1.79-3.75c2.96-6.63,6.38-13.05,9.79-19.42c4.18-7.8,8.35-15.68,13.56-22.89c2.67-3.69,4.53-7.85,7.21-11.55
	c1.37-1.89,2.58-4.14,4.18-5.67c4.4-4.23,7.85-9.28,12.23-13.52c3.04-2.94,6.16-5.8,8.61-9.38c2.39-3.51,6.28-5.7,9.5-8.42
	c4.91-4.14,10.57-7.38,15.84-11.1c3.58-2.53,7.52-4.48,11.19-6.89c5.34-3.5,10.84-6.78,16.22-10.25
	c5.36-3.46,11.06-6.41,16.31-10.07c4.35-3.03,9.16-5.15,14.11-7c0.95,0.49,1.92,0.98,2.92,1.49c0.13,1.82-1.69,2.27-2.43,3.46
	c-2.76,0.15-6.18,1.38-7.85,2.83c-2.28,1.97-5.09,2.99-7.77,4.18c-4.34,1.93-7.88,5.07-11.89,7.49c-2.67,1.61-5.33,3.24-7.94,4.95
	c-3.16,2.07-6.27,4.2-9.37,6.35c-6.31,4.38-12.54,8.83-18.18,14.09c-2.43,2.26-5.06,4.59-8.03,5.9c-3.12,1.38-5.31,3.56-7.58,5.81
	c-4.15,4.1-8.31,8.19-12.36,12.38c-4.36,4.5-8.02,9.58-11.72,14.62c-1.42,1.93-3.16,3.63-4.66,5.55c-1.96,2.51-3.7,5.18-5.66,7.65
	c-4.31,5.46-7.71,11.37-10.62,17.63c-0.41,0.87-1.13,1.56-0.94,2.62c-1.58,0.39-2.16,1.45-2,3c-1.5,0.09-0.85,1.24-1,2
	c-1.5,0.09-0.85,1.24-1,2c-0.48-0.08-0.78,0.14-0.89,0.59c-0.02,0.08,0.22,0.31,0.29,0.29c0.46-0.1,0.68-0.41,0.59-0.89
	c1.5-0.09,0.85-1.24,1-2c1.5-0.09,0.85-1.24,1-2c1.58-0.39,2.16-1.45,2-3c1.07-0.19,1.58-0.97,2.01-1.87
	c0.53-1.11,0.87-2.46,1.72-3.25c2.24-2.11,3.14-5.37,6.1-6.88c0.44-0.03,0.91,0.03,1.24,0.79c-2.08,3.26-4.23,6.7-6.45,10.09
	c-4.44,6.78-9.36,13.25-12.75,20.69c-0.28,0.6-0.85,1.47-1.86,1.44c0-1,0-2,0-3c0.48,0.08,0.78-0.14,0.89-0.59
	c0.02-0.08-0.22-0.31-0.29-0.29c-0.46,0.1-0.68,0.41-0.59,0.89c-2.8,3.23-3.93,7.36-5.95,11.01c-0.49,0.88-1.55,1.71-1.05,2.99
	c-1.5,0.09-0.85,1.24-1,2c-1.22,0.07-1.02,0.85-1.15,2.07c-0.07-0.01-0.17-0.01-0.3,0.02c-0.81,0.16-0.77,1.15,0.15,0.88
	c-0.09,0.78,0.29,0.49,0.27,0.45c-0.1-0.16-0.05-0.4,0.01-0.63c1.44-1,0.88-2.07,1.02-2.78c1.5-0.09,0.85-1.24,1-2
	c2.09-0.48,2.05-2.6,2.98-3.95c0.88-1.28,1.12-2.95,2.7-4.17c0.37,1.65,0.6,2.85-0.42,4.49c-2.19,3.53-3.13,7.76-6.03,10.94
	c-0.6,0.65-1.22,1.66-1.17,2.46c0.14,2.23-1.5,3.07-2.74,4.24c-0.58-0.02-1.14-0.04-1.13-1.08c0.07,0,0.14,0,0.25-0.02
	c0.81-0.16,0.77-1.15-0.15-0.88c0.09-0.78-0.29-0.49-0.27-0.45c0.15,0.25-0.05,0.69-0.08,1c-3.17,5.02-5.73,10.65-5.95,13.41
	c-1.5,0.09-0.85,1.24-1,2c-1.5,0.09-0.85,1.24-1,2c-1.5,0.09-0.85,1.24-1,2c-1.93,0.47-0.62,2.02-1,3c-1.55,1.52-2.27,3.5-3,5.67
	c2.28-1.18,4.83-1.49,6.99-2.71c2.11-1.19,4.5-1.52,6.71-1.81c2.87-0.37,5.46-1.25,8.18-2.04c5.14-1.5,9.8-3.93,14.15-6.84
	c1.75-1.17,3.08-1.41,4.88-1c-0.49,1.74-2.2,1.76-3.3,2.53c-4.45,3.12-9.25,5.57-14.47,7.28c-2.48,0.81-5.03,1.85-6.83,4.05
	c-0.59,0.73-1.21,1.48-2.2,1.89c-5.64,2.37-8.97,7.1-11.74,12.18c-2.53,4.63-4.78,9.38-7.68,13.84c-1.53,2.35-2.94,5.16-3.58,7.96
	c-0.73,3.17-3.11,5.38-3.77,8.47c-0.75,2.39-0.2,4.89-1.16,7.5c-1.03,2.78-0.11,6.02,1.18,8.86c0.19,0.41,0.76,0.63,0.64,1.24
	c-0.74,3.79,1.46,7.3,1.04,11.09c-0.12,1.06,0.18,2.09,0.63,3.21c0.85,2.14,1.9,4.46,1.33,6.95c-0.26,1.11,0.63,1.74,1.09,2.42
	c-3.64,6.95-3.64,6.95-9.97,7.64c0.32,0.49,0.65,0.99,0.83,1.26c0.23,1.12-0.64,1.3-0.89,1.91c0.07,0.07,0.19,0.29,0.3,0.29
	c2.31,0.02,4.63,0.02,6.97,0.02c1.46,1.89,3.59,2.57,5.55,3.53c0.55,1.28-0.63,1.69-1.22,2.45c-4.01,0.05-7.84,2.1-12.58,0.7
	c0.08,0.07-0.4-0.37-0.87-0.8c0.14-1.68,1.75-1.48,2.81-2.23c-0.24-0.19-0.46-0.49-0.68-0.49c-0.98-0.02-2.34-0.35-2.89,0.16
	c-1.66,1.55-3.45,0.33-4.95,0.91c-1.25-1.75,0.36-2.18,0.92-3.03c1.12-0.05,2.24-0.11,3.49-0.17c-0.2-0.43-0.32-0.87-0.41-0.86
	c-2.88,0.18-5.73-0.38-8.63,0.84c-2.22,0.94-4.6-0.59-6.84-1.35c0.21-0.24,0.42-0.47,0.76-0.85
	C127.79,282.06,124.66,283.23,122.87,281.4z M153.09,288.66c0.62,0.5,1.18,0.53,1.95-0.18
	C154.11,287.87,153.47,287.56,153.09,288.66z M195.47,127c0.47-0.32,0.47-0.66,0-0.98C195,126.34,195,126.67,195.47,127z
	 M193.98,128.51c0.32,0.47,0.66,0.47,0.98,0C194.64,128.04,194.3,128.04,193.98,128.51z M180.47,157c0.47-0.32,0.47-0.66,0-0.98
	C180,156.34,180,156.67,180.47,157z M179.47,159c0.47-0.32,0.47-0.66,0-0.98C179,158.34,179,158.67,179.47,159z M140.47,283.01
	c-0.47,0.32-0.47,0.66,0,0.98C140.94,283.67,140.94,283.34,140.47,283.01z M161.08,197.6c-0.02,0.08,0.22,0.31,0.29,0.29
	c0.46-0.1,0.68-0.41,0.77-0.62c1.38-2.09,5.49,0.06,5.9-4.96c-2.02,2.51-5.05,2.04-6.07,4.7
	C161.49,196.92,161.18,197.14,161.08,197.6z M159.76,203.02c1.95-0.79,3.92-1.64,5.28-3.9c-1.79-0.37-2.4,0.58-2.94,1.31
	c-0.84,1.16-2.31-0.04-3.07,0.99C158.91,202.11,158.83,202.76,159.76,203.02z M147.95,232.04c1-1.79,1.71-2.15,2.08-2.98
	c1.18-2.67,2.51-5.29,3.97-7.82c1.49-2.59,1.76-5.58,2.98-8.24c0.48,0.09,0.78-0.14,0.89-0.59c0.02-0.08-0.22-0.31-0.29-0.29
	c-0.46,0.1-0.68,0.41-0.6,0.89c-1.5-0.09-0.85-1.24-1-1.93c3.04-1.3,4.44-4,6.47-6.83c-3.28,0.45-4.71,2.6-6.47,4.26
	c0,0.85,0,1.68,0,2.51c-0.28,0.12-0.74,0.16-0.83,0.36c-1.93,4.68-3.42,9.53-5.91,14C148.37,226.93,148.49,229.04,147.95,232.04z
	 M147.47,233c0.47-0.32,0.47-0.66,0-0.98C147,232.34,147,232.67,147.47,233z M140.85,248.73c1.82,0.7,2.31-0.6,3.23-1.33
	c-1-3.58,1.18-6.7,2.17-11.47c0.05,0,0.09,0,0.16-0.01c0.69-0.14,0.75-0.86-0.09-0.36c0.09-0.48,0.18-0.97,0.24-1.48
	c-0.21,0.18-0.59,0.47-0.57,0.51c0.2,0.32-0.2,0.98-0.05,1.24c-0.05,0.04-0.09,0.06-0.14,0.1
	C143.46,239.92,142.46,244.39,140.85,248.73z M131.29,276.32c3.08,0.48,5.98,1.69,9.2,1.71c3.22,0.02,6.14-1.76,9.63-0.94
	c-0.82-6.86-1.58-13.22-2.41-20.21c-1.12,1.12-2.36,1.77-2.79,3.18c0.43,1.44,2.29,1.73,2.08,3.16c-0.37,1.02-1.14,0.88-1.72,0.75
	c-0.93-0.2-1.23,0.85-1.89,0.87c-2.21-0.82-0.6-3.66-2.56-4.63c-1.18-0.49-2.6,0.24-4.04-0.79c2.84-1.84,5.42-3.76,8.74-3.51
	c1.41-1.2,2.1-2.37,0.77-4.19c-3.62,2.05-7.25,4.1-10.71,6.07C132.97,263.7,132.7,269.93,131.29,276.32z M417.57,281.46
	c-1.3-2.66-3.85-0.94-5.73-1.98c-3.4-1.88-7.34-2.37-11.04-3.49c-4.3-1.3-8.77-1.98-13-3.61c-3.31-1.28-6.67-2.87-10.12-3.21
	c-4.14-0.41-7.9-2.7-12.15-2.16c-1.4-1.81-3.74-0.21-4.99-1.14c-1.76-1.3-3.47-0.61-5.18-0.85c-0.65-0.09-1.4,0.13-1.95-0.12
	c-4.01-1.82-8.48-1.95-12.54-3.52c-4.09-1.58-8.5-1.84-12.63-3.28c-1.22-0.43-2.91-0.49-4.24,0.31c-0.26,1.31,0.78,1.78,1.4,2.51
	c5.59,0.07,10.64,2.37,15.88,3.88c3.88,1.12,7.81,2.52,11.7,2.99c5.85,0.7,11.5,2.11,17.21,3.28c5.31,1.09,10.65,2.3,15.66,4.4
	c5.75,2.4,12.07,2.79,17.74,5.46c1.19,0.56,2.86,0.08,4.2,0.08c0.19,0.88,0.33,1.35-0.4,2.08c-3.05-1.14-6.32,2.54-9.76-0.05
	c-0.21-0.16-0.79-0.17-0.96,0c-1.82,1.75-4.1,1.06-6.1,0.9c-4.94-0.4-9.67,1.62-14.59,1.08c-0.16-0.02-0.42-0.07-0.49,0.01
	c-1.75,2-4.4,0.08-5.99,1.16c-2.11,1.43-4.15,0.49-6.19,0.81c-0.81,0.13-1.89-0.31-2.46,0.08c-2.27,1.54-4.74,0.86-7.12,0.9
	c-2.43,0.04-4.54,1.49-7.09,1.1c-4.22-0.65-8.29,1.68-12.57,0.94c-1.7,1.23-3.75,0.65-5.56,1.09c-2.22,0.54-4.72,0.81-5.95,2.69
	c-4.84,0.77-9.5-0.77-13.91,1.21c-5.25-0.57-10.39,0.68-15.58,1.01c-4.2,0.27-8.51-0.84-12.58,0.99c-2.2-0.7-3.94,1.18-6.09,1.04
	c-2.23-0.15-4.55-0.44-6.58,0.96c-4.58-0.41-9.1,1.02-13.58,0.87c-10.08-0.33-20.03,1.68-30.08,1.13c-0.33-0.02-0.74-0.13-0.99,0.02
	c-3.64,2.19-7.83,0.46-11.75,1.79c-3.39,1.15-7.3,0.22-11.06,1.01c-4.47,0.93-9.09,1.63-13.64,2.02c-4.64,0.4-8.99,2.26-13.65,2.17
	c-1.69,2.07-4.25,0.9-6.35,1.5c-2.95,0.84-6.08,2.06-9.15,1.44c-0.56-0.39-0.92-0.74-1.35-0.93c-4.89-2.2-10.24-2.62-15.33-4.04
	c-4.78-1.33-9.67-2.21-14.41-3.81c-2.46-0.83-5.06-1.91-7.62-2.04c-4.18-0.22-8.09-1.58-12.17-2.05c-1.6-0.18-2.8-1.39-4.59-1.13
	c-2.55,0.38-4.87-1-7.3-1.6c-5.27-1.32-10.34-3.26-15.66-4.52c-3.25-0.77-6.61-1.58-9.86-2.63c-6.08-1.96-12.48-2.96-18.79-4.12
	c-2.33-0.43-4.51-1.2-6.77-1.78c-4.51-1.16-8.69-3.15-12.98-4.88c-1.97-0.79-4.05-1.74-6.42-1.45c-3.54,0.44-6.81-1.54-10.46-1.07
	c0.19-0.87-0.09-1.43,0.73-1.89c2.06,0,4.42-0.26,6.69,0.07c2.39,0.34,4.28-1.44,6.6-1.08c3.77,0.58,7.29-1.75,11.08-0.99
	c2-1.56,4.63-0.28,6.48-1.22c1.5-0.76,2.87-0.93,4.17-0.69c1.68,0.31,2.6-1.26,4.1-1.11c1.36,0.14,2.82-0.27,3.99,0.79
	c1.34-1.58,3.14-0.77,4.67-0.69c1.86,0.1,3.46-1.09,5.08-0.99c5.27,0.35,10.39-1.05,15.59-1.03c4.9,0.01,9.65-1.82,14.58-1.06
	c2.39-1.4,5.13-0.5,7.56-1.11c3.38-0.85,6.7-1.66,10.19-1.97c1.68-0.15,3.26-1.06,5.09-1.05c0.55,0,2.17-1.1,1.16-2.78
	c-3.48-0.6-6.91,0.76-10.3,1.29c-3.41,0.53-6.71,1.87-10.27,1.63c-0.66-0.04-1.5-0.26-1.97,0.04c-2.09,1.34-4.39,1.08-6.61,0.9
	c-2.33-0.18-4.4,0.83-6.59,1c-6.02,0.47-12.08-0.59-18.1,0.95c-2.35,0.6-5.01,0.37-7.46,0.02c-2.56-0.36-4.66,1.17-7.1,1.09
	c-2.41-0.07-4.74,0.34-7.12,0.79c-1.85,0.35-3.55,1.38-5.55,1.23c-3.23-0.24-6.28,1.68-9.58,0.96c-3.61,2.3-8.05-0.24-11.67,2
	c-6.03,0.04-12.08-0.41-18.32,1.49c-0.13,0.13-0.55,0.59-0.98,1.05c2.85,2.71,3.07,2.17,6.57,3.65c2.43,1.03,5.24-0.21,7.25,1.81
	c2.51-0.74,4.63,1.27,7.09,1.01c4.1-0.42,7.77,1.1,11.33,2.8c3.35,1.6,7.23,1.85,10.26,4.19c4.11-0.6,7.72,1.61,11.64,2.19
	c2.24,0.33,4.63,0.61,6.9,1.3c4.46,1.36,9.09,2.17,13.53,3.56c4.74,1.49,9.63,2.4,14.39,3.82c4,1.2,7.93,2.64,12.18,3.35
	c5.8,0.97,11.7,2.06,17.36,3.83c3.41,1.07,6.92,1.65,10.31,2.83c4.1,1.43,8.48,2.06,12.71,3.12c1.67,0.42,3.24,1.3,5.05,1.08
	c2,2.56,5.34,2.51,7.81,4.02c1.47,0.89,2.91,1.2,4.13,0.79c3.43-1.15,7.04-1.43,10.48-2.45c4.09-1.21,8.3-1.83,12.49-2.36
	c3.18-0.4,6.41-0.88,9.54-1.34c4.22-0.62,8.52-0.83,12.7-1.78c2.83-0.64,5.65-1.33,8.59-0.99c1.49-1.84,3.83-0.29,5.44-1.33
	c1.86-1.19,3.88-0.8,5.72-0.57c2.11,0.26,3.65-1.07,5.6-1.14c6.03-0.22,12.07,0.56,18.11-0.83c3.16-0.73,6.64-0.06,9.97-0.15
	c3.05-0.08,6.03,0.05,9.13-0.81c3.01-0.83,6.34-0.2,9.57-1.04c2.73-0.71,5.68-0.19,8.59-0.98c2.87-0.77,6.14,0.31,9.04-1.15
	c5.91,0.61,11.65-1.58,17.58-1.03c4.89,0.45,9.64-1.72,14.58-0.98c0.3,0.05,0.67,0.01,0.94-0.12c2.76-1.31,5.78-1.41,8.69-2.03
	c3.07-0.65,6.06-0.8,9.12-0.84c0.83-0.01,1.86,0.31,2.46-0.06c2.12-1.3,4.4-1.07,6.61-0.89c2.33,0.18,4.4-0.73,6.59-1.01
	c2.69-0.35,5.54,0.59,8.08-1.04c4.99,0.05,9.81-1.12,14.67-1.96c2.02-0.35,4.04,0.03,6.14-0.89c1.77-0.77,4.18,0.34,6.02-1.14
	c4.26,0.54,8.3-1.53,12.59-1.04c2.14,0.24,4.34-0.08,6.49,0.08c1.63,0.13,2.48-1.32,3.9-1.48
	C417.86,283.41,418.28,282.25,417.57,281.46z M319.09,18.54c2.66,7.25-2.27,11.64-6.07,16.05c-1.2,0.77-2.39-0.14-3.05,0.96
	c-0.26,1.36,1.71,2.09,0.65,4.26c-0.43,0.33-1.47,1.12-2.93,2.23c-1.47,0.29-3.73,0.48-4.72,2.94c-0.6,0.03-1.19,0.07-1.67,0.11
	c-0.45,0.74-0.49,1.29,0.04,1.79c0.78-0.44,1.49-0.91,1.64-1.9c1.03,0.2,1.86-0.18,2.61-1.01c-0.04,1.89,1.91,2.52,2.3,3.49
	c0.2,1.37-0.7,1.54-1,2.41c0.46,1.25,1.7,2.57,0.66,4.99c-2.72,2.32-4.44,6.42-7.46,9.53c0.31,0.48,0.63,0.97,0.96,1.5
	c-0.51,1.68-2.27,2.29-2.98,3.72c0.89,1.1,2.66,1.75,1.48,4.21c-2.34,1.82-3.47,5.52-6.54,7.53c0,1.4,0,2.71,0,4.16
	c-2.9,2.5-5.04,5.93-9.1,7.64c0.68,5.39-0.58,10.4-3.54,14.83c-0.87,1.3-1.96,3.02-4.49,3.06c2.51-4.44,4.09-8.86,5.34-13.95
	c-6.21,2.1-12.05,4.11-17.9,6.06c-3.36,1.12-6.37,3-9.82,4.01c-3.3,0.97-5.85,3.65-8.53,5.86c-0.13-0.95,0.31-1.97-0.29-2.79
	c-14.89,9.28-30.32,17.6-44.82,27.01c-0.93-0.59-0.9-1.09-0.89-1.58c6.46-4.57,13.54-8.24,19.1-14.11c3.02-3.19,7.03-5.31,10.85-7.5
	c6.98-4,13.95-8.09,21.21-11.52c4.28-2.02,8.48-4.4,13.18-5.59c1.43-0.36,2.96-1.2,4.1-2.05c3.17-2.36,6.72-4.03,10.16-5.74
	c4.46-2.23,8.28-5.2,12.01-8.33c2.54-2.13,4.75-4.67,7.4-7.32c-1.69-1.16-2.14-3.11-2.85-4.13c-0.49-2.23,1.85-3.1,0.58-4.79
	c3.55-2.49,5.37-6.25,8.81-9.78c-6.02,1.75-11.07,4.47-16.84,4.19c-2.86,2.69-6.54,4.26-9.81,6.4c-3.56,2.32-6.74,4.92-9.69,7.91
	c-0.33,0.33-0.57,0.87-1.2,0.71c0.11-0.63-0.27-0.87-1.04-1.06c-2.6,1.51-3.59,4.46-5.43,6.71c-1.79,2.19-2.6,5.68-6.72,6.6
	c1.25-3.44,3.09-5.84,5.02-7.58c0.51-1.52-0.96-1.67-0.76-3.18c0.52-1.74,2.93-2.33,4.49-3.32c7.25-4.59,14.4-9.37,21.75-13.77
	c3.58-2.14,7.18-4.31,10.82-6.38c0.86-0.49,1.68-0.94,1.87-2.01c0.76-0.15,1.91,0.5,2-1c0.48,0.08,0.78-0.14,0.89-0.59
	c0.02-0.08-0.22-0.31-0.29-0.29c-0.46,0.1-0.68,0.41-0.59,0.89c-0.76,0.15-1.92-0.49-2,1c-1.06-0.18-1.74,0.52-2.61,0.93
	c-4.31,2.03-8.74,3.74-12.98,5.98c-8.15,4.3-16.6,8.04-24.88,12.12c-1.98,0.98-3.84,2.04-6.1,1.96c-0.74-0.95,0.32-1.08,0.6-1.49
	c0.36-0.54,0.84-1.21,1.4-1.39c3.75-1.16,6.6-3.93,10.22-5.41c7.68-3.15,14.33-8.15,21.05-12.96c2.51-1.8,5.81-2.65,7.3-5.76
	c3.08-0.13,4.5-2.7,5.9-4.68c2.45-3.48,5.01-6.89,7.63-10.24c1.6-2.04,2.58-4.71,5.88-6.34c-3.11,6.81-7.86,11.65-11.4,17.26
	c-0.48-0.08-0.78,0.14-0.89,0.59c-0.02,0.08,0.22,0.31,0.29,0.29c0.46-0.1,0.68-0.41,0.59-0.89c0.81,0.01,1.48-0.05,2.24-0.66
	c2.33-1.87,3.77-4.49,5.44-6.78c2.56-3.51,5.09-6.98,8.23-9.95c-0.1-0.66-1.06-0.78-0.82-1.85c4-2.24,6.23-6.9,10.62-8.82
	c0.59-1.77,0.39-3.24-0.57-4.6c0.7-0.77,1.6-0.04,2.31-0.44c0.55,1.05,1.05,2,1.52,2.9C326.27,14.51,321.2,15.12,319.09,18.54z
	 M314.52,23.8c-3.37,4.38-5.42,9.33-9.29,13.01c3.1-0.83,4.62-3.48,6.73-5.41C311.69,28.6,316.12,27.37,314.52,23.8z M183.44,182.12
	c0.91-1.66,2.55-2.23,3.98-2.96c5.61-2.87,11.41-5.38,17.04-8.2c3.48-1.74,7.02-3.05,10.78-4.13c3.74-1.07,7.65-1.29,11.29-2.79
	c5.01-2.06,10.58-3.22,12.49-9.43c0.26-0.84,1.2-1.63,2.01-2.13c2.24-1.38,4.58-2.59,6.84-3.84c0.68-3.86,4.13-5.66,6.15-8.4
	c-0.29-0.78,0.49-1.75-0.66-2.14c-0.48,0.48-0.95,0.95-1.42,1.42c-3.76,3.76-9.17,6.97-14.99,9.57c-1.75,0.78-3.68,1.75-4.96,3.43
	c0.27,0.27,0.51,0.51,1.01,1.01c-3.1,2.79-6.83,3.98-10.4,5.47c-4.54,1.89-9.33,3.13-13.68,5.52c-5.68,3.12-11.38,6.22-17.17,9.13
	c-3.22,1.62-5.88,3.82-8.33,6.38C182.9,180.59,182.8,181.12,183.44,182.12z M255.78,129.31c0.78,2.75-0.27,5.13-1.77,7.46
	c3.27-0.05,3.03-0.17,4.03-2.26c1.11-2.32,0.83-4.69,0.95-7.02c1.46-1.46,2.63-3.5,4.33-4.15c3.7-1.41,5.95-4.33,8.41-7.14
	c-4.45,1.45-8.21,4.16-12.38,6.06c-7.77,3.54-8.93,4.65-11.03,7.75C250.88,130.1,253.19,128.04,255.78,129.31z M156.96,257.37
	c0.03,0.53,0.04,0.86,0.08,1.73c4.99-0.55,9.69,0.66,14.36-0.98c1.92-0.67,4.47,0.43,6.39-0.25c2.24-0.8,4.43-1.1,6.6-0.78
	c2.25,0.34,3.93-1.3,6.08-1.12c1.7,0.15,1.71-0.02,4.29-1.75C181.93,253,169.48,255.71,156.96,257.37z M245.82,61.91
	c-2.69,1.92-5.42,4.08-7.96,6.6c-2.56,2.54-4.56,5.52-7.04,8.08c-2.59,2.67-4.72,5.64-6.9,8.63c-2.02,2.77-4.72,5.04-6.32,8.94
	c1.89-0.92,2.77-1.71,3.79-2.84c3.06-3.4,5.59-7.24,9.01-10.33c3.01-2.72,5.54-6.02,8-9.2c2.57-3.32,5.54-6.03,8.57-8.81
	C247.09,62.37,246.69,62.14,245.82,61.91z M278.18,44.52c-0.47,0.54-1.6,1.65-1.22,2.95c0.13,0.45-0.19,1,0.64,1.56
	c3.65-5.97,8.34-11.27,11.91-18.53C283.72,34.48,281.86,40.22,278.18,44.52z M282.89,45.28c0.51,0.86,1.05,0.69,1.52,0.72
	c2.1-2.55,3.36-5.61,5.19-8.34c1.66-2.47,3.71-4.92,4.4-8.66c0.46,0.07,0.75-0.15,0.85-0.59c0.02-0.08-0.22-0.31-0.29-0.29
	c-0.2,0.04-0.34,0.13-0.45,0.25c0.01-0.04,0.02-0.08,0.02-0.12C289.28,33.85,286.27,39.79,282.89,45.28z M251.24,117
	c1.83-1.01,2.7-3.2,4.73-3.99c-0.04-0.49,0.06-0.93,0.66-0.79c0.16,0.04,0.23,0.52,0.34,0.79c1.75-0.68,2.58-2.4,4.07-3.48
	c-1.15-0.57-2.23-1.1-3.4-1.68c-2.6,2.59-5.15,5.12-7.66,7.68c-0.16,0.17-0.02,0.64-0.02,0.96
	C250.28,116.94,250.72,117.06,251.24,117z M299.97,29.01c-5.35,3.84-8.61,9.28-12.07,15c1.07,0,1.57,0,2.07,0
	c2.4-4.58,5.85-8.42,9.02-12.44C299.65,30.73,300.11,30.04,299.97,29.01z M269.92,49.51c-0.45,0.8-1.67,1.31-0.31,2.62
	c3.8-5.06,7.59-10.09,11.35-15.15c0.16-0.21,0.02-0.65,0.02-0.98C277.66,38.73,272.15,45.56,269.92,49.51z M224.58,141.01
	c-2.2,3.77-6.03,6.46-7.31,10.8c0.46,0.46,0.8,0.8,1.29,1.29c2.57-3.84,5.11-7.65,7.55-11.3
	C225.57,140.91,225.06,141.02,224.58,141.01z M225.73,150.01c2.53-2.37,6.65-8.8,6.96-10.97c-3.36,2.21-4.54,6.26-7.76,8.39
	C225.33,148.31,224.2,149.57,225.73,150.01z M233.28,146.86c0.37,0.04,0.82,0.09,1.09,0.12c2.29-3.91,4.51-7.71,7.25-12.37
	C237.23,138.17,232.43,145.45,233.28,146.86z M284.53,65.9c-2.24,2.65-4.41,5.19-6.54,7.76c-0.14,0.17,0.04,0.62,0.11,1.44
	C282.62,72.9,284.91,69.59,284.53,65.9z M170.97,177.01c-0.15,0.76,0.5,1.91-1,2c-0.15,0.76,0.5,1.91-1,2c-0.38,0.98,0.93,2.53-1,3
	c0.22,0.95,0.79,1.55,1.73,1.85c0.69-2.8,1.6-5.39,2.74-7.94c0.87-1.95,2.67-3.54,2.53-5.91c-1.15,0.32-1.9,0.98-2.02,2.26
	c-0.05,0.49-0.38,0.86-0.98,0.74C171.82,175.76,172.47,176.92,170.97,177.01z M245.51,134.59c-2.78,1.86-3.97,4.55-5.92,6.91
	C242.78,141.71,244.14,140.08,245.51,134.59z M213.6,154.07c1.87-2.82,3.74-5.64,5.61-8.46c-0.31-0.24-0.63-0.47-0.94-0.71
	C216.32,147.73,213.65,150.16,213.6,154.07z M238.29,119.18c-0.62,0.52-0.2,1.22-0.32,1.82c2.35-1.23,3.72-3.53,5.68-5.18
	c0.62-0.52,0.2-1.22,0.32-1.82C241.62,115.23,240.25,117.53,238.29,119.18z M245.52,117.99c-1.35,0.02-2.38,1.09-3.49,1.41
	c-0.13,0.91,0.05,1.31,0.48,1.6C243.66,119.85,244.57,118.94,245.52,117.99z M269.97,74.01c-1.58,0.39-2.16,1.45-2,3
	C269.55,76.61,270.13,75.56,269.97,74.01z M280.99,36.16c1.09-0.74,2.43-1.17,1.73-3.11C281.43,33.72,280.75,34.58,280.99,36.16z
	 M263.97,77.01c1.58-0.39,2.16-1.45,2-3C264.39,74.4,263.81,75.45,263.97,77.01z M260.97,81.01c1.58-0.39,2.16-1.45,2-3
	C261.39,78.4,260.81,79.45,260.97,81.01z M265.97,80.01c1.58-0.39,2.16-1.45,2-3C266.39,77.4,265.81,78.45,265.97,80.01z
	 M272.97,70.01c-1.58,0.39-2.16,1.45-2,3C272.55,72.61,273.13,71.56,272.97,70.01z M190.52,138.09c-0.81,0.16-0.77,1.15-0.15,1.84
	c0.21-0.18,0.59-0.47,0.57-0.51C190.67,138.98,191.54,137.89,190.52,138.09z M272.52,76.09c-0.81,0.16-0.77,1.15-0.14,1.85
	c0.2-0.19,0.59-0.48,0.56-0.52C272.67,76.98,273.54,75.89,272.52,76.09z M265.52,80.09c-0.81,0.16-0.77,1.15-0.14,1.85
	c0.2-0.19,0.59-0.48,0.56-0.52C265.67,80.98,266.54,79.89,265.52,80.09z M273.97,75.01c0.69,0.03,1.03-0.31,1-1
	C274.28,73.98,273.94,74.31,273.97,75.01z M174.97,172c0.48,0.09,0.78-0.14,0.89-0.59c0.02-0.08-0.22-0.31-0.29-0.29
	C175.11,171.22,174.89,171.52,174.97,172z M260.97,81.01c-0.48-0.09-0.78,0.13-0.89,0.59c-0.02,0.08,0.22,0.31,0.29,0.29
	C260.83,81.79,261.05,81.49,260.97,81.01z M272.97,76.01c0.69,0.03,1.03-0.31,1-1C273.28,74.98,272.94,75.31,272.97,76.01z
	 M262.97,78.01c0.69,0.03,1.03-0.31,1-1C263.28,76.98,262.94,77.31,262.97,78.01z M247.86,81.41c0.02-0.08-0.22-0.31-0.29-0.29
	c-0.46,0.1-0.68,0.41-0.59,0.89C247.45,82.09,247.76,81.87,247.86,81.41z M275.86,73.41c0.02-0.08-0.22-0.31-0.29-0.29
	c-0.46,0.1-0.68,0.41-0.59,0.89C275.45,74.09,275.76,73.87,275.86,73.41z M270.97,73.01c-0.69-0.03-1.03,0.31-1,1
	C270.66,74.03,271,73.7,270.97,73.01z M276.08,71.6c-0.02,0.08,0.22,0.31,0.29,0.29c0.46-0.1,0.68-0.41,0.59-0.89
	C276.49,70.92,276.18,71.14,276.08,71.6z M277.86,70.41c0.02-0.08-0.22-0.31-0.29-0.29c-0.46,0.1-0.68,0.41-0.59,0.89
	C277.45,71.09,277.76,70.87,277.86,70.41z M237.97,121.01c-0.48-0.09-0.78,0.13-0.89,0.59c-0.02,0.08,0.22,0.31,0.29,0.29
	C237.83,121.79,238.05,121.49,237.97,121.01z M273.57,69.11c-0.46,0.1-0.68,0.41-0.59,0.89c0.48,0.09,0.78-0.14,0.89-0.59
	C273.88,69.33,273.64,69.1,273.57,69.11z M256.31,113.8c0.6,0.14,0.7-0.31,0.66-0.79c-0.33,0-0.67,0-1,0
	C256.08,113.28,256.14,113.76,256.31,113.8z M243.97,114.01c0.69,0.03,1.03-0.31,1-1C244.28,112.98,243.94,113.31,243.97,114.01z
	 M240.08,89.6c-0.02,0.08,0.22,0.31,0.29,0.29c0.46-0.1,0.68-0.41,0.59-0.89C240.49,88.92,240.18,89.14,240.08,89.6z M300.97,28.01
	c-0.69-0.03-1.03,0.31-1,1C300.66,29.03,301,28.7,300.97,28.01z M245.98,88.51c0.32,0.47,0.66,0.47,0.98,0
	C246.64,88.04,246.3,88.04,245.98,88.51z M241.97,88.01c-0.69-0.03-1.03,0.31-1,1C241.66,89.03,242,88.7,241.97,88.01z
	 M242.86,87.41c0.02-0.08-0.22-0.31-0.29-0.29c-0.46,0.1-0.68,0.41-0.59,0.89C242.45,88.09,242.76,87.87,242.86,87.41z M244.08,84.6
	c-0.02,0.08,0.22,0.31,0.29,0.29c0.46-0.1,0.68-0.41,0.59-0.89C244.49,83.92,244.18,84.14,244.08,84.6z M244.97,84.01
	c0.69,0.03,1.03-0.31,1-1C245.28,82.98,244.94,83.31,244.97,84.01z M245.97,83.01c0.69,0.03,1.03-0.31,1-1
	C246.28,81.98,245.94,82.31,245.97,83.01z M301.86,27.41c0.02-0.08-0.22-0.31-0.29-0.29c-0.46,0.1-0.68,0.41-0.59,0.89
	C301.45,28.09,301.76,27.87,301.86,27.41z M277.09,256.65c0.58,0.54,1.14,0.51,1.96-0.15C278.14,255.86,277.5,255.57,277.09,256.65z
	 M147.04,268.81c-0.22-1.07,0.24-1.91-0.45-2.71c-1.02,0-2.12,0-3.21,0c-0.47,0.47-0.93,0.93-1.33,1.33
	C143.11,269.37,144.86,269.14,147.04,268.81z M146.88,271.76c0-0.53,0-0.98,0-1.51c-1.3-0.4-2.52-0.38-3.83,0c0,0.53,0,0.98,0,1.51
	C144.35,272.16,145.57,272.14,146.88,271.76z M145.46,273.01c-0.71,0.68-0.73,1.34,0.03,2.01c0.46-0.07,1,0.21,1.35-0.4
	c0.27-0.6,0.21-1.16-0.39-1.61C146.12,273.01,145.8,273.01,145.46,273.01z"/>
</svg>
