<?xml version="1.0" encoding="utf-8"?>
<!-- Generator: Adobe Illustrator 27.0.1, SVG Export Plug-In . SVG Version: 6.00 Build 0)  -->
<svg version="1.1" id="レイヤー_1" xmlns="http://www.w3.org/2000/svg" xmlns:xlink="http://www.w3.org/1999/xlink" x="0px"
	 y="0px" viewBox="0 0 26 33" style="enable-background:new 0 0 26 33;" xml:space="preserve">
<style type="text/css">
	.st0{fill:#28323A;}
	.st1{fill:#FFFFFF;}
	.st2{fill:url(#SVGID_1_);}
	.st3{display:none;fill:#E1BB00;}
	.st4{fill:#D6D1C7;}
	.st5{display:none;}
	.st6{display:none;fill:#945C9E;}
	.st7{fill:#AA0000;}
</style>
<g>
	<path class="st0" d="M24,0H2C0.9,0,0,0.9,0,2v5l0,0l0,0v17c0,1.1,0.9,2,2,2h7.5l3.5,7l3.5-7H24c1.1,0,2-0.9,2-2V2
		C26,0.9,25.1,0,24,0z"/>
</g>
<path class="st1" d="M10.4,25.6C10.2,25.2,9.9,25,9.5,25H2c-0.6,0-1-0.4-1-1V2c0-0.6,0.4-1,1-1h22c0.6,0,1,0.4,1,1v22
	c0,0.6-0.4,1-1,1h-7.5c-0.4,0-0.7,0.2-0.9,0.6L13,30.8L10.4,25.6z"/>
<linearGradient id="SVGID_1_" gradientUnits="userSpaceOnUse" x1="13" y1="-2418.4998" x2="13" y2="-2391.9998" gradientTransform="matrix(1 0 0 -1 0 -2389.9998)">
	<stop  offset="0.2" style="stop-color:#FFFFFF"/>
	<stop  offset="0.8" style="stop-color:#D2E6EE"/>
</linearGradient>
<path class="st2" d="M11.3,25.1c-0.3-0.7-1-1.1-1.8-1.1H2V2h22v22h-7.5c-0.8,0-1.5,0.4-1.8,1.1L13,28.5L11.3,25.1z"/>
<path class="st3" d="M13.5,16.3c-3.6,0-6.5-3-6.5-6.6s2.9-6.6,6.6-6.6s6.6,2.9,6.6,6.6S17.2,16.3,13.5,16.3z M15.9,8.4
	C15.8,8.4,15.8,8.4,15.9,8.4c-0.2,0-0.4,0.1-0.4,0.3c-0.8,1.6-1.2,3.5-1.3,5.9c0,0.2,0.1,0.3,0.2,0.4c0.1,0.1,0.2,0.1,0.3,0.1h0.1
	c0.1,0,0.2-0.1,0.3-0.1c0.2-0.1,0.3-0.2,0.4-0.4c0.2-1.8,1-3.2,1.7-4c0.1-0.1,0.1-0.3,0.1-0.5C17,9.5,16.6,9,16.2,8.5
	C16.1,8.4,16,8.4,15.9,8.4z M11.2,8.4c-0.1,0-0.3,0.1-0.4,0.2c-0.4,0.5-0.7,1-0.9,1.5c-0.1,0.2,0,0.3,0.1,0.5c0.7,0.8,1.5,2.2,1.7,4
	c0,0.2,0.2,0.4,0.4,0.4c0.1,0,0.2,0.1,0.3,0.1h0.1c0.1,0,0.2,0,0.3-0.1s0.2-0.2,0.2-0.4c-0.1-2.4-0.5-4.4-1.3-5.9
	C11.6,8.5,11.5,8.4,11.2,8.4C11.3,8.4,11.2,8.4,11.2,8.4z M18.5,10.1c-0.1,0-0.2,0-0.3,0.1c-0.6,0.6-1.5,1.7-1.9,3.2
	c-0.1,0.2,0,0.4,0.2,0.5c0.1,0.1,0.2,0.1,0.3,0.1c0.1,0,0.2,0,0.3-0.1c1-0.8,1.7-2,2-3.3c0-0.2-0.1-0.4-0.3-0.5
	C18.6,10.2,18.5,10.1,18.5,10.1z M8.6,10.1c-0.1,0-0.2,0-0.2,0.1c-0.2,0.1-0.3,0.3-0.3,0.5c0.2,1.3,0.9,2.4,2,3.3
	c0.1,0.1,0.2,0.1,0.3,0.1s0.2,0,0.3-0.1c0.2-0.1,0.3-0.3,0.2-0.5C10.5,12,9.6,10.9,9,10.3C8.9,10.2,8.8,10.1,8.6,10.1z M17.4,6.1
	c-0.1,0-0.3,0.1-0.4,0.2c-0.2,0.2-0.5,0.6-0.7,0.9c-0.1,0.2-0.1,0.5,0.1,0.6c0.4,0.4,0.8,0.9,1.1,1.4c0.1,0.1,0.2,0.2,0.3,0.3h0.1
	c0.1,0,0.2,0,0.3-0.1c0.2-0.1,0.3-0.3,0.5-0.4c0.2-0.1,0.2-0.3,0.2-0.5c-0.2-0.8-0.5-1.6-1.1-2.3C17.7,6.1,17.6,6.1,17.4,6.1
	L17.4,6.1z M9.6,6.1c-0.1,0-0.3,0.1-0.4,0.2c-0.5,0.6-0.8,1.4-1,2.2c0,0.2,0,0.4,0.2,0.5s0.3,0.2,0.5,0.4C9,9.5,9.1,9.5,9.2,9.5h0.1
	c0.1,0,0.3-0.1,0.3-0.3c0.3-0.5,0.6-1,1.1-1.4c0.2-0.2,0.2-0.5,0.1-0.7c-0.3-0.4-0.5-0.7-0.7-0.9C9.9,6.1,9.8,6.1,9.6,6.1L9.6,6.1z
	 M13.5,4.2c-0.9,0-1.7,0.2-2.5,0.6c-0.1,0.1-0.2,0.2-0.3,0.3c0,0.2,0,0.3,0.1,0.4c0.8,0.9,1.6,2,2.2,3.6c0.1,0.2,0.3,0.3,0.5,0.3
	s0.4-0.1,0.5-0.3c0.6-1.6,1.4-2.7,2.2-3.6c0.1-0.1,0.1-0.3,0.1-0.4S16.2,4.8,16,4.8C15.3,4.4,14.4,4.2,13.5,4.2z"/>
<path class="st4" d="M8.6,1.5L2,12.9h13.2L8.6,1.5z M8.6,8.7l1.6-2.4l0.3,0.5L8.6,9.7L6.7,6.8L7,6.3L8.6,8.7z M7.2,6l0.3-0.6h2.2
	L10,6H7.2z M8.6,10.6l0.8-1.1l1.4,2.5H6.4l1.4-2.5L8.6,10.6z M9.7,9l1.1-1.7l2.7,4.6h-2.1L9.7,9z M9.4,4.9H7.8l0.8-1.4L9.4,4.9z
	 M6.4,7.3L7.5,9l-1.7,3H3.7L6.4,7.3z"/>
<path class="st5" d="M11.3,4.2l-0.6,2.5L9.4,8L8.1,6.7L7.5,4.2l1.9-1.3L11.3,4.2z M16,6.5c0-0.1-0.1-0.3-0.2-0.7
	c-0.1-0.4-0.3-1-0.4-1.3c0-0.3-0.2-0.5-0.5-0.5s-0.5,0.2-0.5,0.5c0,0.4,0.2,0.9,0.3,1.3c0,0.2,0,0.4,0,0.7c0-0.1-0.1-0.1-0.2-0.2
	c-0.2-0.2-0.5-0.6-0.6-0.8c-0.1-0.3-0.4-0.4-0.6-0.3C13,5.3,12.9,5.6,13,5.8c0.1,0.4,0.5,0.8,0.7,1.2c0.1,0.1,0.2,0.2,0.2,0.3
	c0.1,0.3,0,1.2-0.1,1.7c-0.1,0.1-0.2,0.2-0.2,0.3c0-0.3-0.3-1.2-0.4-1.3c-0.1-0.2-0.2-0.3-0.5-0.5c-0.2-0.1-0.4-0.3-0.5-0.5
	c-0.2-0.2-0.5-0.3-0.7-0.1s-0.3,0.5-0.1,0.7s0.5,0.5,0.7,0.6c0.1,0.1,0.1,0.1,0.2,0.2c0.1,0.2,0.2,0.7,0.3,0.9
	c-0.1,0.2-0.5,1.1-1.2,1.1c-0.3-0.1-0.4-0.3-0.5-0.6c0-0.5,0-0.9,0-0.9c0-0.3-0.3-0.5-0.5-0.5c-0.3,0-0.5,0.3-0.5,0.5
	c0,0,0,0.4,0,0.9l0,0c0,0.2,0,0.4-0.1,0.5c-0.1,0.6,0,1.4,0.1,2.2c0.1,0.4,0.1,0.8,0.1,1c0,0.4,0,0.7,0,0.9c0,0.4,0,0.7,0.1,0.9
	c0.2,0.3,0.6,0.3,1,0.3c0.5,0,1-0.1,1-0.1c0.4-0.1,0.6-0.3,0.7-0.6c0,0,0-0.1,0-0.2c0-0.4,0.1-1.6,0.6-2.3c0.2-0.3,0.6-0.7,1-1.2
	c1.2-1.4,1.5-1.8,1.6-2C16,9.2,16,6.7,16,6.5z M9,9.9L9,9.9C9,9.4,9,9,9,9c0-0.3-0.2-0.5-0.5-0.5S8,8.7,8,9c0,0,0,0.5,0,0.9
	c-0.1,0.3-0.2,0.5-0.5,0.6c-0.8,0-1.2-0.9-1.2-1.1c0-0.2,0.2-0.7,0.3-0.9c0,0,0.1-0.1,0.2-0.2C7,8.1,7.3,7.9,7.5,7.7
	C7.7,7.5,7.6,7.2,7.4,7S6.9,6.9,6.7,7.1C6.6,7.3,6.4,7.4,6.2,7.6S5.8,7.9,5.7,8.1c0,0.1-0.3,0.9-0.4,1.3C5.2,9.3,5.2,9.2,5.1,9.1
	C4.9,8.5,4.8,7.6,4.9,7.3c0-0.1,0.2-0.2,0.2-0.3c0.3-0.3,0.6-0.8,0.7-1.2c0.2-0.2,0-0.5-0.3-0.6C5.2,5.1,4.9,5.3,4.9,5.5
	C4.8,5.7,4.5,6.1,4.3,6.3C4.2,6.4,4.2,6.4,4.1,6.5c0-0.3,0-0.5,0-0.7c0.1-0.4,0.3-0.9,0.3-1.3C4.4,4.2,4.2,4,3.9,4S3.4,4.2,3.4,4.5
	S3.2,5.4,3,5.8C2.9,6.2,2.8,6.3,2.8,6.5s0,2.7,0.1,3c0.1,0.2,0.4,0.7,1.6,2c0.4,0.5,0.7,0.9,1,1.2C6,13.4,6.1,14.6,6.1,15
	c0,0.1,0,0.1,0,0.2c0,0.3,0.3,0.5,0.7,0.6c0,0,0.5,0.1,1,0.1c0.4,0,0.8-0.1,1-0.3s0.1-0.5,0.1-0.9c0-0.2,0-0.5,0-0.9
	c0-0.2,0.1-0.6,0.1-1c0.1-0.8,0.3-1.6,0.1-2.2C9.1,10.3,9,10.1,9,9.9z"/>
<path class="st6" d="M14.4,2.8v8.8l-5.8,3.9l-5.8-3.9V2.8H7v2.1L5.9,3.8H3.8V11l4.7,3.2l4.7-3.2V3.8h-2.1l-1,1.1V2.7L14.4,2.8
	L14.4,2.8z M12.6,8.7c0,0-0.1,1.2-1.3,1.2S10,8.7,10,8.7l0,0l1-2.3H8.8V7L10,7.3L9.8,7.8L9.1,7.6c0,1.2,0,3.2,0,4.1
	c0,0.1,0,0.1-0.1,0.2c-0.1,0.2-0.1,0.4-0.2,0.6c-0.1,0.3-0.2,0.5-0.3,0.8c-0.1-0.4-0.3-0.7-0.4-1.1C8.1,12.1,8,12,8,11.9
	s0-0.2,0-0.3v-0.2c0-0.2,0-0.9,0-1.1c0,0,0-1.9,0-2.6L7.3,7.9L7.1,7.4l1.1-0.3V6.5H6l1,2.3l0,0c0,0-0.1,1.2-1.3,1.2S4.4,8.8,4.4,8.8
	l1.3-2.9l0,0h2.4v-1L7.5,4.3h2L8.9,4.9v1h2.5l0,0l0,0L12.6,8.7L12.6,8.7z M6.5,8.7L5.9,7.2L5.3,8.7l0,0H6.5z M10.7,8.7H12l0,0
	l-0.6-1.5L10.7,8.7z"/>
<path class="st7" d="M23.2,18.8c-0.2,0.9-0.8,1.6-1.4,2.1c-0.4,0.4-0.8,0.8-1.2,1.3c-0.2,0.2-0.3,0.4-0.4,0.7
	c-0.3-0.3-0.8-0.6-1.5-0.7c0,0,0,0,0-0.1c0-0.6-0.3-1.2-0.8-1.5c1.1-0.1,2.9-1.3,3.1-2.3c0-0.4-0.1-0.8-0.2-1.2
	c-0.3-0.7-0.7-1.3-1-2c-0.3-0.6-0.3-1.4-0.1-2c0.2-0.6,0.7-1.1,1.2-1.3c-0.2,0.8-0.2,1.4,0.1,2c0.1,0.2,0.2,0.3,0.3,0.5
	c0.3,0.4,0.7,0.8,0.9,1.2C22.9,16.4,23.4,17.7,23.2,18.8z M14.9,22.2L14.9,22.2C14.9,22.1,14.9,22.1,14.9,22.2
	c0-0.7,0.3-1.2,0.8-1.6c-1,0-3-1.3-3.2-2.3c0-0.4,0.1-0.8,0.2-1.2c0.3-0.7,0.7-1.3,1-2c0.3-0.6,0.3-1.4,0.1-2s-0.7-1.1-1.2-1.3
	c0.2,0.8,0.2,1.4-0.1,2c-0.1,0.2-0.2,0.3-0.3,0.5c-0.3,0.4-0.7,0.8-0.9,1.2c-0.6,0.9-1.1,2.2-0.9,3.3c0.2,0.9,0.8,1.6,1.4,2.1
	c0.4,0.4,0.8,0.8,1.2,1.3c0.2,0.2,0.3,0.5,0.5,0.8C13.6,22.6,14.2,22.4,14.9,22.2z M19.5,18h-1.4v-5.9l-1.3-1.8l-1.4,1.8V18h-1.3v1
	h1c0,0.3,0.2,0.5,0.5,0.5h0.6v2.3l0,0c-0.2,0-0.3,0.1-0.3,0.3c0,0.1,0.1,0.3,0.2,0.3c0,0.1-0.1,0.2-0.1,0.3c0,0.4,0.3,0.6,0.6,0.6
	c0.4,0,0.6-0.3,0.6-0.6c0-0.1,0-0.2-0.1-0.3c0.1,0,0.2-0.1,0.2-0.3c0-0.2-0.1-0.3-0.3-0.3l0,0v-2.3h0.6c0.3,0,0.5-0.2,0.5-0.5h1
	L19.5,18L19.5,18z"/>
</svg>
