<?xml version="1.0" encoding="utf-8"?>
<!-- Generator: Adobe Illustrator 27.0.1, SVG Export Plug-In . SVG Version: 6.00 Build 0)  -->
<svg version="1.1" id="レイヤー_1" xmlns="http://www.w3.org/2000/svg" xmlns:xlink="http://www.w3.org/1999/xlink" x="0px"
	 y="0px" viewBox="0 0 26 33" style="enable-background:new 0 0 26 33;" xml:space="preserve">
<style type="text/css">
	.st0{fill:#28323A;}
	.st1{fill:#FFFFFF;}
	.st2{fill:url(#SVGID_1_);}
	.st3{fill:#E1BB00;}
	.st4{display:none;}
	.st5{fill:#0033AD;}
	.st6{fill:#00A300;}
	.st7{display:none;fill:#945C9E;}
	.st8{display:none;fill:#AA0000;}
	.st9{display:none;fill:#D6D1C7;}
</style>
<g>
	<path class="st0" d="M24,0H2C0.9,0,0,0.9,0,2v5l0,0l0,0v17c0,1.1,0.9,2,2,2h7.5l3.5,7l3.5-7H24c1.1,0,2-0.9,2-2V2
		C26,0.9,25.1,0,24,0z"/>
</g>
<path class="st1" d="M10.4,25.6C10.2,25.2,9.9,25,9.5,25H2c-0.6,0-1-0.4-1-1V2c0-0.6,0.4-1,1-1h22c0.6,0,1,0.4,1,1v22
	c0,0.6-0.4,1-1,1h-7.5c-0.4,0-0.7,0.2-0.9,0.6L13,30.8L10.4,25.6z"/>
<linearGradient id="SVGID_1_" gradientUnits="userSpaceOnUse" x1="13" y1="-1610.4998" x2="13" y2="-1583.9998" gradientTransform="matrix(1 0 0 -1 0 -1581.9998)">
	<stop  offset="0.2" style="stop-color:#FFFFFF"/>
	<stop  offset="0.8" style="stop-color:#D2E6EE"/>
</linearGradient>
<path class="st2" d="M11.3,25.1c-0.3-0.7-1-1.1-1.8-1.1H2V2h22v22h-7.5c-0.8,0-1.5,0.4-1.8,1.1L13,28.5L11.3,25.1z"/>
<path class="st3" d="M17.9,21.9c-3.6,0-6.5-3-6.5-6.6s2.9-6.6,6.6-6.6s6.6,2.9,6.6,6.6S21.6,21.9,17.9,21.9z M20.3,14
	C20.2,14,20.2,14,20.3,14c-0.2,0-0.4,0.1-0.4,0.3c-0.8,1.6-1.2,3.5-1.3,5.9c0,0.2,0.1,0.3,0.2,0.4s0.2,0.1,0.3,0.1h0.1
	c0.1,0,0.2-0.1,0.3-0.1c0.2-0.1,0.3-0.2,0.4-0.4c0.2-1.8,1-3.2,1.7-4c0.1-0.1,0.1-0.3,0.1-0.5c-0.3-0.6-0.7-1.1-1.1-1.6
	C20.5,14,20.4,14,20.3,14z M15.6,14c-0.1,0-0.3,0.1-0.4,0.2c-0.4,0.5-0.7,1-0.9,1.5c-0.1,0.2,0,0.3,0.1,0.5c0.7,0.8,1.5,2.2,1.7,4
	c0,0.2,0.2,0.4,0.4,0.4c0.1,0,0.2,0.1,0.3,0.1h0.1c0.1,0,0.2,0,0.3-0.1c0.1-0.1,0.2-0.2,0.2-0.4c-0.1-2.4-0.5-4.4-1.3-5.9
	C16,14.1,15.9,14,15.6,14C15.7,14,15.6,14,15.6,14z M22.9,15.7c-0.1,0-0.2,0-0.3,0.1c-0.6,0.6-1.5,1.7-1.9,3.2
	c-0.1,0.2,0,0.4,0.2,0.5c0.1,0.1,0.2,0.1,0.3,0.1s0.2,0,0.3-0.1c1-0.8,1.7-2,2-3.3c0-0.2-0.1-0.4-0.3-0.5
	C23,15.8,22.9,15.7,22.9,15.7z M13,15.7c-0.1,0-0.2,0-0.2,0.1c-0.2,0.1-0.3,0.3-0.3,0.5c0.2,1.3,0.9,2.4,2,3.3
	c0.1,0.1,0.2,0.1,0.3,0.1s0.2,0,0.3-0.1c0.2-0.1,0.3-0.3,0.2-0.5c-0.4-1.5-1.3-2.6-1.9-3.2C13.3,15.8,13.2,15.7,13,15.7z M21.8,11.7
	c-0.1,0-0.3,0.1-0.4,0.2c-0.2,0.2-0.5,0.6-0.7,0.9c-0.1,0.2-0.1,0.5,0.1,0.6c0.4,0.4,0.8,0.9,1.1,1.4c0.1,0.1,0.2,0.2,0.3,0.3h0.1
	c0.1,0,0.2,0,0.3-0.1c0.2-0.1,0.3-0.3,0.5-0.4c0.2-0.1,0.2-0.3,0.2-0.5c-0.2-0.8-0.5-1.6-1.1-2.3C22.1,11.7,22,11.7,21.8,11.7
	L21.8,11.7z M14,11.7c-0.1,0-0.3,0.1-0.4,0.2c-0.5,0.6-0.8,1.4-1,2.2c0,0.2,0,0.4,0.2,0.5s0.3,0.2,0.5,0.4c0.1,0.1,0.2,0.1,0.3,0.1
	h0.1c0.1,0,0.3-0.1,0.3-0.3c0.3-0.5,0.6-1,1.1-1.4c0.2-0.2,0.2-0.5,0.1-0.7c-0.3-0.4-0.5-0.7-0.7-0.9C14.3,11.7,14.2,11.7,14,11.7
	L14,11.7z M17.9,9.8c-0.9,0-1.7,0.2-2.5,0.6c-0.1,0.1-0.2,0.2-0.3,0.3c0,0.2,0,0.3,0.1,0.4c0.8,0.9,1.6,2,2.2,3.6
	c0.1,0.2,0.3,0.3,0.5,0.3s0.4-0.1,0.5-0.3c0.6-1.6,1.4-2.7,2.2-3.6c0.1-0.1,0.1-0.3,0.1-0.4c0-0.1-0.1-0.3-0.3-0.3
	C19.7,10,18.8,9.8,17.9,9.8z"/>
<path class="st4" d="M10.1,12.8l-0.6,2.5l-1.3,1.3l-1.3-1.3l-0.6-2.5l1.9-1.3L10.1,12.8z M14.8,15.1c0-0.1-0.1-0.3-0.2-0.7
	s-0.3-1-0.4-1.3c0-0.3-0.2-0.5-0.5-0.5s-0.5,0.2-0.5,0.5c0,0.4,0.2,0.9,0.3,1.3c0,0.2,0,0.4,0,0.7c0-0.1-0.1-0.1-0.2-0.2
	c-0.2-0.2-0.5-0.6-0.6-0.8c-0.1-0.3-0.4-0.4-0.6-0.3c-0.3,0.1-0.4,0.4-0.3,0.6c0.1,0.4,0.5,0.8,0.7,1.2c0.1,0.1,0.2,0.2,0.2,0.3
	c0.1,0.3,0,1.2-0.1,1.7c-0.1,0.1-0.2,0.2-0.2,0.3c0-0.3-0.3-1.2-0.4-1.3c-0.1-0.2-0.2-0.3-0.5-0.5c-0.2-0.1-0.4-0.3-0.5-0.5
	c-0.2-0.2-0.5-0.3-0.7-0.1S10,16,10.2,16.2s0.5,0.5,0.7,0.6c0.1,0.1,0.1,0.1,0.2,0.2c0.1,0.2,0.2,0.7,0.3,0.9
	c-0.1,0.2-0.5,1.1-1.2,1.1c-0.3-0.1-0.4-0.3-0.5-0.6c0-0.5,0-0.9,0-0.9c0-0.3-0.3-0.5-0.5-0.5c-0.3,0-0.5,0.3-0.5,0.5
	c0,0,0,0.4,0,0.9l0,0c0,0.2,0,0.4-0.1,0.5c-0.1,0.6,0,1.4,0.1,2.2c0.1,0.4,0.1,0.8,0.1,1c0,0.4,0,0.7,0,0.9c0,0.4,0,0.7,0.1,0.9
	c0.2,0.3,0.6,0.3,1,0.3c0.5,0,1-0.1,1-0.1c0.4-0.1,0.6-0.3,0.7-0.6c0,0,0-0.1,0-0.2c0-0.4,0.1-1.6,0.6-2.3c0.2-0.3,0.6-0.7,1-1.2
	c1.2-1.4,1.5-1.8,1.6-2C14.8,17.8,14.8,15.3,14.8,15.1z M7.8,18.5L7.8,18.5c0-0.5,0-0.9,0-0.9c0-0.3-0.2-0.5-0.5-0.5
	s-0.5,0.2-0.5,0.5c0,0,0,0.5,0,0.9c-0.1,0.3-0.2,0.5-0.5,0.6c-0.8,0-1.2-0.9-1.2-1.1s0.2-0.7,0.3-0.9c0,0,0.1-0.1,0.2-0.2
	c0.2-0.2,0.5-0.4,0.7-0.6s0.1-0.5-0.1-0.7s-0.5-0.1-0.7,0.1C5.4,15.9,5.2,16,5,16.2s-0.4,0.3-0.5,0.5c0,0.1-0.3,0.9-0.4,1.3
	C4,17.9,4,17.8,3.9,17.7c-0.2-0.6-0.3-1.5-0.2-1.8c0-0.1,0.2-0.2,0.2-0.3c0.3-0.3,0.6-0.8,0.7-1.2c0.2-0.2,0-0.5-0.3-0.6
	s-0.6,0.1-0.6,0.3c-0.1,0.2-0.4,0.6-0.6,0.8C3,15,3,15,2.9,15.1c0-0.3,0-0.5,0-0.7C3,14,3.2,13.5,3.2,13.1c0-0.3-0.2-0.5-0.5-0.5
	s-0.5,0.2-0.5,0.5S2,14,1.8,14.4c-0.1,0.4-0.2,0.5-0.2,0.7s0,2.7,0.1,3c0.1,0.2,0.4,0.7,1.6,2c0.4,0.5,0.7,0.9,1,1.2
	c0.5,0.7,0.6,1.9,0.6,2.3c0,0.1,0,0.1,0,0.2c0,0.3,0.3,0.5,0.7,0.6c0,0,0.5,0.1,1,0.1c0.4,0,0.8-0.1,1-0.3c0.2-0.2,0.1-0.5,0.1-0.9
	c0-0.2,0-0.5,0-0.9c0-0.2,0.1-0.6,0.1-1c0.1-0.8,0.3-1.6,0.1-2.2C7.9,18.9,7.8,18.7,7.8,18.5z"/>
<path class="st5" d="M9.5,13.3c-0.7-0.1-1.3-0.4-1.8-0.7l-3.4,2.1l2.1-3.4C6,10.8,5.8,10.2,5.7,9.5L3,8.5l2.7-0.9
	C5.8,7,6,6.4,6.4,5.9L4.3,2.5l3.4,2.1c0.3-0.2,0.7-0.4,1-0.5l0.4,0.5L8.9,4.8c0,0.1-0.1,0.2-0.1,0.4c0,0-0.1,0-0.1,0.1l0,0
	C8,5.7,7.4,6.3,7,7l0,0c0,0.1-0.1,0.2-0.1,0.4l0,0l0,0C6.7,7.7,6.7,8.1,6.7,8.5l0,0l0,0l0,0l0,0c0,0.4,0.1,0.8,0.2,1.2l0,0
	C7,9.9,7,10,7.1,10.2l0,0c0.5,0.9,1.3,1.6,2.3,1.9l0,0c0.1,0,0.1,0,0.2,0L9.5,13.3L9.5,13.3z M15.1,9.5l2.7-0.9l-2.7-0.9
	C15,7,14.7,6.4,14.4,5.9l2.1-3.4l-3.4,2.1c-0.3-0.2-0.6-0.4-1-0.5l-0.4,0.5l0.1,0.2c0.1,0.1,0.1,0.3,0.1,0.4c0,0,0.1,0,0.1,0.1l0,0
	l0,0c0.7,0.4,1.3,1,1.7,1.7c0.1,0.1,0.1,0.3,0.2,0.5l0,0l0,0c0.1,0.4,0.2,0.8,0.2,1.2l0,0l0,0c0,0.4-0.1,0.8-0.2,1.2l0,0
	c-0.1,0.2-0.1,0.3-0.2,0.5l0,0c-0.4,0.7-1,1.3-1.7,1.7l0,0c-0.2,0.1-0.4,0.2-0.6,0.2l0,0h-0.1v1.1c0.7-0.1,1.3-0.4,1.8-0.7l3.4,2.1
	l-2.1-3.4C14.7,10.7,15,10.1,15.1,9.5z M10.7,9.5v4.2l0.4,1.3l-0.7,1.1L9.7,15l0.4-1.3V9.5L9.4,7.3h0.5l-1-0.9l0.8-0.8L9.4,5.1
	l0.3-0.5L9,3.4l1.4-2.1l1.4,2.1L11,4.6l0.3,0.5L11,5.5l0.8,0.8l-1,0.9h0.5L10.7,9.5z M9.7,3.4l0.7,1l0.7-1l-0.7-1L9.7,3.4z M11,6.3
	l-0.6-0.5L9.8,6.3l0.6,0.6L11,6.3z"/>
<path class="st6" d="M15.8,14.9l1.2-0.4l-2.4-1.5l-0.4-1.5l-3.1-0.1l-1.8-1.4l-1.9,1.4l-2.9,0.1l-0.4,1.5l-2.5,1.5l1.2,0.4
	c0,0,3.3,1.1,5,3.1l-1.3-0.3L7,19.6l-1.7,0.9l1.6,1l-0.5,1.8l1.9-0.5l1,1.7l1-1.6l1.8,0.5l-0.5-1.9l1.6-0.9l-1.6-1l0.5-1.8l-1.3,0.3
	C12.4,16,15.7,14.9,15.8,14.9z M14,14.4c-1,0.4-2.3,1.1-3.3,2.1c0.7-1.3,1.5-2.4,2.2-3.1C13.4,13.8,13.8,14.1,14,14.4z M12.3,13.1
	c-0.7,0.9-1.7,2.2-2.4,3.6c0.3-1.9,0.8-3.4,1.1-4.1C11.4,12.8,11.9,12.9,12.3,13.1z M9.2,18.2l0.8,1.3l-0.7,0.2l-0.8-0.2L9.2,18.2z
	 M9.3,12.4c0.4,0,0.7,0,1.1,0.1c-0.3,0.8-0.8,2.2-1.1,4.1c-0.3-1.9-0.8-3.3-1.1-4.1C8.5,12.4,8.9,12.4,9.3,12.4z M7.6,12.7
	c0.3,0.7,0.8,2.2,1.1,4.1C8,15.2,7,13.9,6.3,13.1C6.7,12.9,7.1,12.8,7.6,12.7z M4.5,14.4c0.3-0.3,0.6-0.7,1.2-1
	c0.6,0.8,1.5,1.9,2.2,3.1C6.8,15.6,5.5,14.9,4.5,14.4z M8.3,21.2L7,20.5l1.3-0.8l0.2,0.8L8.3,21.2z M9.3,22.8l-0.8-1.3l0.7-0.2
	l0.9,0.2L9.3,22.8z M10.2,21.2L10,20.5l0.2-0.7l1.3,0.8L10.2,21.2z"/>
<path class="st7" d="M24,9v8.8l-5.8,3.9l-5.8-3.9V9h4.2v2.1L15.5,10h-2.1v7.2l4.7,3.2l4.7-3.2V10h-2.1l-1,1.1V8.9L24,9L24,9z
	 M22.2,14.9c0,0-0.1,1.2-1.3,1.2s-1.3-1.2-1.3-1.2l0,0l1-2.3h-2.2v0.6l1.2,0.3L19.4,14l-0.7-0.2c0,1.2,0,3.2,0,4.1
	c0,0.1,0,0.1-0.1,0.2c-0.1,0.2-0.1,0.4-0.2,0.6c-0.1,0.3-0.2,0.5-0.3,0.8c-0.1-0.4-0.3-0.7-0.4-1.1c0-0.1-0.1-0.2-0.1-0.3
	c0-0.1,0-0.2,0-0.3v-0.2c0-0.2,0-0.9,0-1.1c0,0,0-1.9,0-2.6l-0.7,0.2l-0.2-0.5l1.1-0.3v-0.6h-2.2l1,2.3l0,0c0,0-0.1,1.2-1.3,1.2
	S14,15,14,15l1.3-2.9l0,0h2.4v-1l-0.6-0.6h2l-0.6,0.6v1H21l0,0l0,0L22.2,14.9L22.2,14.9z M16.1,14.9l-0.6-1.5l-0.6,1.5l0,0H16.1z
	 M20.3,14.9h1.3l0,0L21,13.4L20.3,14.9z"/>
<path class="st8" d="M23.4,19c-0.2,0.9-0.8,1.6-1.4,2.1c-0.4,0.4-0.8,0.8-1.2,1.3c-0.2,0.2-0.3,0.4-0.4,0.7
	c-0.3-0.3-0.8-0.6-1.5-0.7c0,0,0,0,0-0.1c0-0.6-0.3-1.2-0.8-1.5c1.1-0.1,2.9-1.3,3.1-2.3c0-0.4-0.1-0.8-0.2-1.2
	c-0.3-0.7-0.7-1.3-1-2c-0.3-0.6-0.3-1.4-0.1-2c0.2-0.6,0.7-1.1,1.2-1.3c-0.2,0.8-0.2,1.4,0.1,2c0.1,0.2,0.2,0.3,0.3,0.5
	c0.3,0.4,0.7,0.8,0.9,1.2C23.1,16.6,23.6,17.9,23.4,19z M15.1,22.4L15.1,22.4C15.1,22.3,15.1,22.3,15.1,22.4c0-0.7,0.3-1.2,0.8-1.6
	c-1,0-3-1.3-3.2-2.3c0-0.4,0.1-0.8,0.2-1.2c0.3-0.7,0.7-1.3,1-2c0.3-0.6,0.3-1.4,0.1-2s-0.7-1.1-1.2-1.3c0.2,0.8,0.2,1.4-0.1,2
	c-0.1,0.2-0.2,0.3-0.3,0.5c-0.3,0.4-0.7,0.8-0.9,1.2c-0.6,0.9-1.1,2.2-0.9,3.3c0.2,0.9,0.8,1.6,1.4,2.1c0.4,0.4,0.8,0.8,1.2,1.3
	c0.2,0.2,0.3,0.5,0.5,0.8C13.8,22.8,14.4,22.6,15.1,22.4z M19.7,18.2h-1.4v-5.9L17,10.5l-1.4,1.8v5.9h-1.3v1h1
	c0,0.3,0.2,0.5,0.5,0.5h0.6V22l0,0c-0.2,0-0.3,0.1-0.3,0.3c0,0.1,0.1,0.3,0.2,0.3c0,0.1-0.1,0.2-0.1,0.3c0,0.4,0.3,0.6,0.6,0.6
	c0.4,0,0.6-0.3,0.6-0.6c0-0.1,0-0.2-0.1-0.3c0.1,0,0.2-0.1,0.2-0.3c0-0.2-0.1-0.3-0.3-0.3l0,0v-2.3h0.6c0.3,0,0.5-0.2,0.5-0.5h1
	L19.7,18.2L19.7,18.2z"/>
<path class="st9" d="M8.6,12.1L2,23.5h13.2L8.6,12.1z M8.6,19.3l1.6-2.4l0.3,0.5l-1.9,2.9l-1.9-2.9L7,16.9L8.6,19.3z M7.2,16.6
	L7.5,16h2.2l0.3,0.6H7.2z M8.6,21.2l0.8-1.1l1.4,2.5H6.4l1.4-2.5L8.6,21.2z M9.7,19.6l1.1-1.7l2.7,4.6h-2.1L9.7,19.6z M9.4,15.5H7.8
	l0.8-1.4L9.4,15.5z M6.4,17.9l1.1,1.7l-1.7,3H3.7L6.4,17.9z"/>
</svg>
