<?xml version="1.0" encoding="utf-8"?>
<!-- Generator: Adobe Illustrator 26.5.0, SVG Export Plug-In . SVG Version: 6.00 Build 0)  -->
<svg version="1.1" id="レイヤー_1" xmlns="http://www.w3.org/2000/svg" xmlns:xlink="http://www.w3.org/1999/xlink" x="0px"
	 y="0px" viewBox="0 0 26 33" style="enable-background:new 0 0 26 33;" xml:space="preserve">
<style type="text/css">
	.st0{fill:#28323A;}
	.st1{fill:#FFFFFF;}
	.st2{fill:url(#SVGID_1_);}
	.st3{fill:#0033AD;}
</style>
<g>
	<path class="st0" d="M24,0H2C0.9,0,0,0.9,0,2v5l0,0l0,0v17c0,1.1,0.9,2,2,2h7.5l3.5,7l3.5-7H24c1.1,0,2-0.9,2-2V2
		C26,0.9,25.1,0,24,0z"/>
</g>
<path class="st1" d="M10.4,25.6C10.2,25.2,9.9,25,9.5,25H2c-0.6,0-1-0.4-1-1V2c0-0.6,0.4-1,1-1h22c0.6,0,1,0.4,1,1v22
	c0,0.6-0.4,1-1,1h-7.5c-0.4,0-0.7,0.2-0.9,0.6L13,30.8L10.4,25.6z"/>
<linearGradient id="SVGID_1_" gradientUnits="userSpaceOnUse" x1="13" y1="5.5" x2="13" y2="32" gradientTransform="matrix(1 0 0 -1 0 34)">
	<stop  offset="0.2" style="stop-color:#FFFFFF"/>
	<stop  offset="0.8" style="stop-color:#D2E6EE"/>
</linearGradient>
<path class="st2" d="M11.3,25.1c-0.3-0.7-1-1.1-1.8-1.1H2V2h22v22h-7.5c-0.8,0-1.5,0.4-1.8,1.1L13,28.5L11.3,25.1z"/>
<path class="st3" d="M11.9,19.1c-0.8-0.2-1.6-0.5-2.3-0.9l-4.3,2.7L8,16.5c-0.5-0.7-0.8-1.4-0.9-2.3l-3.4-1.1L7,12
	c0.2-0.8,0.5-1.6,0.9-2.3L5.3,5.4l4.3,2.7c0.4-0.3,0.8-0.5,1.3-0.7l0.5,0.7l-0.1,0.2c-0.1,0.2-0.1,0.3-0.1,0.5c-0.1,0-0.1,0-0.2,0.1
	l0,0C10,9.4,9.3,10.1,8.8,11l0,0c-0.1,0.2-0.2,0.4-0.2,0.6l0,0l0,0c-0.2,0.5-0.2,1-0.2,1.5l0,0c0,0,0,0,0,0s0,0,0,0l0,0
	c0,0.5,0.1,1,0.2,1.5l0,0c0.1,0.2,0.1,0.4,0.2,0.6l0,0c0.6,1.1,1.6,2,2.8,2.4c0,0,0,0,0,0c0.1,0,0.1,0,0.2,0.1V19.1z M19,14.3
	l3.4-1.1L19,12c-0.2-0.8-0.5-1.6-0.9-2.3l2.7-4.3l-4.3,2.7c-0.4-0.3-0.8-0.5-1.3-0.7l-0.5,0.7l0.1,0.2c0.1,0.2,0.1,0.3,0.1,0.5
	c0,0,0.1,0,0.1,0.1l0,0l0,0c0.9,0.5,1.7,1.2,2.1,2.1c0.1,0.2,0.2,0.4,0.2,0.6l0,0l0,0c0.2,0.5,0.2,1,0.2,1.5c0,0,0,0,0,0l0,0
	c0,0.5-0.1,1-0.2,1.5l0,0c-0.1,0.2-0.1,0.4-0.2,0.6l0,0c-0.5,0.9-1.2,1.7-2.1,2.1l0,0c-0.2,0.1-0.5,0.2-0.7,0.3c0,0,0,0,0,0
	c-0.1,0-0.1,0-0.2,0v1.4c0.8-0.2,1.6-0.5,2.3-0.9l4.3,2.7L18,16.5C18.5,15.9,18.8,15.1,19,14.3z M13.4,14.3v5.3l0.5,1.6L13,22.7
	l-0.9-1.4l0.5-1.6v-5.3l-0.9-2.8h0.7l-1.3-1.2l1.1-1l-0.4-0.6l0.4-0.6l-1-1.5L13,4l1.8,2.6l-1,1.5l0.4,0.6l-0.4,0.6l1.1,1l-1.3,1.2
	h0.7L13.4,14.3z M12.2,6.6L13,7.9l0.9-1.2L13,5.4L12.2,6.6z M13.8,10.3L13,9.6l-0.8,0.7L13,11L13.8,10.3z"/>
</svg>
