<?xml version="1.0" encoding="utf-8"?>
<!-- Generator: Adobe Illustrator 26.5.0, SVG Export Plug-In . SVG Version: 6.00 Build 0)  -->
<svg version="1.1" id="レイヤー_1" xmlns="http://www.w3.org/2000/svg" xmlns:xlink="http://www.w3.org/1999/xlink" x="0px"
	 y="0px" viewBox="0 0 26 33" style="enable-background:new 0 0 26 33;" xml:space="preserve">
<style type="text/css">
	.st0{fill:#28323A;}
	.st1{fill:#FFFFFF;}
	.st2{fill:url(#SVGID_1_);}
	.st3{fill:#D6D1C7;}
</style>
<g>
	<path class="st0" d="M24,0H2C0.9,0,0,0.9,0,2v5l0,0l0,0v17c0,1.1,0.9,2,2,2h7.5l3.5,7l3.5-7H24c1.1,0,2-0.9,2-2V2
		C26,0.9,25.1,0,24,0z"/>
</g>
<path class="st1" d="M10.4,25.6C10.2,25.2,9.9,25,9.5,25H2c-0.6,0-1-0.4-1-1V2c0-0.6,0.4-1,1-1h22c0.6,0,1,0.4,1,1v22
	c0,0.6-0.4,1-1,1h-7.5c-0.4,0-0.7,0.2-0.9,0.6L13,30.8L10.4,25.6z"/>
<linearGradient id="SVGID_1_" gradientUnits="userSpaceOnUse" x1="13" y1="5.5" x2="13" y2="32" gradientTransform="matrix(1 0 0 -1 0 34)">
	<stop  offset="0.2" style="stop-color:#FFFFFF"/>
	<stop  offset="0.8" style="stop-color:#D2E6EE"/>
</linearGradient>
<path class="st2" d="M11.3,25.1c-0.3-0.7-1-1.1-1.8-1.1H2V2h22v22h-7.5c-0.8,0-1.5,0.4-1.8,1.1L13,28.5L11.3,25.1z"/>
<path class="st3" d="M13,4.1L3.1,21.3h19.8L13,4.1z M13,15l2.5-3.7l0.4,0.8L13,16.4l-2.9-4.3l0.4-0.8L13,15z M10.9,10.8l0.5-0.8h3.3
	l0.5,0.8H10.9z M13,17.8l1.2-1.7l2.1,3.7H9.7l2.1-3.7L13,17.8z M14.7,15.3l1.7-2.5l4,7h-3.1L14.7,15.3z M14.2,9.1h-2.4L13,7
	L14.2,9.1z M9.7,12.8l1.7,2.5l-2.6,4.5H5.6L9.7,12.8z"/>
</svg>
