<?xml version="1.0" encoding="utf-8"?>
<!-- Generator: Adobe Illustrator 26.5.0, SVG Export Plug-In . SVG Version: 6.00 Build 0)  -->
<svg version="1.1" id="レイヤー_1" xmlns="http://www.w3.org/2000/svg" xmlns:xlink="http://www.w3.org/1999/xlink" x="0px"
	 y="0px" viewBox="0 0 26 33" style="enable-background:new 0 0 26 33;" xml:space="preserve">
<style type="text/css">
	.st0{fill:#28323A;}
	.st1{fill:#FFFFFF;}
	.st2{fill:url(#SVGID_1_);}
	.st3{fill:#945C9E;}
</style>
<g>
	<path class="st0" d="M24,0H2C0.9,0,0,0.9,0,2v5l0,0l0,0v17c0,1.1,0.9,2,2,2h7.5l3.5,7l3.5-7H24c1.1,0,2-0.9,2-2V2
		C26,0.9,25.1,0,24,0z"/>
</g>
<path class="st1" d="M10.4,25.6C10.2,25.2,9.9,25,9.5,25H2c-0.6,0-1-0.4-1-1V2c0-0.6,0.4-1,1-1h22c0.6,0,1,0.4,1,1v22
	c0,0.6-0.4,1-1,1h-7.5c-0.4,0-0.7,0.2-0.9,0.6L13,30.8L10.4,25.6z"/>
<linearGradient id="SVGID_1_" gradientUnits="userSpaceOnUse" x1="13" y1="5.5" x2="13" y2="32" gradientTransform="matrix(1 0 0 -1 0 34)">
	<stop  offset="0.2" style="stop-color:#FFFFFF"/>
	<stop  offset="0.8" style="stop-color:#D2E6EE"/>
</linearGradient>
<path class="st2" d="M11.3,25.1c-0.3-0.7-1-1.1-1.8-1.1H2V2h22v22h-7.5c-0.8,0-1.5,0.4-1.8,1.1L13,28.5L11.3,25.1z"/>
<path class="st3" d="M21.6,4.2v13.1L13,23.2l-8.6-5.9V4.2h6.3v3.2L9,5.7H6v10.8l7,4.8l7-4.8V5.7h-3.1l-1.7,1.7V4.2H21.6z M19,13
	c0,0-0.2,1.8-1.9,1.8S15.2,13,15.2,13l0,0l1.5-3.5h-3.3l0,0.9l1.8,0.5l-0.3,0.8l-1.1-0.3c0,1.8,0,4.7,0,6.1c0,0.1-0.1,0.2-0.1,0.3
	c-0.1,0.3-0.2,0.6-0.3,0.8c-0.1,0.4-0.3,0.7-0.4,1.1c-0.2-0.6-0.4-1.1-0.6-1.7c0-0.1-0.1-0.3-0.1-0.4c-0.1-0.1,0-0.3,0-0.4v-0.3
	c0-0.4,0-1.3,0-1.7c0,0,0-2.9,0-3.8l-1,0.3l-0.3-0.8l1.7-0.5l0-0.9H9.3l1.5,3.5l0,0c0,0-0.2,1.8-1.9,1.8c-1.7,0-1.9-1.8-1.9-1.8
	L9,8.7l0,0h3.6l0-1.4l-0.8-0.8h2.5l-0.8,0.8l0,1.4h3.7l0,0l0,0L19,13L19,13z M9.9,13l-1-2.2L8,13l0,0H9.9z M16.1,13H18l0,0l-1-2.2
	L16.1,13z"/>
</svg>
