<?xml version="1.0" encoding="utf-8"?>
<!-- Generator: Adobe Illustrator 26.5.0, SVG Export Plug-In . SVG Version: 6.00 Build 0)  -->
<svg version="1.1" id="レイヤー_1" xmlns="http://www.w3.org/2000/svg" xmlns:xlink="http://www.w3.org/1999/xlink" x="0px"
	 y="0px" viewBox="0 0 26 33" style="enable-background:new 0 0 26 33;" xml:space="preserve">
<style type="text/css">
	.st0{fill:#28323A;}
	.st1{fill:#FFFFFF;}
	.st2{fill:url(#SVGID_1_);}
	.st3{fill:#AA0000;}
</style>
<g>
	<path class="st0" d="M24,0H2C0.9,0,0,0.9,0,2v5l0,0l0,0v17c0,1.1,0.9,2,2,2h7.5l3.5,7l3.5-7H24c1.1,0,2-0.9,2-2V2
		C26,0.9,25.1,0,24,0z"/>
</g>
<path class="st1" d="M10.4,25.6C10.2,25.2,9.9,25,9.5,25H2c-0.6,0-1-0.4-1-1V2c0-0.6,0.4-1,1-1h22c0.6,0,1,0.4,1,1v22
	c0,0.6-0.4,1-1,1h-7.5c-0.4,0-0.7,0.2-0.9,0.6L13,30.8L10.4,25.6z"/>
<linearGradient id="SVGID_1_" gradientUnits="userSpaceOnUse" x1="13" y1="5.5" x2="13" y2="32" gradientTransform="matrix(1 0 0 -1 0 34)">
	<stop  offset="0.2" style="stop-color:#FFFFFF"/>
	<stop  offset="0.8" style="stop-color:#D2E6EE"/>
</linearGradient>
<path class="st2" d="M11.3,25.1c-0.3-0.7-1-1.1-1.8-1.1H2V2h22v22h-7.5c-0.8,0-1.5,0.4-1.8,1.1L13,28.5L11.3,25.1z"/>
<path class="st3" d="M22.3,16.1c-0.2,1.3-1.2,2.4-2,3.1c-0.6,0.6-1.2,1.2-1.8,1.8c-0.3,0.3-0.5,0.6-0.6,1c-0.5-0.4-1.2-0.8-2.1-1.1
	c0,0,0-0.1,0-0.1c0-0.9-0.5-1.7-1.2-2.2c1.5-0.1,4.3-1.9,4.5-3.4c0.1-0.6-0.1-1.2-0.4-1.7c-0.4-1-1-1.8-1.5-2.9
	c-0.4-0.8-0.5-2-0.1-2.9C17.6,7,18.2,6.3,19,5.9C18.7,7,18.7,8,19.2,8.9c0.1,0.2,0.3,0.5,0.5,0.7c0.4,0.5,1,1.2,1.4,1.8
	C22,12.6,22.7,14.5,22.3,16.1z M10.3,21C10.3,21,10.3,21,10.3,21c0-0.1,0-0.1,0-0.1c0-0.9,0.5-1.7,1.2-2.2c-1.5,0-4.4-1.9-4.6-3.4
	c-0.1-0.6,0.1-1.2,0.4-1.7c0.4-1,1-1.8,1.5-2.9c0.4-0.8,0.5-2,0.1-2.9C8.5,7,7.8,6.3,7,5.9C7.3,7,7.3,8,6.8,8.9
	C6.7,9.1,6.5,9.3,6.3,9.6c-0.4,0.5-1,1.2-1.4,1.8c-0.9,1.3-1.7,3.2-1.3,4.8c0.2,1.3,1.2,2.4,2,3.1c0.6,0.6,1.2,1.2,1.8,1.8
	c0.3,0.3,0.5,0.7,0.7,1.1C8.5,21.7,9.3,21.3,10.3,21z M17,14.9h-2V6.3l-1.9-2.6L11,6.3v8.6H9.2v1.5h1.5c0,0.4,0.3,0.7,0.8,0.7h0.9
	v3.3h0c-0.2,0-0.4,0.2-0.4,0.4c0,0.2,0.1,0.4,0.3,0.4c-0.1,0.1-0.1,0.3-0.1,0.4c0,0.5,0.4,0.9,0.9,0.9s0.9-0.4,0.9-0.9
	c0-0.2,0-0.3-0.1-0.4c0.2,0,0.3-0.2,0.3-0.4c0-0.2-0.2-0.4-0.4-0.4h0v-3.3h0.9c0.4,0,0.7-0.3,0.8-0.7H17L17,14.9L17,14.9z"/>
</svg>
