<?xml version="1.0" encoding="utf-8"?>
<!-- Generator: Adobe Illustrator 27.0.1, SVG Export Plug-In . SVG Version: 6.00 Build 0)  -->
<svg version="1.1" id="レイヤー_1" xmlns="http://www.w3.org/2000/svg" xmlns:xlink="http://www.w3.org/1999/xlink" x="0px"
	 y="0px" viewBox="0 0 26 33" style="enable-background:new 0 0 26 33;" xml:space="preserve">
<style type="text/css">
	.st0{fill:#28323A;}
	.st1{fill:#FFFFFF;}
	.st2{fill:url(#SVGID_1_);}
	.st3{display:none;fill:#00A300;}
	.st4{display:none;fill:#AA0000;}
	.st5{display:none;fill:#E1BB00;}
	.st6{display:none;fill:#D6D1C7;}
	.st7{display:none;fill:#0033AD;}
	.st8{fill:#945C9E;}
</style>
<g>
	<path class="st0" d="M24,0H2C0.9,0,0,0.9,0,2v5l0,0l0,0v17c0,1.1,0.9,2,2,2h7.5l3.5,7l3.5-7H24c1.1,0,2-0.9,2-2V2
		C26,0.9,25.1,0,24,0z"/>
</g>
<path class="st1" d="M10.4,25.6C10.2,25.2,9.9,25,9.5,25H2c-0.6,0-1-0.4-1-1V2c0-0.6,0.4-1,1-1h22c0.6,0,1,0.4,1,1v22
	c0,0.6-0.4,1-1,1h-7.5c-0.4,0-0.7,0.2-0.9,0.6L13,30.8L10.4,25.6z"/>
<linearGradient id="SVGID_1_" gradientUnits="userSpaceOnUse" x1="13" y1="2452.3896" x2="13" y2="2425.8896" gradientTransform="matrix(1 0 0 1 0 -2423.8896)">
	<stop  offset="0.2" style="stop-color:#FFFFFF"/>
	<stop  offset="0.8" style="stop-color:#D2E6EE"/>
</linearGradient>
<path class="st2" d="M11.3,25.1c-0.3-0.7-1-1.1-1.8-1.1H2V2h22v22h-7.5c-0.8,0-1.5,0.4-1.8,1.1L13,28.5L11.3,25.1z"/>
<path class="st3" d="M16.7,7.5l1.2-0.4l-2.4-1.5l-0.4-1.5L12,4l-1.8-1.4L8.3,4L5.4,4.1L5,5.6L2.5,7.1l1.2,0.4c0,0,3.3,1.1,5,3.1
	l-1.3-0.3l0.5,1.8L6.2,13l1.6,1l-0.5,1.8l1.9-0.5l1,1.7l1-1.6l1.8,0.5L12.5,14l1.6-0.9l-1.6-1l0.5-1.8l-1.3,0.3
	C13.3,8.6,16.6,7.5,16.7,7.5z M14.9,7c-1,0.4-2.3,1.1-3.3,2.1c0.7-1.3,1.5-2.4,2.2-3.1C14.3,6.3,14.7,6.7,14.9,7z M13.2,5.7
	c-0.7,0.9-1.7,2.2-2.4,3.6c0.3-1.9,0.8-3.4,1.1-4.1C12.3,5.3,12.8,5.5,13.2,5.7z M10.1,10.8l0.8,1.3l-0.7,0.2l-0.8-0.2L10.1,10.8z
	 M10.2,5c0.4,0,0.7,0,1.1,0.1c-0.3,0.8-0.8,2.2-1.1,4.1C9.9,7.3,9.4,5.9,9.1,5.1C9.4,5,9.8,5,10.2,5z M8.5,5.2
	c0.3,0.7,0.8,2.2,1.1,4.1C8.9,7.8,7.9,6.5,7.2,5.6C7.6,5.5,8,5.3,8.5,5.2z M5.4,7C5.7,6.7,6,6.3,6.6,6c0.6,0.8,1.5,1.9,2.2,3.1
	C7.7,8.1,6.4,7.4,5.4,7z M9.2,13.8L7.9,13l1.3-0.8L9.4,13L9.2,13.8z M10.2,15.3L9.4,14l0.7-0.2L11,14L10.2,15.3z M11.1,13.8L10.9,13
	l0.2-0.7l1.3,0.8L11.1,13.8z"/>
<path class="st4" d="M23.1,18.5c-0.2,0.9-0.8,1.6-1.4,2.1c-0.4,0.4-0.8,0.8-1.2,1.3c-0.2,0.2-0.3,0.4-0.4,0.7
	c-0.3-0.3-0.8-0.6-1.5-0.7c0,0,0,0,0-0.1c0-0.6-0.3-1.2-0.8-1.5c1.1-0.1,2.9-1.3,3.1-2.3c0-0.4-0.1-0.8-0.2-1.2
	c-0.3-0.7-0.7-1.3-1-2c-0.3-0.6-0.3-1.4-0.1-2c0.2-0.6,0.7-1.1,1.2-1.3c-0.2,0.8-0.2,1.4,0.1,2c0.1,0.2,0.2,0.3,0.3,0.5
	c0.3,0.4,0.7,0.8,0.9,1.2C22.8,16.1,23.3,17.4,23.1,18.5z M14.8,21.9L14.8,21.9C14.8,21.8,14.8,21.8,14.8,21.9
	c0-0.7,0.3-1.2,0.8-1.6c-1,0-3-1.3-3.2-2.3c0-0.4,0.1-0.8,0.2-1.2c0.3-0.7,0.7-1.3,1-2c0.3-0.6,0.3-1.4,0.1-2s-0.7-1.1-1.2-1.3
	c0.2,0.8,0.2,1.4-0.1,2c-0.1,0.2-0.2,0.3-0.3,0.5c-0.3,0.4-0.7,0.8-0.9,1.2c-0.6,0.9-1.1,2.2-0.9,3.3c0.2,0.9,0.8,1.6,1.4,2.1
	c0.4,0.4,0.8,0.8,1.2,1.3c0.2,0.2,0.3,0.5,0.5,0.8C13.5,22.3,14.1,22.1,14.8,21.9z M19.4,17.7H18v-5.9L16.7,10l-1.4,1.8v5.9H14v1h1
	c0,0.3,0.2,0.5,0.5,0.5h0.6v2.3l0,0c-0.2,0-0.3,0.1-0.3,0.3c0,0.1,0.1,0.3,0.2,0.3c0,0.1-0.1,0.2-0.1,0.3c0,0.4,0.3,0.6,0.6,0.6
	c0.4,0,0.6-0.3,0.6-0.6c0-0.1,0-0.2-0.1-0.3c0.1,0,0.2-0.1,0.2-0.3c0-0.2-0.1-0.3-0.3-0.3l0,0v-2.3h0.6c0.3,0,0.5-0.2,0.5-0.5h1
	L19.4,17.7L19.4,17.7z"/>
<path class="st5" d="M16.7,23.6c-3.6,0-6.5-3-6.5-6.6s2.9-6.6,6.6-6.6s6.6,2.9,6.6,6.6S20.4,23.6,16.7,23.6z M19,15.7L19,15.7
	c-0.2,0-0.4,0.1-0.4,0.3c-0.8,1.6-1.2,3.5-1.3,5.9c0,0.2,0.1,0.3,0.2,0.4s0.2,0.1,0.3,0.1H18c0.1,0,0.2-0.1,0.3-0.1
	c0.2-0.1,0.3-0.2,0.4-0.4c0.2-1.8,1-3.2,1.7-4c0.1-0.1,0.1-0.3,0.1-0.5c-0.3-0.6-0.7-1.1-1.1-1.6C19.2,15.7,19.2,15.7,19,15.7z
	 M14.4,15.7c-0.1,0-0.3,0.1-0.4,0.2c-0.4,0.5-0.7,1-0.9,1.5c-0.1,0.2,0,0.3,0.1,0.5c0.7,0.8,1.5,2.2,1.7,4c0,0.2,0.2,0.4,0.4,0.4
	c0.1,0,0.2,0.1,0.3,0.1h0.1c0.1,0,0.2,0,0.3-0.1c0.1-0.1,0.2-0.2,0.2-0.4c-0.1-2.4-0.5-4.4-1.3-5.9C14.8,15.8,14.7,15.7,14.4,15.7
	C14.5,15.7,14.4,15.7,14.4,15.7z M21.7,17.4c-0.1,0-0.2,0-0.3,0.1c-0.6,0.6-1.5,1.7-1.9,3.2c-0.1,0.2,0,0.4,0.2,0.5
	c0.1,0.1,0.2,0.1,0.3,0.1c0.1,0,0.2,0,0.3-0.1c1-0.8,1.7-2,2-3.3c0-0.2-0.1-0.4-0.3-0.5C21.8,17.5,21.7,17.4,21.7,17.4z M11.8,17.4
	c-0.1,0-0.2,0-0.2,0.1c-0.2,0.1-0.3,0.3-0.3,0.5c0.2,1.3,0.9,2.4,2,3.3c0.1,0.1,0.2,0.1,0.3,0.1s0.2,0,0.3-0.1
	c0.2-0.1,0.3-0.3,0.2-0.5c-0.4-1.5-1.3-2.6-1.9-3.2C12.1,17.5,12,17.4,11.8,17.4z M20.5,13.4c-0.1,0-0.3,0.1-0.4,0.2
	c-0.2,0.2-0.5,0.6-0.7,0.9c-0.1,0.2-0.1,0.5,0.1,0.6c0.4,0.4,0.8,0.9,1.1,1.4c0.1,0.1,0.2,0.2,0.3,0.3H21c0.1,0,0.2,0,0.3-0.1
	c0.2-0.1,0.3-0.3,0.5-0.4C22,16.2,22,16,22,15.8c-0.2-0.8-0.5-1.6-1.1-2.3C20.9,13.4,20.8,13.4,20.5,13.4L20.5,13.4z M12.8,13.4
	c-0.1,0-0.3,0.1-0.4,0.2c-0.5,0.6-0.8,1.4-1,2.2c0,0.2,0,0.4,0.2,0.5s0.3,0.2,0.5,0.4c0.1,0.1,0.2,0.1,0.3,0.1h0.1
	c0.1,0,0.3-0.1,0.3-0.3c0.3-0.5,0.6-1,1.1-1.4c0.2-0.2,0.2-0.5,0.1-0.7c-0.3-0.4-0.5-0.7-0.7-0.9C13.1,13.4,13,13.4,12.8,13.4
	L12.8,13.4z M16.7,11.5c-0.9,0-1.7,0.2-2.5,0.6c-0.1,0.1-0.2,0.2-0.3,0.3c0,0.2,0,0.3,0.1,0.4c0.8,0.9,1.6,2,2.2,3.6
	c0.1,0.2,0.3,0.3,0.5,0.3s0.4-0.1,0.5-0.3c0.6-1.6,1.4-2.7,2.2-3.6c0.1-0.1,0.1-0.3,0.1-0.4c0-0.1-0.1-0.3-0.3-0.3
	C18.5,11.7,17.5,11.5,16.7,11.5z"/>
<path class="st6" d="M8.3,1.7L1.7,13.1h13.2L8.3,1.7z M8.3,8.9l1.6-2.4L10.2,7L8.3,9.9L6.4,7l0.3-0.5L8.3,8.9z M6.9,6.2l0.3-0.6h2.2
	l0.3,0.6H6.9z M8.3,10.8l0.8-1.1l1.4,2.5H6.1l1.4-2.5L8.3,10.8z M9.4,9.2l1.1-1.7l2.7,4.6h-2.1L9.4,9.2z M9.1,5.1H7.5l0.8-1.4
	L9.1,5.1z M6.1,7.5l1.1,1.7l-1.7,3H3.4L6.1,7.5z"/>
<path class="st7" d="M15.9,22c-0.7-0.1-1.3-0.4-1.8-0.7l-3.4,2.1l2.1-3.4c-0.4-0.5-0.6-1.1-0.7-1.8l-2.7-1l2.7-0.9
	c0.1-0.6,0.3-1.2,0.7-1.7l-2.1-3.4l3.4,2.1c0.3-0.2,0.7-0.4,1-0.5l0.4,0.5l-0.2,0.2c0,0.1-0.1,0.2-0.1,0.4c0,0-0.1,0-0.1,0.1l0,0
	c-0.7,0.4-1.3,1-1.7,1.7l0,0c0,0.1-0.1,0.2-0.1,0.4l0,0l0,0c-0.2,0.3-0.2,0.7-0.2,1.1l0,0l0,0l0,0l0,0c0,0.4,0.1,0.8,0.2,1.2l0,0
	c0.1,0.2,0.1,0.3,0.2,0.5l0,0c0.5,0.9,1.3,1.6,2.3,1.9l0,0c0.1,0,0.1,0,0.2,0L15.9,22L15.9,22z M21.5,18.2l2.7-0.9l-2.7-0.9
	c-0.1-0.7-0.4-1.3-0.7-1.8l2.1-3.4l-3.4,2.1c-0.3-0.2-0.6-0.4-1-0.5l-0.4,0.5l0.1,0.2c0.1,0.1,0.1,0.3,0.1,0.4c0,0,0.1,0,0.1,0.1
	l0,0l0,0c0.7,0.4,1.3,1,1.7,1.7c0.1,0.1,0.1,0.3,0.2,0.5l0,0l0,0c0.1,0.4,0.2,0.8,0.2,1.2l0,0l0,0c0,0.4-0.1,0.8-0.2,1.2l0,0
	c-0.1,0.2-0.1,0.3-0.2,0.5l0,0c-0.4,0.7-1,1.3-1.7,1.7l0,0C18.2,20.9,18,21,17.8,21l0,0h-0.1v1.1c0.7-0.1,1.3-0.4,1.8-0.7l3.4,2.1
	l-2.1-3.4C21.1,19.4,21.4,18.8,21.5,18.2z M17.1,18.2v4.2l0.4,1.3l-0.7,1.1l-0.7-1.1l0.4-1.3v-4.2L15.8,16h0.5l-1-0.9l0.8-0.8
	l-0.3-0.5l0.3-0.5l-0.7-1.2l1.4-2.1l1.4,2.1l-0.8,1.2l0.3,0.5l-0.3,0.4l0.8,0.8l-1,0.9h0.5L17.1,18.2z M16.1,12.1l0.7,1l0.7-1
	l-0.7-1L16.1,12.1z M17.4,15l-0.6-0.5L16.2,15l0.6,0.6L17.4,15z"/>
<path class="st8" d="M14.8,3.2V12L9,15.9L3.2,12V3.2h4.2v2.1L6.3,4.2H4.2v7.2l4.7,3.2l4.7-3.2V4.2h-2.1l-1,1.1V3.1L14.8,3.2
	L14.8,3.2z M13,9.1c0,0-0.1,1.2-1.3,1.2s-1.3-1.2-1.3-1.2l0,0l1-2.3H9.2v0.6l1.2,0.3l-0.2,0.5L9.5,8c0,1.2,0,3.2,0,4.1
	c0,0.1,0,0.1-0.1,0.2c-0.1,0.2-0.1,0.4-0.2,0.6c-0.1,0.3-0.2,0.5-0.3,0.8c-0.1-0.4-0.3-0.7-0.4-1.1c0-0.1-0.1-0.2-0.1-0.3
	s0-0.2,0-0.3v-0.2c0-0.2,0-0.9,0-1.1c0,0,0-1.9,0-2.6L7.7,8.3L7.5,7.8l1.1-0.3V6.9H6.4l1,2.3l0,0c0,0-0.1,1.2-1.3,1.2
	S4.8,9.2,4.8,9.2l1.3-2.9l0,0h2.4v-1L7.9,4.7h2L9.3,5.3v1h2.5l0,0l0,0L13,9.1L13,9.1z M6.9,9.1L6.3,7.6L5.7,9.1l0,0H6.9z M11.1,9.1
	h1.3l0,0l-0.6-1.5L11.1,9.1z"/>
<path d="M18.9,12.3l-0.6,2.5L17,16.1l-1.3-1.3l-0.6-2.5L17,11L18.9,12.3z M23.6,14.6c0-0.1-0.1-0.3-0.2-0.7c-0.1-0.4-0.3-1-0.4-1.3
	c0-0.3-0.2-0.5-0.5-0.5c-0.3,0-0.5,0.2-0.5,0.5c0,0.4,0.2,0.9,0.3,1.3c0,0.2,0,0.4,0,0.7c0-0.1-0.1-0.1-0.2-0.2
	c-0.2-0.2-0.5-0.6-0.6-0.8c-0.1-0.3-0.4-0.4-0.6-0.3c-0.3,0.1-0.4,0.4-0.3,0.6c0.1,0.4,0.5,0.8,0.7,1.2c0.1,0.1,0.2,0.2,0.2,0.3
	c0.1,0.3,0,1.2-0.1,1.7c-0.1,0.1-0.2,0.2-0.2,0.3c0-0.3-0.3-1.2-0.4-1.3c-0.1-0.2-0.2-0.3-0.5-0.5c-0.2-0.1-0.4-0.3-0.5-0.5
	c-0.2-0.2-0.5-0.3-0.7-0.1c-0.2,0.2-0.3,0.5-0.1,0.7c0.2,0.2,0.5,0.5,0.7,0.6c0.1,0.1,0.1,0.1,0.2,0.2c0.1,0.2,0.2,0.7,0.3,0.9
	c-0.1,0.2-0.5,1.1-1.2,1.1c-0.3-0.1-0.4-0.3-0.5-0.6c0-0.5,0-0.9,0-0.9c0-0.3-0.3-0.5-0.5-0.5c-0.3,0-0.5,0.3-0.5,0.5
	c0,0,0,0.4,0,0.9l0,0c0,0.2,0,0.4-0.1,0.5c-0.1,0.6,0,1.4,0.1,2.2c0.1,0.4,0.1,0.8,0.1,1c0,0.4,0,0.7,0,0.9c0,0.4,0,0.7,0.1,0.9
	c0.2,0.3,0.6,0.3,1,0.3c0.5,0,1-0.1,1-0.1c0.4-0.1,0.6-0.3,0.7-0.6c0,0,0-0.1,0-0.2c0-0.4,0.1-1.6,0.6-2.3c0.2-0.3,0.6-0.7,1-1.2
	c1.2-1.4,1.5-1.8,1.6-2C23.6,17.3,23.6,14.8,23.6,14.6z M16.6,18L16.6,18c0-0.5,0-0.9,0-0.9c0-0.3-0.2-0.5-0.5-0.5
	c-0.3,0-0.5,0.2-0.5,0.5c0,0,0,0.5,0,0.9c-0.1,0.3-0.2,0.5-0.5,0.6c-0.8,0-1.2-0.9-1.2-1.1c0-0.2,0.2-0.7,0.3-0.9
	c0,0,0.1-0.1,0.2-0.2c0.2-0.2,0.5-0.4,0.7-0.6c0.2-0.2,0.1-0.5-0.1-0.7s-0.5-0.1-0.7,0.1c-0.1,0.2-0.3,0.3-0.5,0.5
	c-0.2,0.2-0.4,0.3-0.5,0.5c0,0.1-0.3,0.9-0.4,1.3c-0.1-0.1-0.1-0.2-0.2-0.3c-0.2-0.6-0.3-1.5-0.2-1.8c0-0.1,0.2-0.2,0.2-0.3
	c0.3-0.3,0.6-0.8,0.7-1.2c0.2-0.2,0-0.5-0.3-0.6c-0.3-0.1-0.6,0.1-0.6,0.3c-0.1,0.2-0.4,0.6-0.6,0.8c-0.1,0.1-0.1,0.1-0.2,0.2
	c0-0.3,0-0.5,0-0.7c0.1-0.4,0.3-0.9,0.3-1.3c0-0.3-0.2-0.5-0.5-0.5c-0.3,0-0.5,0.2-0.5,0.5s-0.2,0.9-0.4,1.3
	c-0.1,0.4-0.2,0.5-0.2,0.7s0,2.7,0.1,3c0.1,0.2,0.4,0.7,1.6,2c0.4,0.5,0.7,0.9,1,1.2c0.5,0.7,0.6,1.9,0.6,2.3c0,0.1,0,0.1,0,0.2
	c0,0.3,0.3,0.5,0.7,0.6c0,0,0.5,0.1,1,0.1c0.4,0,0.8-0.1,1-0.3c0.2-0.2,0.1-0.5,0.1-0.9c0-0.2,0-0.5,0-0.9c0-0.2,0.1-0.6,0.1-1
	c0.1-0.8,0.3-1.6,0.1-2.2C16.7,18.4,16.6,18.2,16.6,18z"/>
</svg>
