<?xml version="1.0" encoding="utf-8"?>
<!-- Generator: Adobe Illustrator 26.5.0, SVG Export Plug-In . SVG Version: 6.00 Build 0)  -->
<svg version="1.1" id="レイヤー_1" xmlns="http://www.w3.org/2000/svg" xmlns:xlink="http://www.w3.org/1999/xlink" x="0px"
	 y="0px" viewBox="0 0 26 33" style="enable-background:new 0 0 26 33;" xml:space="preserve">
<style type="text/css">
	.st0{fill:#28323A;}
	.st1{fill:#FFFFFF;}
	.st2{fill:url(#SVGID_1_);}
	.st3{fill:#E1BB00;}
</style>
<g>
	<path class="st0" d="M24,0H2C0.9,0,0,0.9,0,2v5l0,0l0,0v17c0,1.1,0.9,2,2,2h7.5l3.5,7l3.5-7H24c1.1,0,2-0.9,2-2V2
		C26,0.9,25.1,0,24,0z"/>
</g>
<path class="st1" d="M10.4,25.6C10.2,25.2,9.9,25,9.5,25H2c-0.6,0-1-0.4-1-1V2c0-0.6,0.4-1,1-1h22c0.6,0,1,0.4,1,1v22
	c0,0.6-0.4,1-1,1h-7.5c-0.4,0-0.7,0.2-0.9,0.6L13,30.8L10.4,25.6z"/>
<linearGradient id="SVGID_1_" gradientUnits="userSpaceOnUse" x1="13" y1="5.5" x2="13" y2="32" gradientTransform="matrix(1 0 0 -1 0 34)">
	<stop  offset="0.2" style="stop-color:#FFFFFF"/>
	<stop  offset="0.8" style="stop-color:#D2E6EE"/>
</linearGradient>
<path class="st2" d="M11.3,25.1c-0.3-0.7-1-1.1-1.8-1.1H2V2h22v22h-7.5c-0.8,0-1.5,0.4-1.8,1.1L13,28.5L11.3,25.1z"/>
<path class="st3" d="M13,22.6c-5.2,0-9.4-4.2-9.4-9.4S7.8,3.8,13,3.8s9.4,4.2,9.4,9.4S18.2,22.6,13,22.6z M16.3,11.3
	C16.3,11.3,16.3,11.3,16.3,11.3c-0.3,0-0.5,0.2-0.6,0.4c-1.1,2.3-1.8,5.1-1.9,8.5c0,0.2,0.1,0.4,0.2,0.6c0.1,0.1,0.3,0.2,0.5,0.2
	c0,0,0.1,0,0.1,0c0.2,0,0.3-0.1,0.5-0.1c0.3-0.1,0.5-0.3,0.5-0.6c0.3-2.6,1.5-4.6,2.5-5.8c0.2-0.2,0.2-0.5,0.1-0.7
	c-0.3-0.8-0.8-1.5-1.4-2.2C16.7,11.4,16.5,11.3,16.3,11.3z M9.7,11.3c-0.2,0-0.4,0.1-0.5,0.2c-0.6,0.7-1.1,1.4-1.4,2.2
	c-0.1,0.2,0,0.5,0.1,0.7c1,1.2,2.2,3.1,2.5,5.8c0,0.3,0.2,0.5,0.5,0.6c0.2,0,0.3,0.1,0.5,0.1c0,0,0.1,0,0.1,0c0.2,0,0.3-0.1,0.5-0.2
	c0.2-0.1,0.3-0.4,0.2-0.6c-0.1-3.5-0.8-6.3-1.9-8.5c-0.1-0.2-0.3-0.4-0.5-0.4C9.7,11.3,9.7,11.3,9.7,11.3z M20.1,13.8
	c-0.2,0-0.4,0.1-0.5,0.2c-0.9,0.9-2.2,2.4-2.8,4.6c-0.1,0.3,0,0.6,0.3,0.8c0.1,0.1,0.3,0.1,0.4,0.1c0.2,0,0.3-0.1,0.4-0.2
	c1.5-1.2,2.5-2.8,2.8-4.7c0.1-0.3-0.1-0.6-0.4-0.8C20.3,13.9,20.2,13.8,20.1,13.8z M5.9,13.8c-0.1,0-0.2,0-0.3,0.1
	c-0.3,0.1-0.4,0.5-0.4,0.8c0.4,1.8,1.4,3.5,2.8,4.7c0.1,0.1,0.3,0.2,0.4,0.2c0.1,0,0.3,0,0.4-0.1c0.3-0.2,0.4-0.5,0.3-0.8
	c-0.6-2.1-1.8-3.7-2.8-4.6C6.3,13.9,6.1,13.8,5.9,13.8z M18.6,8c-0.2,0-0.4,0.1-0.5,0.2C17.8,8.6,17.4,9,17,9.6
	c-0.2,0.3-0.2,0.7,0.1,0.9c0.6,0.6,1.2,1.3,1.6,2c0.1,0.2,0.3,0.3,0.5,0.4c0,0,0.1,0,0.1,0c0.2,0,0.3-0.1,0.5-0.2
	c0.2-0.2,0.5-0.4,0.7-0.5c0.2-0.2,0.3-0.5,0.3-0.7c-0.3-1.2-0.8-2.3-1.6-3.2C19,8.1,18.8,8,18.6,8C18.6,8,18.6,8,18.6,8z M7.4,8
	C7.2,8,7,8.1,6.9,8.3c-0.8,1-1.3,2-1.6,3.2c-0.1,0.3,0.1,0.6,0.3,0.7c0.2,0.2,0.5,0.4,0.7,0.5c0.1,0.1,0.3,0.2,0.5,0.2
	c0,0,0.1,0,0.1,0c0.2,0,0.4-0.2,0.5-0.4c0.4-0.8,0.9-1.4,1.6-2C9.2,10.3,9.2,9.9,9,9.6C8.6,9,8.2,8.6,7.9,8.2C7.8,8.1,7.6,8,7.4,8
	C7.4,8,7.4,8,7.4,8z M13,5.3c-1.3,0-2.5,0.3-3.6,0.9C9.2,6.3,9.1,6.5,9,6.7c0,0.2,0,0.4,0.2,0.6c1.1,1.3,2.3,2.8,3.2,5.2
	c0.1,0.3,0.4,0.5,0.7,0.5s0.6-0.2,0.7-0.5c0.9-2.3,2-3.9,3.2-5.2C17,7.1,17,6.9,17,6.7c0-0.2-0.2-0.4-0.4-0.5
	C15.5,5.6,14.3,5.3,13,5.3z"/>
</svg>
