<?xml version="1.0" encoding="utf-8"?>
<!-- Generator: Adobe Illustrator 26.5.0, SVG Export Plug-In . SVG Version: 6.00 Build 0)  -->
<svg version="1.1" id="レイヤー_1" xmlns="http://www.w3.org/2000/svg" xmlns:xlink="http://www.w3.org/1999/xlink" x="0px"
	 y="0px" viewBox="0 0 26 33" style="enable-background:new 0 0 26 33;" xml:space="preserve">
<style type="text/css">
	.st0{fill:#28323A;}
	.st1{fill:#FFFFFF;}
	.st2{fill:url(#SVGID_1_);}
</style>
<g>
	<path class="st0" d="M24,0H2C0.9,0,0,0.9,0,2v5l0,0l0,0v17c0,1.1,0.9,2,2,2h7.5l3.5,7l3.5-7H24c1.1,0,2-0.9,2-2V2
		C26,0.9,25.1,0,24,0z"/>
</g>
<path class="st1" d="M10.4,25.6C10.2,25.2,9.9,25,9.5,25H2c-0.6,0-1-0.4-1-1V2c0-0.6,0.4-1,1-1h22c0.6,0,1,0.4,1,1v22
	c0,0.6-0.4,1-1,1h-7.5c-0.4,0-0.7,0.2-0.9,0.6L13,30.8L10.4,25.6z"/>
<linearGradient id="SVGID_1_" gradientUnits="userSpaceOnUse" x1="13" y1="5.5" x2="13" y2="32" gradientTransform="matrix(1 0 0 -1 0 34)">
	<stop  offset="0.2" style="stop-color:#FFFFFF"/>
	<stop  offset="0.8" style="stop-color:#D2E6EE"/>
</linearGradient>
<path class="st2" d="M11.3,25.1c-0.3-0.7-1-1.1-1.8-1.1H2V2h22v22h-7.5c-0.8,0-1.5,0.4-1.8,1.1L13,28.5L11.3,25.1z"/>
<path d="M15.7,5.7l-0.9,3.6L13,11.1l-1.8-1.8l-0.9-3.6L13,3.8L15.7,5.7z M22.4,9c0-0.2-0.1-0.4-0.3-1c-0.2-0.6-0.5-1.5-0.5-1.9
	c0-0.4-0.3-0.7-0.8-0.7c-0.4,0-0.7,0.4-0.7,0.8c0,0.6,0.2,1.3,0.4,1.9c0,0.3,0,0.6-0.1,1c-0.1-0.1-0.1-0.2-0.2-0.3
	c-0.3-0.4-0.7-0.9-0.8-1.2C19.4,7.2,19,7,18.6,7.1S18,7.6,18.1,8c0.2,0.6,0.7,1.2,1.1,1.7c0.1,0.2,0.3,0.4,0.3,0.4
	c0.1,0.4,0,1.7-0.2,2.4c-0.1,0.2-0.2,0.3-0.3,0.4c-0.1-0.5-0.5-1.7-0.5-1.8c-0.1-0.2-0.3-0.4-0.7-0.7c-0.3-0.2-0.6-0.5-0.8-0.7
	c-0.3-0.3-0.7-0.4-1-0.1c-0.3,0.3-0.4,0.7-0.1,1c0.3,0.4,0.7,0.7,1,0.9c0.1,0.1,0.2,0.2,0.3,0.2c0.1,0.3,0.3,1,0.4,1.3
	c-0.1,0.3-0.7,1.6-1.8,1.6c-0.5-0.1-0.6-0.4-0.7-0.8c0-0.7,0-1.3,0-1.3c0-0.4-0.4-0.7-0.8-0.7c-0.4,0-0.7,0.4-0.7,0.8
	c0,0,0,0.6,0,1.3c0,0,0,0,0,0c0,0.3,0,0.5-0.1,0.8c-0.2,0.8,0,2,0.2,3.1c0.1,0.6,0.2,1.2,0.2,1.5c0,0.6,0,1,0,1.3
	c0,0.6-0.1,1,0.2,1.4c0.3,0.4,0.9,0.5,1.5,0.5c0.7,0,1.4-0.1,1.4-0.1c0.6-0.1,0.9-0.5,1-0.9c0,0,0-0.1,0-0.2c0-0.6,0.1-2.3,0.9-3.3
	c0.3-0.4,0.8-1,1.4-1.7c1.7-2,2.1-2.6,2.2-2.9C22.5,12.8,22.4,9.3,22.4,9z M12.4,13.9C12.4,13.9,12.4,13.9,12.4,13.9
	c0-0.7,0-1.3,0-1.3c0-0.4-0.3-0.8-0.7-0.8c-0.4,0-0.8,0.3-0.8,0.7c0,0,0,0.7,0,1.3c-0.1,0.4-0.2,0.7-0.7,0.8c-1.1,0-1.7-1.3-1.8-1.6
	c0.1-0.3,0.3-1,0.4-1.3c0.1-0.1,0.2-0.2,0.3-0.2c0.3-0.3,0.7-0.6,1-0.9c0.3-0.3,0.2-0.8-0.1-1C9.7,9.4,9.2,9.5,9,9.8
	c-0.2,0.2-0.5,0.5-0.8,0.7c-0.4,0.3-0.6,0.5-0.7,0.7C7.5,11.3,7.1,12.5,7,13c-0.1-0.1-0.2-0.3-0.3-0.4c-0.2-0.7-0.3-2-0.2-2.4
	c0.1-0.1,0.2-0.3,0.3-0.4C7.2,9.2,7.7,8.6,7.9,8C8,7.6,7.8,7.2,7.4,7.1C7,7,6.6,7.2,6.5,7.6C6.4,7.9,6,8.5,5.7,8.8
	C5.6,8.9,5.5,9,5.4,9.1c0-0.4,0-0.7-0.1-1c0.2-0.6,0.4-1.4,0.4-1.9c0-0.4-0.3-0.7-0.7-0.8c-0.4,0-0.7,0.3-0.8,0.7
	c0,0.5-0.3,1.3-0.5,1.9C3.7,8.6,3.6,8.8,3.6,9c0,0.2-0.1,3.8,0.1,4.3c0.1,0.3,0.6,0.9,2.2,2.9c0.5,0.6,1,1.3,1.4,1.7
	c0.7,1,0.8,2.7,0.9,3.3c0,0.1,0,0.2,0,0.2c0,0.4,0.4,0.7,1,0.9c0,0,0.7,0.1,1.4,0.1c0.6,0,1.2-0.1,1.5-0.5c0.2-0.4,0.2-0.8,0.2-1.4
	c0-0.3,0-0.8,0-1.3c0-0.3,0.1-0.9,0.2-1.5c0.2-1.1,0.4-2.3,0.2-3.1C12.5,14.5,12.4,14.2,12.4,13.9z"/>
</svg>
