<?xml version="1.0" encoding="utf-8"?>
<!-- Generator: Adobe Illustrator 26.5.0, SVG Export Plug-In . SVG Version: 6.00 Build 0)  -->
<svg version="1.1" id="レイヤー_1" xmlns="http://www.w3.org/2000/svg" xmlns:xlink="http://www.w3.org/1999/xlink" x="0px"
	 y="0px" viewBox="0 0 26 33" style="enable-background:new 0 0 26 33;" xml:space="preserve">
<style type="text/css">
	.st0{fill:#28323A;}
	.st1{fill:#FFFFFF;}
	.st2{fill:url(#SVGID_1_);}
	.st3{fill:#00A300;}
</style>
<g>
	<path class="st0" d="M24,0H2C0.9,0,0,0.9,0,2v5l0,0l0,0v17c0,1.1,0.9,2,2,2h7.5l3.5,7l3.5-7H24c1.1,0,2-0.9,2-2V2
		C26,0.9,25.1,0,24,0z"/>
</g>
<path class="st1" d="M10.4,25.6C10.2,25.2,9.9,25,9.5,25H2c-0.6,0-1-0.4-1-1V2c0-0.6,0.4-1,1-1h22c0.6,0,1,0.4,1,1v22
	c0,0.6-0.4,1-1,1h-7.5c-0.4,0-0.7,0.2-0.9,0.6L13,30.8L10.4,25.6z"/>
<linearGradient id="SVGID_1_" gradientUnits="userSpaceOnUse" x1="13" y1="5.5" x2="13" y2="32" gradientTransform="matrix(1 0 0 -1 0 34)">
	<stop  offset="0.2" style="stop-color:#FFFFFF"/>
	<stop  offset="0.8" style="stop-color:#D2E6EE"/>
</linearGradient>
<path class="st2" d="M11.3,25.1c-0.3-0.7-1-1.1-1.8-1.1H2V2h22v22h-7.5c-0.8,0-1.5,0.4-1.8,1.1L13,28.5L11.3,25.1z"/>
<path class="st3" d="M21.5,10.3L23,9.8l-3.2-2l-0.6-1.9l-3.8-0.2L13,3.8l-2.4,1.8L6.8,5.9L6.2,7.8L3,9.8l1.5,0.5
	c0.1,0,4.4,1.4,6.5,4.1l-1.7-0.4l0.6,2.3l-2.1,1.2l2.1,1.2l-0.6,2.4l2.4-0.6l1.3,2.2l1.3-2.1l2.4,0.6l-0.6-2.3l2.1-1.2l-2.1-1.2
	l0.6-2.4l-1.7,0.4C17.1,11.7,21.4,10.3,21.5,10.3z M19.2,9.6c-1.3,0.6-3,1.5-4.4,2.8c0.9-1.7,2-3.1,2.8-4.1
	C18.4,8.7,18.9,9.2,19.2,9.6z M16.9,7.9c-1,1.1-2.2,2.8-3.1,4.8c0.4-2.5,1-4.4,1.4-5.4C15.8,7.4,16.4,7.6,16.9,7.9z M12.9,14.6
	l1,1.7L13,16.5l-1-0.3L12.9,14.6z M13,7c0.5,0,1,0,1.4,0.1c-0.4,1-1,2.8-1.4,5.3c-0.4-2.5-1-4.3-1.4-5.3C12,7.1,12.5,7,13,7z
	 M10.8,7.3c0.4,0.9,1,2.8,1.4,5.4c-0.9-2-2.2-3.6-3.1-4.8C9.6,7.6,10.2,7.4,10.8,7.3z M6.8,9.6c0.3-0.4,0.8-0.9,1.6-1.3
	c0.9,1,1.9,2.4,2.8,4.1C9.8,11.1,8,10.2,6.8,9.6z M11.8,18.5l-1.7-1l1.7-1l0.3,1L11.8,18.5z M13.1,20.5l-1-1.7l1-0.2l1,0.3
	L13.1,20.5z M14.2,18.6l-0.3-1l0.2-1l1.7,1L14.2,18.6z"/>
</svg>
