<?xml version="1.0" encoding="utf-8"?>
<!-- Generator: Adobe Illustrator 25.4.1, SVG Export Plug-In . SVG Version: 6.00 Build 0)  -->
<svg version="1.1" id="レイヤー_1" xmlns="http://www.w3.org/2000/svg" xmlns:xlink="http://www.w3.org/1999/xlink" x="0px"
	 y="0px" viewBox="0 0 512 512" style="enable-background:new 0 0 512 512;" xml:space="preserve">
<style type="text/css">
	.st0{fill-rule:evenodd;clip-rule:evenodd;fill:#3089CA;}
	.st1{clip-path:url(#SVGID_00000132076975827191271730000012695844562259690661_);}
	.st2{clip-path:url(#SVGID_00000070101463217195017180000008153967658460385930_);fill:#FFFFFF;}
</style>
<g>
	<path class="st0" d="M512,105.39C512,47.42,464.57,0,406.61,0H105.39C47.42,0,0,47.42,0,105.39v301.22
		C0,464.57,47.42,512,105.39,512h301.22C464.57,512,512,464.57,512,406.61C511.7,435.51,512,105.39,512,105.39z"/>
	<g id="p_1_">
		<defs>
			<path id="SVGID_1_" d="M387.07,136.41C358.47,111.42,318.43,97,271.89,97C150.6,97,68.11,190.64,68.11,190.64l23.25,36.9
				c0,0,12.86,1.08,6.05-20.66c5.88-11.11,17.39-26.07,39.86-43.34V409.4c-9.69,2.73-22.49,7.86-13.76,16.6h66.78
				c8.81-8.82-5.07-14.13-13.54-16.6v-58c0,0,45.79,17.97,95.15,17.97c43.37,0,82.83-12.9,112.18-36.21
				c29.35-23.18,48.26-57.79,48.15-97.35C432.3,196.96,415.69,161.32,387.07,136.41 M267.82,346.44
				c-37.98,0.02-69.96-7.34-91.07-17.74v-52.82V144.27c23.16-16.47,60.73-26.61,91.07-26.54c36.85,0.03,65.8,13.96,85.36,35.1
				c19.54,21.27,30.21,49.52,30.31,82.36c-0.12,32-11.52,58.35-31.82,78.57C331.38,333.8,301.87,346.47,267.82,346.44z"/>
		</defs>
		<clipPath id="SVGID_00000134957450014644370000000015106577217576307902_">
			<use xlink:href="#SVGID_1_"  style="overflow:visible;"/>
		</clipPath>
		<g style="clip-path:url(#SVGID_00000134957450014644370000000015106577217576307902_);">
			<defs>
				<rect id="SVGID_00000078726647445925053590000002735813052079169672_" width="512" height="512"/>
			</defs>
			<clipPath id="SVGID_00000153665000230893601530000009682904650863449022_">
				<use xlink:href="#SVGID_00000078726647445925053590000002735813052079169672_"  style="overflow:visible;"/>
			</clipPath>
			
				<rect x="63.11" y="92" style="clip-path:url(#SVGID_00000153665000230893601530000009682904650863449022_);fill:#FFFFFF;" width="374.11" height="339"/>
		</g>
	</g>
</g>
</svg>
