<?xml version="1.0" encoding="utf-8"?>
<!-- Generator: Adobe Illustrator 25.3.1, SVG Export Plug-In . SVG Version: 6.00 Build 0)  -->
<svg version="1.1" id="レイヤー_1" xmlns="http://www.w3.org/2000/svg" xmlns:xlink="http://www.w3.org/1999/xlink" x="0px"
	 y="0px" viewBox="0 0 841 293" style="enable-background:new 0 0 841 293;" xml:space="preserve">
<style type="text/css">
	.st0{fill:#FFFFFF;}
</style>
<path class="st0" d="M73.88,46.96c-0.93,0-1.82,0-2.68-0.01l-0.22-2.47c17.74-4.62,36.21-10.97,54.92-18.87
	c18.71-7.9,33.48-15.69,43.91-23.13l33.69,32.12c-1.64,1.49-3.87,2.25-6.63,2.25c-2.59,0-5.57-0.63-9.11-1.92
	c-0.33-0.12-0.68-0.18-1.03-0.18c-0.26,0-0.52,0.03-0.78,0.1c-10.06,2.7-29.81,6.55-49.42,8.61
	C113.53,45.87,88.49,46.96,73.88,46.96z M137.09,204.36c15.19,0,28.44,0.25,36.34,0.69c0.88-0.27,1.55-1.38,1.79-2.97
	c0.33-2.18-0.25-4.36-1.33-5.08l-9.43-0.69c-11.79-0.96-12.65-3.88-12.65-21.62v-61.18c0-1.66,1.34-3,3-3h55.2
	c3.43,0,5.54-1.28,6.29-3.82c-7.47-6.87-17.6-15.48-30.1-25.61l-15.95,21.69c-0.57,0.77-1.46,1.22-2.42,1.22h-13.03
	c-1.66,0-3-1.34-3-3V87.06c0-12.17,0.26-22.4,0.69-27.37c-0.5-2-2.33-2.53-3.22-2.53c-0.67,0-2.41,0.69-5.7,2.02
	c-3.83,1.54-9.06,3.66-14.77,5.34c-10.68,2.94-21.14,5.23-29.44,6.44c-0.67,0.5-1.39,1.92-1.23,4.26c0.12,1.83,0.77,3.28,1.69,3.79
	l10.58,1.38c10.09,1.38,11.04,4.77,11.04,20.01v0.59c0,1.66-1.34,3-3,3H93.44c-12.06-0.3-22.41-0.9-30.77-1.8l5.84,11.46
	c11.48-1.94,22.73-2.99,33.47-3.14h16.48c1.66,0,3,1.34,3,3v61.18c0,17.74-0.86,20.66-12.65,21.62L99.37,197
	c-1.08,0.72-1.66,2.91-1.33,5.08c0.24,1.59,0.91,2.7,1.79,2.97C107.73,204.61,121.31,204.36,137.09,204.36z M51.55,216.64
	c5.73-2.46,9.25-4.76,10.44-6.85c-0.9-17.17-1.5-35.29-1.8-53.91V83.44c0-1.17,0.67-2.22,1.73-2.72l1.64-0.76
	c0.6-0.3,1.05-0.6,1.35-0.9c0.34-0.37,0.48-0.82,0.42-1.34c-0.09-0.74-0.37-2.97-9.51-9.22c-1.31-0.9-1.7-2.66-0.88-4.02
	c7.96-13.33,14.95-28.04,20.76-43.73c0.29-0.78,0.89-1.4,1.65-1.72l2.97-1.25c0.06-0.03,0.12-0.05,0.19-0.07
	c0.88-0.3,1.93-0.82,1.93-1.54c-0.01-0.15-0.02-0.36-0.03-0.41C81.73,14.4,75.32,10.53,39.98,0c0,12.51-3.02,29.19-8.98,49.64
	c-9.09,28.77-19.52,53.18-31,72.55l2.47,1.57c7.53-5.44,14.49-11.35,20.71-17.55c0.57-0.57,1.34-0.88,2.12-0.88
	c0.39,0,0.78,0.08,1.15,0.23c1.12,0.46,1.85,1.56,1.85,2.77v47.77c-0.3,20.01-1.13,40.12-2.47,59.75c0,2.98,2.8,4.49,8.31,4.49
	C39.95,220.34,45.81,219.09,51.55,216.64z M259.63,292.65c11.93-1.94,23.56-3,34.59-3.14h104.22c3.28,0,5.32-1.29,6.06-3.82
	c0-1.66-3.71-5.85-11.34-12.8c-7.53-6.86-12.1-10.33-13.59-10.33c-1.06,0-3.77,3.37-8.31,10.33l-5.85,8.77
	c-0.56,0.83-1.49,1.34-2.5,1.34h-18.53c-1.66,0-3-1.34-3-3v-39.37c0-1.66,1.34-3,3-3h45.07c3.43,0,5.47-1.21,6.06-3.59
	c0-1.66-3.53-5.74-10.78-12.47c-7.16-6.63-11.54-10-13.03-10c-0.89,0-3.62,3.34-8.09,9.88l-5.62,8.53c-0.56,0.84-1.5,1.35-2.5,1.35
	h-11.11c-1.66,0-3-1.34-3-3v-13.45c0-0.96,0.46-1.85,1.23-2.42l2.02-1.48c0.08-0.06,0.16-0.11,0.24-0.16
	c1.46-0.87,1.46-1.52,1.46-1.73c0-3.37-28.4-8.95-37.73-10.78c1.23,8.23,1.91,18.32,2.01,29.99c0.01,0.8-0.31,1.57-0.87,2.14
	c-0.56,0.57-1.33,0.89-2.13,0.89h-9.12c-3.03-0.05-6.16-0.18-9.3-0.39c-0.93-0.06-1.78-0.55-2.3-1.33
	c-0.52-0.78-0.65-1.75-0.34-2.63c2.17-6.37,3.28-13.38,3.28-20.83c0-1.28-0.04-2.61-0.13-3.94c-0.07-1.05,0.42-2.06,1.29-2.66
	c0.39-0.27,0.77-0.54,1.14-0.81c0.34-0.25,0.67-0.49,1.01-0.74c0.52-0.39,1.03-0.78,1.52-1.18c4.71-3.65,8.98-7.64,12.71-11.88
	c8.22-9.34,14.18-20.22,17.71-32.32c0.37-1.28,1.55-2.16,2.88-2.16h4.6c1.66,0,3,1.34,3,3v15.19c0,12.82,1.62,21.36,4.83,25.38
	c3.2,4.02,10.27,6.06,21,6.06h16.17c15.2,0,22.91-6.27,22.91-18.64c0-2.53-0.45-4.35-1.35-5.39c-0.78-0.91-2.61-2.11-5.61-3.69
	c-0.97-0.51-1.59-1.51-1.6-2.6L391.7,159h-2.25c-2.23,7-4.1,11.43-5.62,13.25c-1.06,1.21-2.38,1.8-4.04,1.8h-12.47
	c-1.61,0-2.93-1.27-3-2.88c-0.02-0.46-0.03-1.06-0.03-1.84v-15.87c0-1.66,1.34-3,3-3h28.89c3.58,0,5.69-1.21,6.29-3.59
	c0-1.66-3.53-5.74-10.78-12.47c-7.16-6.63-11.54-10-13.03-10c-0.89,0-3.63,3.34-8.09,9.88l-5.4,8.29c-0.55,0.85-1.5,1.36-2.51,1.36
	h-18.06c-1.66,0-3-1.34-3-3V119.1c0-1.66,1.34-3,3-3h41.47c3.63,0,5.61-1.25,6.06-3.82c0-1.63-3.48-5.68-10.33-12.02
	c-6.96-6.42-11.07-9.55-12.58-9.55c-1.35,0-6.27,7.13-7.86,9.43l-5.4,8.1c-0.56,0.83-1.49,1.34-2.5,1.34h-8.87c-1.66,0-3-1.34-3-3
	V92.8c0-1.02,0.52-1.97,1.37-2.52l2.45-1.58c1.19-0.75,1.8-1.43,1.8-2.02c0-1.19-3.25-2.72-9.66-4.55c-6.42-1.83-16.16-4-28.97-6.46
	c1.24,8.39,1.91,18.79,2.01,30.89c0.01,0.8-0.31,1.57-0.87,2.14c-0.56,0.57-1.33,0.89-2.13,0.89h-17.97
	c-8.93-0.14-16.77-1.1-17.1-1.14l5,10c0.08-0.02,8.03-2.35,14-2.35h16.09c1.66,0,3,1.34,3,3v21.85c0,1.66-1.34,3-3,3h-15.19
	c-12.06-0.3-22.42-0.9-30.77-1.8l6.06,11.45c4.75-1.93,9.34-2.99,13.65-3.14c0.04,0,5.42,0,5.42,0c0.83,0,1.62,0.34,2.19,0.95
	s0.86,1.42,0.8,2.25c-0.51,7.59-1.55,14.76-3.11,21.33c-0.27,1.15-1.2,2.04-2.37,2.26c-0.18,0.03-0.37,0.05-0.55,0.05
	c-0.98,0-1.91-0.48-2.47-1.3c-7.35-10.73-18.71-16.4-32.84-16.4c-8.2,0-18.91,5.72-23,10.84c-0.25,1.88,0.35,3.54,1.6,4.43
	l0.63-0.08c1.2-0.15,2.24-0.27,3.24-0.27c0.52,0,0.98,0.03,1.43,0.1c8.79,0,15.7,5.76,20.53,17.12c4.2,9.88,5.69,21.81,5.69,29.68
	c0,20.52-9.03,27.83-17.48,27.83c-16.43,0-25.3-29.31-25.3-56.89c0-25.67,6.12-47.97,17.25-62.8
	c12.87-16.98,24.62-26.97,53.13-34.48c1.22-1.57,1.74-3.62,1.38-5.47c-0.27-1.41-1.01-2.53-2.07-3.15
	c-26.26,1.41-54.28,14.34-73.14,33.74c-18.87,19.45-30.13,47.25-30.13,74.38c0,40.1,21.58,66.01,54.97,66.01
	c17.34,0,32.08-6.68,41.5-18.82c0.41-0.52,0.97-0.9,1.61-1.06c7.3-1.9,13.71-2.94,19.13-3.08h8.23c1.66,0,3,1.34,3,3v39.37
	c0,1.66-1.34,3-3,3h-23.28c-12.1-0.3-22.45-0.91-30.77-1.8L259.63,292.65z M695.63,218.65c11.93-1.94,23.56-3,34.59-3.14h104.22
	c3.28,0,5.32-1.29,6.06-3.82c0-1.66-3.71-5.85-11.34-12.8c-7.53-6.86-12.1-10.33-13.59-10.33c-1.06,0-3.77,3.37-8.31,10.33
	l-5.85,8.77c-0.56,0.83-1.49,1.34-2.5,1.34h-18.53c-1.66,0-3-1.34-3-3v-39.37c0-1.66,1.34-3,3-3h45.07c3.43,0,5.47-1.21,6.06-3.59
	c0-1.66-3.53-5.74-10.78-12.47c-7.16-6.63-11.54-10-13.03-10c-0.89,0-3.62,3.34-8.09,9.88l-5.62,8.53c-0.56,0.84-1.5,1.35-2.5,1.35
	h-11.11c-1.66,0-3-1.34-3-3v-13.45c0-0.96,0.46-1.85,1.23-2.42l2.02-1.48c0.08-0.06,0.16-0.11,0.24-0.16
	c1.46-0.87,1.46-1.52,1.46-1.73c0-3.37-28.4-8.95-37.73-10.78c1.23,8.23,1.91,18.32,2.01,29.99c0.01,0.8-0.31,1.57-0.87,2.14
	c-0.56,0.57-1.33,0.89-2.13,0.89h-9.12c-3.03-0.05-6.16-0.18-9.3-0.39c-0.93-0.06-1.78-0.55-2.3-1.33
	c-0.52-0.78-0.65-1.75-0.34-2.63c2.17-6.37,3.28-13.38,3.28-20.83c0-1.28-0.04-2.61-0.13-3.94c-0.07-1.05,0.42-2.06,1.29-2.66
	c0.39-0.27,0.77-0.54,1.14-0.81c0.34-0.25,0.67-0.49,1.01-0.74c0.52-0.39,1.03-0.78,1.52-1.18c4.71-3.65,8.98-7.64,12.71-11.88
	c8.22-9.34,14.18-20.22,17.71-32.32c0.37-1.28,1.55-2.16,2.88-2.16h4.6c1.66,0,3,1.34,3,3v15.19c0,12.82,1.62,21.36,4.83,25.38
	c3.2,4.02,10.27,6.06,21,6.06h16.17c15.2,0,22.91-6.27,22.91-18.64c0-2.53-0.45-4.35-1.35-5.39c-0.78-0.91-2.61-2.11-5.61-3.69
	c-0.97-0.51-1.59-1.51-1.6-2.6L827.7,85h-2.25c-2.23,7-4.1,11.43-5.62,13.25c-1.06,1.21-2.38,1.8-4.04,1.8h-12.47
	c-1.61,0-2.93-1.27-3-2.88c-0.02-0.46-0.03-1.06-0.03-1.84V79.47c0-1.66,1.34-3,3-3h28.89c3.58,0,5.69-1.21,6.29-3.59
	c0-1.66-3.53-5.74-10.78-12.47c-7.16-6.63-11.54-10-13.03-10c-0.89,0-3.63,3.34-8.09,9.88l-5.4,8.29c-0.55,0.85-1.5,1.36-2.51,1.36
	h-18.06c-1.66,0-3-1.34-3-3V45.1c0-1.66,1.34-3,3-3h41.47c3.63,0,5.61-1.25,6.06-3.82c0-1.63-3.48-5.68-10.33-12.02
	c-6.96-6.42-11.07-9.55-12.58-9.55c-1.35,0-6.27,7.13-7.86,9.43l-5.4,8.1c-0.56,0.83-1.49,1.34-2.5,1.34h-8.87c-1.66,0-3-1.34-3-3
	V18.8c0-1.02,0.52-1.97,1.37-2.52l2.45-1.58c1.19-0.75,1.8-1.43,1.8-2.02c0-1.19-3.25-2.72-9.66-4.55c-6.42-1.83-16.16-4-28.97-6.46
	c1.24,8.39,1.91,18.79,2.01,30.89c0.01,0.8-0.31,1.57-0.87,2.14c-0.56,0.57-1.33,0.89-2.13,0.89h-17.97
	c-8.93-0.14-16.77-1.1-17.1-1.14l5,10c0.08-0.02,8.03-2.35,14-2.35h16.09c1.66,0,3,1.34,3,3v21.85c0,1.66-1.34,3-3,3h-15.19
	c-12.06-0.3-22.42-0.9-30.77-1.8l6.06,11.45c4.75-1.93,9.34-2.99,13.65-3.14c0.04,0,5.42,0,5.42,0c0.83,0,1.62,0.34,2.19,0.95
	s0.86,1.42,0.8,2.25c-0.51,7.59-1.55,14.76-3.11,21.33c-0.27,1.15-1.2,2.04-2.37,2.26c-0.18,0.03-0.37,0.05-0.55,0.05
	c-0.98,0-1.91-0.48-2.47-1.3c-7.35-10.73-18.71-16.4-32.84-16.4c-8.2,0-18.91,5.72-23,10.84c-0.25,1.88,0.35,3.54,1.6,4.43
	l0.63-0.08c1.2-0.15,2.24-0.27,3.24-0.27c0.52,0,0.98,0.03,1.43,0.1c8.79,0,15.7,5.76,20.53,17.12c4.2,9.88,5.69,21.81,5.69,29.68
	c0,20.52-9.03,27.83-17.48,27.83c-16.43,0-25.3-29.31-25.3-56.89c0-25.67,6.12-47.97,17.25-62.8
	c12.87-16.98,24.62-26.97,53.13-34.48c1.22-1.57,1.74-3.62,1.38-5.47c-0.27-1.41-1.01-2.53-2.07-3.15
	c-26.26,1.41-54.28,14.34-73.14,33.74c-18.87,19.45-30.13,47.25-30.13,74.38c0,40.1,21.58,66.01,54.97,66.01
	c17.34,0,32.08-6.68,41.5-18.82c0.41-0.52,0.97-0.9,1.61-1.06c7.3-1.9,13.71-2.94,19.13-3.08h8.23c1.66,0,3,1.34,3,3v39.37
	c0,1.66-1.34,3-3,3h-23.28c-12.1-0.3-22.45-0.91-30.77-1.8L695.63,218.65z M602.53,253.46c4.47-5.37,6.74-13.9,6.74-25.38V63.72
	c0-1.02,0.52-1.97,1.37-2.52l2.45-1.58c1.19-0.75,1.8-1.43,1.8-2.02c0-1.13-2.96-2.6-9.04-4.49c-5.99-1.86-15.11-4.13-27.12-6.74
	c1.94,12.09,2.92,27.96,2.92,47.17v131.62c0,1.14-0.27,2.05-0.81,2.71c-0.05,0.07-0.11,0.13-0.17,0.19
	c-0.74,0.76-1.92,1.14-3.5,1.14c-3.28,0-12.2-0.45-26.5-1.35V231c8.91,1.64,15.24,5.09,18.83,10.27c0.03,0.04,0.05,0.08,0.08,0.12
	c2.51,4.04,4.16,11.5,4.9,22.17C588.81,262.21,598,258.9,602.53,253.46z M418.87,264.24c13.45-1.21,21.94-4.37,25.94-9.66
	c4.01-5.29,5.95-13.6,5.95-25.38v-68.15c0-0.93,0.43-1.81,1.17-2.37c2.88-2.23,6.3-4.99,10.18-8.2c4.38-3.64,7.29-6.02,8.65-7.08
	l-0.45-2.25c-2.22,0.44-5.45,1.18-9.88,2.25c-2.3,0.56-4.3,1.03-5.98,1.42c-0.22,0.05-0.45,0.08-0.68,0.08
	c-0.67,0-1.33-0.23-1.87-0.65c-0.72-0.57-1.13-1.43-1.13-2.35v-33.68c0-1.66,1.34-3,3-3h8.11c1.5,0,2.76,1.1,2.97,2.58
	c1.75,12.44,8.52,23,20.12,31.4c0.8,0.58,1.27,1.52,1.24,2.51c-0.03,0.99-0.54,1.9-1.38,2.44c-17.79,11.42-26.44,25.01-26.44,41.54
	c0,13.5,5.22,24.65,15.09,32.26c8.88,6.85,21.41,10.62,35.27,10.62c21.66,0,38.24-7.82,46.7-22.02c0.46-0.78,1.26-1.31,2.16-1.44
	c2.96-0.42,6.06-1.35,9.2-2.76c4.47-2.01,7.19-3.94,8.08-5.73c-0.9-17.18-1.5-35.3-1.8-53.91V76.05c0-1,0.5-1.94,1.34-2.5
	c0,0,1.37-0.91,1.4-0.93c0.72-0.44,1.08-0.88,1.08-1.32c-0.01-0.13-0.02-0.31-0.03-0.35c-0.27-0.56-2.97-3.66-29.37-9.5
	c0,0.02,0.09,0.74,0.22,2.04c0.12,1.23-0.51,2.41-1.61,2.97c-0.43,0.22-0.91,0.33-1.37,0.33c-0.71,0-1.42-0.25-1.98-0.75
	c-7.9-6.93-18.72-10.6-31.27-10.6c-21.17,0-38.23,11.29-44.52,29.45c-0.35,1.02-1.22,1.77-2.28,1.97c-0.18,0.04-0.37,0.05-0.55,0.05
	c-0.87,0-1.71-0.38-2.29-1.06c-2.32-2.73-3.89-4.57-4.38-5.13l-1.07,2.08c-0.52,1.01-1.56,1.62-2.66,1.62
	c-0.23,0-0.47-0.03-0.71-0.08c-1.34-0.33-2.29-1.53-2.29-2.92V61.35c0-1.07,0.57-2.06,1.5-2.6c0,0,2.72-1.58,2.77-1.6
	c1.19-0.75,1.8-1.43,1.8-2.02c0-3.59-27.56-9.51-36.61-11.46c1.94,12.09,2.92,27.96,2.92,47.17v4.86c0,1.66-1.34,3-3,3h-3.89
	c-0.05,0-0.1,0-0.15,0c-6.08-0.3-11.34-0.9-15.65-1.79l5.62,11.46c3.38-1.76,6.96-2.82,10.65-3.13c0.09-0.01,0.17-0.01,0.26-0.01
	h3.17c1.66,0,3,1.34,3,3v41.03c0,1.43-1.01,2.66-2.42,2.94c-9.92,1.97-16.82,3.24-20.49,3.79l10.56,35.04
	c2.76-0.69,4.85-2.62,6.21-5.75c0.22-0.51,0.58-0.95,1.04-1.27l0.4-0.27c0.51-0.35,1.11-0.53,1.71-0.53c0.48,0,0.95,0.11,1.39,0.34
	c0.99,0.52,1.61,1.54,1.61,2.66v40.09c0,0.45-0.04,0.86-0.13,1.22c-0.26,1.12-1.14,2-2.26,2.25c-0.36,0.08-0.77,0.12-1.21,0.12
	c-2.4,0-8.67-0.3-18.64-0.9v2.92c6.86,1.64,11.53,4.81,14.27,9.69c0.07,0.13,0.13,0.26,0.18,0.39
	C417.24,246.9,418.43,254.39,418.87,264.24C418.87,264.24,418.87,264.24,418.87,264.24z M501.99,150.37
	c17.73,9.91,29.54,20.7,29.54,41.15c0,17.1-9.9,24.88-19.09,24.88c-16.01,0-24.38-16.91-24.38-33.62c0-12.58,3.3-22.93,10.1-31.64
	c0.59-0.75,1.47-1.15,2.37-1.15C501.02,149.99,501.52,150.11,501.99,150.37z M547.62,122.34c1.11,0.47,1.83,1.56,1.83,2.77
	l-0.04,15.64c0,1.18-0.7,2.25-1.78,2.73c-0.39,0.17-0.81,0.26-1.22,0.26c-0.73,0-1.44-0.26-2.01-0.77
	c-2.79-2.51-6.03-4.96-9.63-7.28c-0.84-0.54-1.36-1.47-1.37-2.47c-0.02-1,0.47-1.95,1.29-2.51c3.98-2.75,7.05-5.22,9.67-7.76
	c0.57-0.55,1.32-0.84,2.09-0.84C546.85,122.1,547.25,122.18,547.62,122.34z M530.15,96.22c0,11.91-3.51,22.2-9.39,27.53
	c-0.56,0.51-1.29,0.78-2.02,0.78c-0.47,0-0.94-0.11-1.37-0.33c-16.78-8.66-24.94-19.11-24.94-31.95c0-14.04,8.01-24.62,18.63-24.62
	C523.01,67.63,530.15,82.16,530.15,96.22z"/>
</svg>
