<?xml version="1.0" encoding="utf-8"?>
<!-- Generator: Adobe Illustrator 26.5.0, SVG Export Plug-In . SVG Version: 6.00 Build 0)  -->
<svg version="1.1" id="icon" xmlns="http://www.w3.org/2000/svg" xmlns:xlink="http://www.w3.org/1999/xlink" x="0px" y="0px"
	 viewBox="0 0 1502.4 1502.4" style="enable-background:new 0 0 1502.4 1502.4;" xml:space="preserve">
<style type="text/css">
	.st0{fill:#838E83;}
	.st1{opacity:0.4;fill:#838E83;}
</style>
<path class="st0" d="M1262.6,409.2c7.2-4.6,16.7-2.4,21.3,4.9c4.6,7.2,2.5,16.7-4.7,21.2c-7.2,4.6-16.8,2.6-21.4-4.6
	C1253.2,423.5,1255.3,413.9,1262.6,409.2z M1360.5,350.9c10-6.3,15.5,2.3,16.4,3.8c4.2,6.6,3.1,12.4-3.3,16.5l-64.2,40.9
	c-10,6.3-15.5-2.3-16.4-3.8c-4.2-6.6-2.9-12.5,3.4-16.6L1360.5,350.9z M1288.5,257.1c9.1-7.5,15.6,0.5,16.7,1.8
	c5.1,6.2,4.6,12.1-1.2,16.9l-43.5,35.7c-6.9,5.6-12.6,14.3-4.7,24c6.8,8.3,18.7,8.5,27.1,5.8l44.6-36.5c9.1-7.5,15.7,0.6,16.7,1.8
	c1.4,1.7,7.8,9.5-1.2,16.9l-58.8,48.2c-9.1,7.5-15.7-0.6-16.7-1.8c-2.2-2.6-6.6-10.5,0.4-16.2l3.6-2.9c-6,0.3-19,0.8-29.9-12.4
	c-9.3-11.4-16.2-29.4,6.8-48.3L1288.5,257.1z M1192.8,305.7c-16.5,17.6-31,9.1-38.8,1.8c-5.4-5-14-17.6-9.7-22.2
	c2.1-2.2,4.9-2,6.8-0.2c0.9,0.8,1.4,2.3,2.2,3.7c0.7,1.6,2,3.3,3.3,4.5c5.6,5.3,11.4,3.4,17-2.6l12.9-13.7l-13.5-12.6
	c-2.4-2.2-2.2-5.4-0.5-7.2c1.9-2,5-2.3,7.4-0.1l13.5,12.6l51.3-54.6c8.1-8.6,15.7-1.5,16.8-0.4c1.6,1.5,9,8.4,1,16.9l-51.4,54.7
	l7.7,7.3c2.2,2.1,2.1,5.3,0.3,7.1c-1.9,2-4.9,2.5-7.3,0.2l-7.7-7.3L1192.8,305.7z M1121.6,166.6c17.4-23.9,43.1-30.1,66.1-13.4
	c23.2,16.9,24.9,43.3,7.6,67.1c-16.7,22.9-42.4,30.6-66.2,13.3C1105.5,216.5,1104.7,189.7,1121.6,166.6z M1174.8,205.4
	c19.5-26.8,15-37.7,6.7-43.8c-7.6-5.5-19.4-7.6-39.5,19.9c-18.5,25.4-15.6,37.1-6.8,43.5C1143.5,231.1,1155.3,232,1174.8,205.4z
	 M1098.1,110.6c5.6-10.4,14.6-5.5,16.1-4.7c1.8,1,10.7,5.7,5.2,16l-36,67c-5.6,10.4-14.6,5.5-16.1,4.7c-6.9-3.7-8.7-9.5-5.1-16.1
	l4.5-8.4c-10.1,9-22.5,12.2-32.4,6.9c-5.6-3-7.1-9.5-4.6-14.3c4.5-8.4,12.9-4.9,16.7-3.3c16.6,7,24.4-0.3,28-3.6L1098.1,110.6z
	 M913,37.8c3.7-11.2,13.6-8,15-7.5c2.1,0.7,11.7,3.8,8.1,14.9L918,100.8c-1.8,5.5-4.4,15.7,6.4,19.2c8.6,2.8,15.9-1.3,23.5-9.8
	l18-55.2c3.7-11.2,13.4-8,15-7.5c7.5,2.4,10.4,7.7,8.1,14.9l-18,55.3c-2.3,7-4.3,16,6.1,19.4c12.8,4.2,21-6.6,24.2-10.8l17.6-54
	c3.7-11.2,13.4-8,15-7.5c2,0.6,11.5,3.8,7.9,14.8l-23.6,72.4c-3.7,11.2-13.6,8-15,7.5c-6.5-2.1-10.4-7.3-8.2-14l1.3-3.9
	c-14,11.1-27.4,6.7-30.8,5.6c-3.3-1.1-17.2-5.6-19.3-24.3c-6,4.5-16.5,12.6-33.3,7.2c-10.9-3.5-25.1-15-17.7-37.9L913,37.8z
	 M812.5,82.6c-1.3,11.2,1,20.2,14.7,21.8c7.3,0.8,13.8-1.5,17.2-10.4c1.5-4,3.7-9.7,13.7-8.6c6.5,0.7,11.6,5.6,11,11.1
	c-0.9,7.8-15.1,21.9-42.9,18.7c-20-2.3-40.1-11.8-36.7-41.4l4.2-36.9c0.3-2.5,0.1-5.3,0-7.4c-0.1-1.9-1.3-6.7-1.1-8
	c0.6-5.3,7.8-9.4,14.2-8.7c6.5,0.7,9.2,5,10.7,11.9c13.8-9.1,28.2-7.4,33-6.9c24.5,2.8,30.7,17.6,29.1,31.4
	c-3.7,32.1-41.6,28.5-66.2,26.2L812.5,82.6z M814.5,65.5c21.4,2.1,38.2,1.3,40.5-18.1c1-9-1.6-17.4-14.7-18.9
	c-3.1-0.4-12.3-0.7-22.2,5.9L814.5,65.5z M735.4,36.2c-0.1-6-1.7-12.3-9.7-12.2c-1.4,0-3.8,0.2-5.5,0.9c-1.5,0.7-3.4,1.7-4.8,1.8
	c-2.2,0-4.6-1.5-4.7-4.7c0-2.9,2.5-4.6,5.4-6c5.6-2.8,11.2-4.2,18.1-4.3c13-0.1,25.2,5.6,25.4,25.6l0.6,60.9l11.3-0.1
	c3.2,0,5.2,2.3,5.2,4.9c0,2.7-1.8,5.1-5.1,5.2l-11.3,0.1l0.2,20.5c0.1,11.8-10.1,11.9-11.9,11.9c-2.4,0-12.3,0.1-12.4-11.7
	l-0.2-20.5l-18.3,0.2c-2.9,0-5.2-2.2-5.2-4.9c0-3.1,2.3-5.2,5.1-5.2l18.3-0.2L735.4,36.2z M665.2,28.2c-1.2-11.7,9-12.8,10.7-13
	c7.8-0.8,12.5,2.9,13.3,10.3l7.7,75.7c1.2,11.7-9,12.8-10.7,13c-7.8,0.8-12.5-3-13.3-10.5L665.2,28.2z M673.3,141.9
	c-0.9-8.5,5.4-16,13.9-16.9s16,5.2,16.9,13.8c0.9,8.5-5.2,16.2-13.7,17C681.9,156.6,674.2,150.5,673.3,141.9z M557.6,87.3
	c-6.4-28.9,6-52.3,33.7-58.4c28.1-6.2,49,10,55.3,38.7c6.1,27.7-5.1,52.1-33.8,58.4C584.4,132.3,563.8,115.2,557.6,87.3z
	 M621.9,73.1c-7.2-32.4-18.3-36.2-28.4-34c-9.2,2-18.6,9.5-11.2,42.8c6.8,30.7,17.5,36.2,28.1,33.9
	C620.5,113.5,629,105.3,621.9,73.1z M441.4,91.1c-4.4-11,5.1-14.8,6.7-15.4c7.5-3,13-0.8,15.8,6.2l20.9,52.2
	c3.3,8.3,9.8,16.3,21.4,11.7c10-4,13.8-15.3,13.7-24.1l-21.4-53.5c-4.4-11,5.3-14.8,6.7-15.4c2.1-0.8,11.4-4.6,15.8,6.2l28.3,70.6
	c4.4,11-5.3,14.8-6.7,15.4c-3.2,1.3-12,3.1-15.4-5.3l-1.7-4.3c-1.6,5.8-5,18.4-20.9,24.7c-13.7,5.5-32.9,6.5-44-21.1L441.4,91.1z
	 M809,1364.3c0.6,8.5-5.9,15.8-14.5,16.4c-8.5,0.6-15.8-5.8-16.4-14.3c-0.6-8.5,5.8-16,14.3-16.6
	C800.9,1349.3,808.4,1355.6,809,1364.3z M813.4,1478.2c0.8,11.8-9.4,12.5-11.1,12.6c-7.8,0.5-12.4-3.3-12.9-10.8l-5.2-75.9
	c-0.8-11.8,9.4-12.5,11.1-12.6c7.8-0.5,12.4,3.4,12.9,10.9L813.4,1478.2z M930.2,1459.7c2.2,11.6-7.9,13.5-9.5,13.8
	c-7.9,1.5-12.9-1.7-14.3-9.1l-10.6-55.3c-1.7-8.7-6.6-17.9-18.8-15.6c-10.6,2-16.4,12.4-18.1,21l10.8,56.6c2.2,11.6-8,13.5-9.5,13.8
	c-2.2,0.4-12.1,2.3-14.3-9.1l-14.3-74.7c-2.2-11.6,8-13.5,9.5-13.8c3.4-0.6,12.4-0.8,14.1,8.1l0.9,4.5c2.6-5.4,8.4-17.1,25.2-20.3
	c14.4-2.8,33.6-0.2,39.2,29.1L930.2,1459.7z M933.2,1352.4c-7.6-22.9,6.8-31.6,16.9-34.9c7-2.3,22.1-3.9,24.1,2.1c1,2.9-0.6,5.2-3,6
	c-1.1,0.4-2.7,0.2-4.3,0.2c-1.7-0.2-3.9,0.2-5.5,0.7c-7.3,2.4-8.4,8.4-5.8,16.2l5.9,17.9l17.5-5.8c3.1-1,5.8,0.6,6.6,3
	c0.9,2.6-0.3,5.5-3.4,6.5l-17.5,5.8l23.5,71.1c3.7,11.2-6.2,14.5-7.7,15c-2.1,0.7-11.7,3.9-15.3-7.2l-23.5-71.3l-10.1,3.3
	c-2.9,1-5.6-0.7-6.4-3.1c-0.9-2.6,0.2-5.5,3.3-6.5l10.1-3.3L933.2,1352.4z M1089.5,1356.3c12.7,26.7,5.9,52.3-19.8,64.5
	c-26,12.3-50,1.2-62.6-25.4c-12.2-25.6-6.7-51.9,19.9-64.5C1053.3,1318.3,1077.2,1330.5,1089.5,1356.3z M1030,1384.5
	c14.2,30,26,31.2,35.2,26.8c8.5-4,16-13.4,1.4-44.2c-13.5-28.4-25.1-31.4-35-26.7C1022.3,1344.8,1015.8,1354.7,1030,1384.5z
	 M1149.9,1362.4c6.5,9.9-2.1,15.5-3.5,16.4c-1.7,1.1-10.2,6.7-16.5-3.1l-41.7-63.6c-6.5-9.9,2.1-15.5,3.5-16.4
	c6.6-4.3,12.5-3.1,16.6,3.2l5.2,8c-3.1-13.1,0-25.6,9.5-31.7c5.3-3.5,11.7-1.8,14.7,2.8c5.2,8-1.9,13.7-5.1,16.2
	c-14.1,11.3-11.4,21.6-10.2,26.3L1149.9,1362.4z M1302.2,1234.6c8.1,8.6,0.5,15.7-0.6,16.8c-1.6,1.5-8.9,8.5-16.9,0l-40.2-42.5
	c-4-4.2-11.7-11.3-19.9-3.6c-6.6,6.2-6.4,14.6-2.6,25.3l39.9,42.1c8.1,8.6,0.7,15.6-0.6,16.8c-5.7,5.4-11.8,5.5-16.9,0l-40-42.2
	c-5.1-5.3-12-11.5-20-3.9c-9.8,9.3-4.2,21.7-2.1,26.4l39,41.2c8.1,8.6,0.7,15.6-0.6,16.8c-1.5,1.4-8.8,8.3-16.8-0.1l-52.3-55.3
	c-8.1-8.6-0.5-15.7,0.6-16.8c5-4.7,11.4-5.6,16.2-0.5l2.8,3c-3-17.6,7.2-27.3,9.8-29.7c2.5-2.4,13.2-12.5,30.5-5.3
	c-1.1-7.4-3.2-20.5,9.6-32.6c8.3-7.9,25.2-14.9,41.8,2.6L1302.2,1234.6z M1310.9,1124.9c-9.2-6.5-18.2-8.8-26.2,2.5
	c-4.2,6-5.2,12.8,0.9,20.1c2.8,3.2,6.8,7.9,1,16.2c-3.7,5.3-10.5,7.5-15,4.3c-6.4-4.5-12-23.7,4.1-46.6
	c11.6-16.5,29.6-29.6,53.9-12.5l30.4,21.3c2.1,1.5,4.6,2.6,6.5,3.5c1.7,0.8,6.5,2.1,7.6,2.8c4.3,3,4.6,11.4,0.8,16.7
	c-3.7,5.3-8.8,5.7-15.6,3.7c1.4,16.4-6.9,28.3-9.7,32.3c-14.1,20.2-30.1,18.5-41.5,10.6c-26.5-18.6-5.1-50.2,8.6-70.6L1310.9,1124.9
	z M1325,1134.8c-12.1,17.8-19.4,33-3.4,44.2c7.4,5.2,16.1,6.9,23.6-3.9c1.8-2.5,6.5-10.5,5.4-22.3L1325,1134.8z M1388.5,1079.3
	c5.3,2.8,11.6,4.4,15.4-2.7c0.6-1.2,1.6-3.4,1.8-5.2c0.1-1.7,0.1-3.8,0.7-5c1-2,3.5-3.4,6.4-1.8c2.6,1.4,2.9,4.4,2.7,7.6
	c-0.2,6.3-1.7,11.9-4.9,17.9c-6.1,11.5-16.9,19.5-34.6,10.1l-53.8-28.5l-5.3,10c-1.5,2.9-4.5,3.4-6.8,2.2c-2.4-1.3-3.7-4.1-2.1-6.9
	l5.3-10l-18.1-9.6c-10.4-5.5-5.6-14.6-4.8-16.1c1.1-2.1,5.8-10.9,16.2-5.3l18.1,9.6l8.6-16.2c1.4-2.6,4.4-3.5,6.8-2.2
	c2.7,1.4,3.4,4.5,2.1,6.9l-8.6,16.2L1388.5,1079.3z M1325.3,974.3c7.9,3.3,11.5,12.4,8.2,20.3c-3.3,7.9-12.3,11.6-20.1,8.3
	c-7.9-3.3-11.7-12.3-8.4-20.2C1308.2,974.7,1317.2,970.9,1325.3,974.3z M1429,1021.4c10.9,4.6,6.9,14,6.3,15.6
	c-3,7.3-8.5,9.6-15.4,6.7l-70.2-29.4c-10.9-4.6-6.9-14-6.3-15.6c3-7.3,8.6-9.5,15.6-6.6L1429,1021.4z M1428.5,898.7
	c28.4,8.2,43.1,30.2,35.2,57.5c-8,27.6-32.2,38.2-60.5,30.1c-27.3-7.9-43.3-29.4-35.2-57.6C1376.2,900.7,1401.1,890.8,1428.5,898.7z
	 M1410.3,962c31.9,9.2,40.6,1.2,43.4-8.7c2.6-9,0.5-20.9-32.2-30.3c-30.2-8.7-40.2-2-43.2,8.5C1375.5,941.4,1378.6,952.8,1410.3,962
	z M1480.7,794.7c11.7,1.4,10.5,11.6,10.3,13.3c-0.9,8-5.5,11.7-13,10.9l-55.9-6.6c-8.8-1-19,0.9-20.5,13.3
	c-1.3,10.7,6.8,19.4,14.6,23.6l57.2,6.7c11.7,1.4,10.5,11.7,10.3,13.3c-0.3,2.2-1.4,12.2-13,10.9l-75.6-8.9
	c-11.7-1.4-10.5-11.7-10.3-13.3c0.4-3.4,3-12,12-11l4.6,0.5c-4.3-4.1-13.8-13.2-11.8-30.1c1.7-14.6,10-32.1,39.5-28.6L1480.7,794.7z
	 M98.7,428.4c-10.5-5.4-5.8-14.5-5-16c3.6-7,9.2-8.9,15.9-5.5l67.7,34.8c10.5,5.4,5.8,14.5,5,16c-3.6,7-9.4,8.8-16,5.4L98.7,428.4z
	 M198.4,483.6c-7.6-3.9-10.5-13.3-6.6-20.9s13.1-10.6,20.7-6.6c7.6,3.9,10.7,13.2,6.8,20.8C215.4,484.5,206.1,487.6,198.4,483.6z
	 M54,537.9c-11.1-4.1-7.5-13.7-6.9-15.3c2.8-7.5,8.1-10.1,15.2-7.5l52.7,19.6c8.3,3.1,18.7,3.7,23.1-8c3.8-10.1-2.1-20.5-8.6-26.4
	l-54-20.1c-11.1-4.1-7.4-13.9-6.9-15.3c0.8-2.1,4.3-11.5,15.2-7.5l71.3,26.5c11.1,4.1,7.4,13.9,6.9,15.3c-1.2,3.2-5.7,11-14.2,7.9
	l-4.3-1.6c3.2,5,10.3,16,4.3,32.1c-5.1,13.8-17.3,28.8-45.2,18.4L54,537.9z M144.2,596c23.5,5.4,23.5,22.2,21.1,32.6
	c-1.6,7.2-8.1,20.9-14.3,19.5c-3-0.7-4.2-3.2-3.6-5.7c0.3-1.2,1.2-2.3,2.1-3.7c1-1.3,1.8-3.4,2.2-5.1c1.7-7.5-2.8-11.5-10.8-13.4
	l-18.3-4.2l-4.1,18c-0.7,3.2-3.5,4.6-6,4.1c-2.7-0.6-4.5-3.1-3.8-6.3l4.1-18l-73-16.7c-11.5-2.6-9.2-12.8-8.8-14.3
	c0.5-2.2,2.8-12,14.1-9.4l73.2,16.8l2.4-10.3c0.7-3,3.5-4.5,6-3.9c2.7,0.6,4.6,3,3.9,6.1l-2.4,10.3L144.2,596z M60,727.7
	c-29.4-3-47.8-22.1-44.9-50.3C18,648.8,39.9,634,69.2,637c28.2,2.9,47.9,21.2,44.9,50.5C111.1,716.4,88.4,730.6,60,727.7z
	 M66.6,662.2c-33-3.4-40.2,6.1-41.2,16.3c-1,9.4,3.2,20.6,37.1,24.1c31.3,3.2,39.9-5.2,41-16.1C104.6,676.2,99.5,665.5,66.6,662.2z
	 M23.4,776.2c-11.8,0.4-12.2-9.8-12.2-11.5c-0.1-2.1-0.4-12.1,11.2-12.5l76-2.7c11.8-0.4,12.2,9.8,12.2,11.5
	c0.3,7.9-3.8,12.3-11.4,12.6l-9.6,0.3c12.8,4.2,21.9,13.2,22.3,24.5c0.2,6.3-4.6,10.9-10,11.1c-9.6,0.3-10.7-8.7-11.2-12.8
	c-2.3-17.9-12.6-20.9-17.2-22.3L23.4,776.2z M53.9,972.7c-11.5,2.5-13.7-7.7-14.1-9.2c-0.5-2.2-2.6-12,8.8-14.5l57.2-12.4
	c5.7-1.2,15.7-4.1,13.3-15.1c-1.9-8.9-9.1-13.1-20.3-15.4l-56.6,12.3c-11.5,2.5-13.7-7.5-14.1-9.2c-1.7-7.7,1.4-12.9,8.8-14.5
	l56.8-12.3c7.2-1.6,16-4.4,13.7-15c-2.9-13.2-16.3-14.8-21.5-15.4l-55.5,12c-11.5,2.5-13.7-7.5-14.1-9.2c-0.4-2-2.6-11.9,8.8-14.3
	l74.4-16.1c11.5-2.5,13.7,7.7,14.1,9.2c1.5,6.7-1.1,12.7-8,14.1l-4,0.9c16.6,6.5,19.6,20.2,20.4,23.8c0.7,3.3,3.8,17.7-11.2,28.9
	c6.9,2.9,19.2,7.9,22.9,25.1c2.4,11.2-0.3,29.3-23.9,34.4L53.9,972.7z M143.3,1036.9c10.3-4.5,17-11,11.4-23.7
	c-3-6.7-8.3-11.1-17.7-9.6c-4.2,0.7-10.3,1.7-14.3-7.5c-2.6-5.9-1-12.8,4-15c7.2-3.2,26.5,2,37.8,27.7c8.1,18.5,10,40.6-17.2,52.6
	l-34,14.9c-2.3,1-4.6,2.6-6.4,3.7c-1.6,1.1-5.1,4.5-6.4,5c-4.9,2.1-12.1-2-14.7-7.9s-0.3-10.5,4.9-15.2c-14.8-7.3-20.7-20.6-22.6-25
	c-9.9-22.5-0.2-35.4,12.4-41c29.6-13,45.6,21.6,56,43.9L143.3,1036.9z M127.4,1043.9c-9-19.6-18.2-33.7-36-25.8
	c-8.3,3.7-14.2,10.2-8.9,22.2c1.2,2.8,5.6,11,16.3,16.2L127.4,1043.9z M142,1127c-5.1,3.1-9.8,7.6-5.7,14.5c0.7,1.2,2.1,3.1,3.5,4.3
	c1.4,1,3.2,2.1,3.9,3.2c1.1,1.9,1,4.8-1.7,6.4c-2.5,1.5-5.3,0.2-7.9-1.6c-5.2-3.4-9.3-7.6-12.8-13.5c-6.7-11.2-7.9-24.6,9.3-34.8
	l52.3-31.2l-5.8-9.7c-1.7-2.8-0.6-5.6,1.6-6.9c2.3-1.4,5.4-1,7,1.8l5.8,9.7l17.6-10.5c10.1-6,15.4,2.8,16.3,4.2
	c1.2,2.1,6.3,10.6-3.8,16.6L204,1090l9.4,15.7c1.5,2.5,0.7,5.5-1.6,6.9c-2.6,1.6-5.6,0.6-7-1.8l-9.4-15.7L142,1127z M170.6,1191.6
	c-9.5,7-15.6-1.3-16.6-2.7c-4.6-6.4-3.8-12.2,2.2-16.7l61.5-44.8c9.5-7,15.6,1.3,16.6,2.7c4.6,6.4,3.7,12.3-2.4,16.8L170.6,1191.6z
	 M264.6,1127.3c-6.9,5-16.6,3.4-21.6-3.5s-3.5-16.5,3.4-21.5s16.6-3.6,21.6,3.3C273,1112.4,271.7,1122.1,264.6,1127.3z
	 M275.8,1254.7c-21.7,20.1-48.2,21.2-67.4,0.4c-19.5-21.1-16-47.3,5.6-67.3c20.9-19.3,47.6-21.8,67.5-0.2
	C301.2,1208.9,296.8,1235.3,275.8,1254.7z M231.1,1206.3c-24.4,22.5-22,34.1-15.1,41.6c6.4,6.9,17.6,11.2,42.6-11.9
	c23.1-21.4,22.5-33.4,15.1-41.4C266.7,1187.2,255.4,1184,231.1,1206.3z M337.7,1353.2c-7.3,9.3-15.3,3-16.7,2
	c-6.3-4.9-7.2-10.8-2.6-16.7L353,1294c5.5-7,9.1-16.7-0.7-24.4c-8.5-6.6-20.1-4.2-27.7,0.3l-35.4,45.5c-7.3,9.3-15.5,2.9-16.7,2
	c-1.8-1.4-9.7-7.6-2.6-16.7l46.8-60c7.3-9.3,15.5-2.9,16.7-2c2.7,2.1,8.8,8.8,3.2,15.9l-2.8,3.6c5.8-1.6,18.4-5,31.9,5.5
	c11.6,9,22.3,25.1,4,48.6L337.7,1353.2z"/>
<path class="st1" d="M172.4,395.3c-2.8,0-5.6-0.8-8.1-2.4c-7-4.5-9-13.8-4.5-20.7c62.3-96.9,148-178.5,247.8-235.8
	c7.2-4.1,16.4-1.6,20.5,5.5c4.1,7.2,1.6,16.4-5.5,20.5c-95.7,54.9-177.8,133.1-237.5,226C182.2,392.9,177.4,395.3,172.4,395.3z
	 M765.3,1444.7c0-8.3-6.7-15-15-15c-127.2,0-251.5-34.9-359.4-101c-7.1-4.3-16.3-2.1-20.6,5c-4.3,7.1-2.1,16.3,5,20.6
	c112.6,69,242.3,105.4,375.1,105.4C758.6,1459.7,765.3,1453,765.3,1444.7z M1461.5,751.5c0-60.9-7.6-121.3-22.6-179.7
	c-14.6-56.7-36.2-111.6-64.2-163.1c-4-7.3-13.1-10-20.3-6c-7.3,4-10,13.1-6,20.3c26.8,49.4,47.5,101.9,61.5,156.3
	c14.4,56,21.7,113.9,21.7,172.3c0,8.3,6.7,15,15,15S1461.5,759.8,1461.5,751.5z"/>
</svg>
